<svg width="119" height="112" viewBox="0 0 119 112" fill="none" xmlns="http://www.w3.org/2000/svg">
<path d="M68.4157 112H45.8784C42.6297 112 39.9902 109.36 39.9902 106.112V83.4726C39.9902 80.224 42.6297 77.5845 45.8784 77.5845H68.4157C71.6644 77.5845 74.3039 80.224 74.3039 83.4726V106.112C74.2024 109.36 71.6644 112 68.4157 112Z" fill="#08C0A6"/>
<path d="M59.6846 101.949L56.9436 104.792L43.6445 91.4929L46.4871 88.6504L59.6846 101.949Z" fill="white"/>
<path d="M54.2031 101.949L57.0457 104.792L70.2432 91.4925L67.5022 88.6499L54.2031 101.949Z" fill="white"/>
<path d="M28.9255 111.999H6.38814C3.13951 111.999 0.5 109.359 0.5 106.111V83.4719C0.5 80.2232 3.13951 77.5837 6.38814 77.5837H28.9255C32.1741 77.5837 34.8136 80.2232 34.8136 83.4719V106.111C34.8136 109.359 32.1741 111.999 28.9255 111.999Z" fill="#08C0A6"/>
<path d="M20.1944 101.948L17.4534 104.791L4.1543 91.4917L6.99685 88.6492L20.1944 101.948Z" fill="white"/>
<path d="M14.7129 101.948L17.5554 104.791L30.753 91.4917L28.012 88.6492L14.7129 101.948Z" fill="white"/>
<path d="M112.382 107.949L113.301 108.344C112.686 109.779 111.545 110.931 110.144 111.536L109.747 110.618C109.176 110.864 108.554 111 107.908 111H105.091V112H99.4564V111H93.8221V112H88.1877V111H85.3706C84.7068 111 84.0758 110.868 83.5008 110.629L83.1172 111.552C81.6789 110.955 80.5274 109.803 79.93 108.365L80.8535 107.982C80.6147 107.407 80.4824 106.776 80.4824 106.112V103.282H79.4824V97.6222H80.4824V91.9624H79.4824V86.3027H80.4824V83.4728C80.4824 82.8091 80.6147 82.1781 80.8535 81.6031L79.93 81.2195C80.5274 79.7812 81.6789 78.6297 83.1172 78.0323L83.5008 78.9558C84.0758 78.717 84.7068 78.5847 85.3706 78.5847H88.1877V77.5847H93.8221V78.5847H99.4564V77.5847H105.091V78.5847H107.908C108.572 78.5847 109.203 78.717 109.778 78.9558L110.161 78.0323C111.6 78.6297 112.751 79.7812 113.348 81.2195L112.425 81.6031C112.664 82.1781 112.796 82.8091 112.796 83.4728V86.3027H113.796V91.9624H112.796V97.6222H113.796V103.282H112.796V106.095C112.774 106.752 112.628 107.377 112.382 107.949Z" stroke="#08C0A6" stroke-width="2" stroke-dasharray="6 6"/>
<path d="M100.3 44.4314L96.5192 44.9814V44.7752L92.7383 44.2939L96.5192 74.1291L100.3 44.4314Z" fill="#3E7EFF"/>
<path d="M112.055 4.69727H80.9141V47.9376H112.055V4.69727Z" fill="#3E7EFF"/>
<path d="M115.286 9.37184H77.6829C75.6206 9.37184 73.9707 7.9282 73.9707 6.20959V3.5973C73.9707 1.87869 75.6206 0.435059 77.6829 0.435059H115.286C117.348 0.435059 118.998 1.87869 118.998 3.5973V6.20959C119.067 7.9282 117.348 9.37184 115.286 9.37184Z" fill="#2C50FF"/>
<path d="M115.286 53.0247H77.6829C75.6206 53.0247 73.9707 51.581 73.9707 49.8624V47.2501C73.9707 45.5315 75.6206 44.0879 77.6829 44.0879H115.286C117.348 44.0879 118.998 45.5315 118.998 47.2501V49.8624C119.067 51.581 117.348 53.0247 115.286 53.0247Z" fill="#2C50FF"/>
</svg>
