<svg width="130" height="96" viewBox="0 0 130 96" fill="none" xmlns="http://www.w3.org/2000/svg">
<path d="M64.801 95.1114C85.8727 95.1114 102.955 78.0294 102.955 56.9577C102.955 35.8861 85.8727 18.8041 64.801 18.8041C43.7293 18.8041 26.6473 35.8861 26.6473 56.9577C26.6473 78.0294 43.7293 95.1114 64.801 95.1114Z" fill="#FFDE0F"/>
<path d="M64.8012 85.573C80.6049 85.573 93.4164 72.7615 93.4164 56.9578C93.4164 41.154 80.6049 28.3425 64.8012 28.3425C48.9974 28.3425 36.1859 41.154 36.1859 56.9578C36.1859 72.7615 48.9974 85.573 64.8012 85.573Z" fill="#FFDE0F" stroke="#FFB50D" stroke-width="3"/>
<path fill-rule="evenodd" clip-rule="evenodd" d="M54.6268 62.6617H58.789C58.9817 65.6677 61.0629 67.3634 63.9533 67.3634C66.9593 67.3634 68.9634 65.7448 68.9634 63.0085C68.9634 60.5805 67.2291 59.7327 64.5314 58.9234L61.2555 57.9214C58.5964 57.112 55.2435 55.1851 55.2435 50.6375C55.2435 46.7836 58.0183 43.9702 62.1034 43.3151V39.1528H65.8032V43.3151C69.58 43.9317 72.3933 46.5138 72.6631 50.3292H68.5009C68.154 47.6314 66.3042 46.4367 63.9533 46.4367C61.5639 46.4367 59.5213 47.6314 59.5213 50.2135C59.5213 52.603 60.9087 53.4508 63.645 54.2987L66.9208 55.3007C71.0445 56.5725 73.2797 58.7692 73.2797 62.6617C73.2797 66.978 70.2737 69.8685 65.8032 70.4851V74.7629H62.1034V70.4851C57.6329 69.8685 54.781 67.0166 54.6268 62.6617Z" fill="white"/>
<path d="M46.9961 59.5013C48.4009 59.5013 49.5397 58.3625 49.5397 56.9578C49.5397 55.553 48.4009 54.4142 46.9961 54.4142C45.5913 54.4142 44.4525 55.553 44.4525 56.9578C44.4525 58.3625 45.5913 59.5013 46.9961 59.5013Z" fill="white"/>
<path d="M82.6062 59.5013C84.011 59.5013 85.1498 58.3625 85.1498 56.9578C85.1498 55.553 84.011 54.4142 82.6062 54.4142C81.2014 54.4142 80.0626 55.553 80.0626 56.9578C80.0626 58.3625 81.2014 59.5013 82.6062 59.5013Z" fill="white"/>
<path d="M31.4665 21.1005C32.876 21.1005 34.0186 19.9579 34.0186 18.5484C34.0186 17.1389 32.876 15.9963 31.4665 15.9963C30.057 15.9963 28.9144 17.1389 28.9144 18.5484C28.9144 19.9579 30.057 21.1005 31.4665 21.1005Z" stroke="#FFF3D6" stroke-width="2"/>
<path d="M4.23629 51.4389C5.64577 51.4389 6.78837 50.2963 6.78837 48.8868C6.78837 47.4773 5.64577 46.3347 4.23629 46.3347C2.82681 46.3347 1.6842 47.4773 1.6842 48.8868C1.6842 50.2963 2.82681 51.4389 4.23629 51.4389Z" stroke="#FFF3D6" stroke-width="2"/>
<path d="M119.513 51.7258C120.218 51.7258 120.789 51.1545 120.789 50.4497C120.789 49.745 120.218 49.1737 119.513 49.1737C118.809 49.1737 118.237 49.745 118.237 50.4497C118.237 51.1545 118.809 51.7258 119.513 51.7258Z" stroke="#FFF3D6" stroke-width="2"/>
<path d="M24.1106 91.2199C24.8154 91.2199 25.3867 90.6486 25.3867 89.9439C25.3867 89.2392 24.8154 88.6678 24.1106 88.6678C23.4059 88.6678 22.8346 89.2392 22.8346 89.9439C22.8346 90.6486 23.4059 91.2199 24.1106 91.2199Z" stroke="#FFF3D6" stroke-width="2"/>
<path d="M101.649 23.6526C103.763 23.6526 105.477 21.9387 105.477 19.8245C105.477 17.7102 103.763 15.9963 101.649 15.9963C99.5347 15.9963 97.8208 17.7102 97.8208 19.8245C97.8208 21.9387 99.5347 23.6526 101.649 23.6526Z" stroke="#FFF3D6" stroke-width="2"/>
<path fill-rule="evenodd" clip-rule="evenodd" d="M103.435 6.29895V4.00208C103.435 3.57923 103.778 3.23645 104.201 3.23645C104.624 3.23645 104.967 3.57923 104.967 4.00208V6.29895H107.264C107.686 6.29895 108.029 6.64173 108.029 7.06458C108.029 7.48742 107.686 7.8302 107.264 7.8302H104.967V10.1271C104.967 10.5499 104.624 10.8927 104.201 10.8927C103.778 10.8927 103.435 10.5499 103.435 10.1271V7.8302H101.139C100.716 7.8302 100.373 7.48742 100.373 7.06458C100.373 6.64173 100.716 6.29895 101.139 6.29895H103.435Z" fill="#FFCE5C"/>
<path fill-rule="evenodd" clip-rule="evenodd" d="M112.623 15.4869V13.9556C112.623 13.6737 112.852 13.4452 113.134 13.4452C113.415 13.4452 113.644 13.6737 113.644 13.9556V15.4869H115.175C115.457 15.4869 115.686 15.7154 115.686 15.9973C115.686 16.2792 115.457 16.5077 115.175 16.5077H113.644V18.0389C113.644 18.3208 113.415 18.5494 113.134 18.5494C112.852 18.5494 112.623 18.3208 112.623 18.0389V16.5077H111.092C110.81 16.5077 110.581 16.2792 110.581 15.9973C110.581 15.7154 110.81 15.4869 111.092 15.4869H112.623Z" fill="#FFCE5C"/>
<path fill-rule="evenodd" clip-rule="evenodd" d="M8.82987 56.0328V54.5015C8.82987 54.2196 9.0584 53.9911 9.34029 53.9911C9.62219 53.9911 9.85071 54.2196 9.85071 54.5015V56.0328H11.382C11.6639 56.0328 11.8924 56.2613 11.8924 56.5432C11.8924 56.8251 11.6639 57.0536 11.382 57.0536H9.85071V58.5848C9.85071 58.8667 9.62219 59.0953 9.34029 59.0953C9.0584 59.0953 8.82987 58.8667 8.82987 58.5848V57.0536H7.29863C7.01673 57.0536 6.78821 56.8251 6.78821 56.5432C6.78821 56.2613 7.01673 56.0328 7.29863 56.0328H8.82987Z" fill="#FFCE5C"/>
<path fill-rule="evenodd" clip-rule="evenodd" d="M126.094 43.5569V42.0257C126.094 41.7438 126.323 41.5153 126.605 41.5153C126.887 41.5153 127.115 41.7438 127.115 42.0257V43.5569H128.646C128.928 43.5569 129.157 43.7854 129.157 44.0673C129.157 44.3492 128.928 44.5778 128.646 44.5778H127.115V46.109C127.115 46.3909 126.887 46.6194 126.605 46.6194C126.323 46.6194 126.094 46.3909 126.094 46.109V44.5778H124.563C124.281 44.5778 124.053 44.3492 124.053 44.0673C124.053 43.7854 124.281 43.5569 124.563 43.5569H126.094Z" fill="#FFCE5C"/>
<path fill-rule="evenodd" clip-rule="evenodd" d="M22.324 80.5003V78.969C22.324 78.6871 22.5525 78.4586 22.8344 78.4586C23.1163 78.4586 23.3449 78.6871 23.3449 78.969V80.5003H24.8761C25.158 80.5003 25.3865 80.7288 25.3865 81.0107C25.3865 81.2926 25.158 81.5211 24.8761 81.5211H23.3449V83.0524C23.3449 83.3343 23.1163 83.5628 22.8344 83.5628C22.5525 83.5628 22.324 83.3343 22.324 83.0524V81.5211H20.7928C20.5109 81.5211 20.2823 81.2926 20.2823 81.0107C20.2823 80.7288 20.5109 80.5003 20.7928 80.5003H22.324Z" fill="#FFCE5C"/>
<path fill-rule="evenodd" clip-rule="evenodd" d="M113.625 83.8821V82.3509C113.625 82.069 113.853 81.8405 114.135 81.8405C114.417 81.8405 114.645 82.069 114.645 82.3509V83.8821H116.177C116.459 83.8821 116.687 84.1106 116.687 84.3925C116.687 84.6744 116.459 84.903 116.177 84.903H114.645V86.4342C114.645 86.7161 114.417 86.9446 114.135 86.9446C113.853 86.9446 113.625 86.7161 113.625 86.4342V84.903H112.093C111.811 84.903 111.583 84.6744 111.583 84.3925C111.583 84.1106 111.811 83.8821 112.093 83.8821H113.625Z" fill="#FFCE5C"/>
<path fill-rule="evenodd" clip-rule="evenodd" d="M45.7583 4.76779V1.70528C45.7583 1.14149 46.2153 0.684448 46.7791 0.684448C47.3429 0.684448 47.7999 1.14149 47.7999 1.70528V4.76779H50.8624C51.4262 4.76779 51.8833 5.22483 51.8833 5.78862C51.8833 6.35241 51.4262 6.80945 50.8624 6.80945H47.7999V9.87195C47.7999 10.4357 47.3429 10.8928 46.7791 10.8928C46.2153 10.8928 45.7583 10.4357 45.7583 9.87195V6.80945H42.6958C42.132 6.80945 41.6749 6.35241 41.6749 5.78862C41.6749 5.22483 42.132 4.76779 42.6958 4.76779H45.7583Z" fill="#FFCE5C"/>
</svg>
