<svg width="35" height="33" viewBox="0 0 35 33" fill="none" xmlns="http://www.w3.org/2000/svg">
<ellipse cx="17.5" cy="16.5" rx="17.5" ry="16.5" fill="#FFB50D"/>
<ellipse cx="17.5002" cy="16.5002" rx="15.2609" ry="14.3889" fill="#FFDE0F"/>
<rect x="11.2391" y="9.49023" width="1.56523" height="4.42735" rx="0.782613" fill="#FFB50D"/>
<rect x="22.587" y="9.49023" width="1.56523" height="4.42735" rx="0.782613" fill="#FFB50D"/>
<path fill-rule="evenodd" clip-rule="evenodd" d="M11.9744 19.4525C12.4059 19.4279 12.7768 19.7377 12.803 20.1444L12.0218 20.1891C12.803 20.1444 12.8029 20.1442 12.8029 20.1439L12.8029 20.1435L12.8029 20.1432C12.8029 20.1432 12.8029 20.1436 12.8029 20.1441L12.8035 20.1522C12.8042 20.1604 12.8053 20.1741 12.8071 20.1929C12.8106 20.2304 12.8165 20.2882 12.826 20.3634C12.845 20.5141 12.8781 20.7332 12.9333 20.9977C13.0445 21.5301 13.2423 22.2291 13.5861 22.9192C14.2685 24.289 15.4656 25.5388 17.6957 25.5388C18.843 25.5388 19.6732 25.2128 20.2932 24.748C20.9256 24.2738 21.3783 23.6249 21.6993 22.9361C22.0199 22.2483 22.1949 21.5509 22.2889 21.019C22.3356 20.7548 22.3616 20.5359 22.3757 20.3854C22.3828 20.3103 22.3869 20.2525 22.3892 20.215C22.3903 20.1963 22.391 20.1827 22.3914 20.1745L22.3917 20.1667L22.3918 20.1664L22.3918 20.1662C22.4051 19.7591 22.7659 19.4392 23.1977 19.4515C23.6297 19.4639 23.9693 19.8041 23.9563 20.2114L23.174 20.1891C23.9563 20.2114 23.9562 20.2118 23.9562 20.2121L23.9562 20.2129L23.9561 20.2149L23.9559 20.2206L23.9551 20.2386C23.9545 20.2535 23.9534 20.274 23.9518 20.2999C23.9487 20.3516 23.9434 20.4246 23.9348 20.5159C23.9177 20.6983 23.887 20.955 23.8329 21.2616C23.7251 21.8711 23.5211 22.6956 23.1323 23.5297C22.7441 24.3628 22.1574 25.2358 21.2674 25.9031C20.365 26.5797 19.1897 27.0146 17.6957 27.0146C14.6432 27.0146 13.0033 25.2206 12.1694 23.5466C11.755 22.7148 11.5248 21.8919 11.3976 21.2829C11.3336 20.9767 11.2948 20.7202 11.2718 20.5379C11.2603 20.4466 11.2527 20.3737 11.2478 20.3221C11.2454 20.2962 11.2437 20.2757 11.2426 20.2609L11.2412 20.2429L11.2408 20.2372L11.2407 20.2352L11.2406 20.2344C11.2406 20.234 11.2406 20.2337 12.0218 20.1891L11.2406 20.2337C11.2144 19.8269 11.543 19.4772 11.9744 19.4525ZM12.8029 20.1432V20.1432V20.1432Z" fill="#FFB50D"/>
</svg>
