<svg width="16" height="16" viewBox="0 0 16 16" fill="none" xmlns="http://www.w3.org/2000/svg">
<path d="M7.48443 14C7.60399 14 7.71856 13.9825 7.82815 13.9475C7.93773 13.9125 8.04234 13.845 8.14197 13.745L13.746 8.12C13.8456 8.02 13.9128 7.915 13.9477 7.805C13.9826 7.695 14 7.58 14 7.46V2.9C14 2.64 13.9153 2.425 13.746 2.255C13.5766 2.085 13.3624 2 13.1034 2H8.5604C8.44085 2 8.3213 2.0175 8.20174 2.0525C8.08219 2.0875 7.9726 2.155 7.87298 2.255L2.29888 7.85C2.09963 8.05 2 8.2725 2 8.5175C2 8.7625 2.09963 8.985 2.29888 9.185L6.84184 13.745C6.92154 13.825 7.01868 13.8875 7.13325 13.9325C7.24782 13.9775 7.36488 14 7.48443 14ZM7.45455 13.13L2.91158 8.57L8.5604 2.9H13.1034V7.46L7.45455 13.13ZM11.5342 5.24C11.325 5.24 11.1432 5.1625 10.9888 5.0075C10.8344 4.8525 10.7572 4.67 10.7572 4.46C10.7572 4.25 10.8344 4.0675 10.9888 3.9125C11.1432 3.7575 11.325 3.68 11.5342 3.68C11.7435 3.68 11.9253 3.7575 12.0797 3.9125C12.2341 4.0675 12.3113 4.25 12.3113 4.46C12.3113 4.67 12.2341 4.8525 12.0797 5.0075C11.9253 5.1625 11.7435 5.24 11.5342 5.24Z" fill="#757575"/>
</svg>
