<svg width="68" height="108" viewBox="0 0 68 108" fill="none" xmlns="http://www.w3.org/2000/svg">
<g clip-path="url(#clip0_1364_250625)">
<path d="M23.2067 46.2503C31.7586 44.4588 40.2336 45.8522 46.3691 48.4913C52.5679 51.1894 56.4273 55.1332 57.2071 59.8063C57.9967 64.5246 55.7383 69.4164 52.1987 74.4304C48.6019 79.3833 43.7258 84.4564 37.9515 88.1007C26.8332 95.5941 13.1111 92.6436 5.54819 79.2572C-2.00876 65.9594 5.58965 49.4885 23.2067 46.2503Z" fill="#EAF4FE"/>
<path d="M33.5464 89.1316C33.5195 88.408 33.4814 87.4422 33.4545 86.7186C33.4735 87.2158 33.5258 88.56 33.5464 89.0762C33.5464 89.0952 33.5464 89.1126 33.5464 89.1316Z" fill="#FFC910"/>
<path d="M53.5147 85.7037C53.548 86.5936 53.5813 87.485 53.6162 88.3748C53.6415 89.0556 52.7487 89.7728 50.8995 90.3919C46.9063 91.7266 39.9711 92.0924 35.4101 91.2057C32.9599 90.7307 31.6928 89.9913 31.6627 89.2013L31.5612 86.5302C31.5913 87.3187 32.8584 88.0581 35.3086 88.5347C39.8696 89.4198 46.8048 89.0556 50.798 87.7193C52.6472 87.1034 53.54 86.3846 53.5147 85.7037Z" fill="#FFAB01"/>
<path d="M49.7674 83.6993C54.33 84.5844 54.7915 86.3846 50.7982 87.721C46.8049 89.0573 39.8698 89.4214 35.3088 88.5364C30.7461 87.6513 30.2862 85.8511 34.2779 84.5163C38.2712 83.18 45.2047 82.8143 49.7674 83.6993ZM36.5489 88.12C40.3281 88.853 46.0722 88.5506 49.3788 87.4455C52.687 86.3387 52.3048 84.8488 48.5256 84.1142C44.748 83.3811 39.0039 83.6835 35.6957 84.7887C32.3891 85.897 32.7713 87.3869 36.5489 88.12Z" fill="#FFC910"/>
<path d="M48.5258 84.1158C52.305 84.8489 52.6872 86.3404 49.379 87.4471C46.0724 88.5539 40.3283 88.8563 36.5491 88.1216C32.7715 87.3885 32.3893 85.8971 35.6975 84.7903C39.0041 83.6836 44.7482 83.3828 48.5258 84.1158Z" fill="#FFAB01"/>
<path d="M35.6966 85.1229C39.0048 84.0162 44.7489 83.7138 48.5265 84.4468C50.4074 84.8126 51.4461 85.3636 51.6079 85.9637C51.7966 85.2401 50.7515 84.545 48.5265 84.1143C44.7489 83.3813 39.0048 83.6837 35.6966 84.7888C34.0346 85.3446 33.3051 85.9969 33.4684 86.6033C33.6016 86.0982 34.3359 85.5789 35.6966 85.1229Z" fill="#F99B0F"/>
<path d="M32.6094 87.6956V90.3128C33.2358 90.6595 34.1715 90.9667 35.4085 91.2073C36.6312 91.4448 38.0268 91.5921 39.489 91.6538V88.9875C37.9903 88.9274 36.5598 88.7785 35.307 88.5363C34.135 88.3083 33.2342 88.0201 32.6094 87.6956Z" fill="#F99B0F"/>
<path d="M46.9769 84.947L45.9762 85.281C46.3743 85.3919 46.5646 85.5249 46.5392 85.68C46.517 85.8352 46.2823 85.9951 45.8398 86.1614L44.809 85.9619C45.0564 85.8669 45.1658 85.775 45.1325 85.6864C45.1024 85.5961 44.9343 85.5217 44.6298 85.4631C44.3047 85.3998 43.9558 85.3792 43.5847 85.3998C43.2136 85.4204 42.8837 85.479 42.5919 85.5771C42.4857 85.612 42.4064 85.6484 42.3509 85.6848C42.2969 85.7212 42.2716 85.7576 42.2716 85.7956C42.2668 85.8732 42.4524 85.9714 42.8314 86.0933C43.0582 86.1661 43.2199 86.2231 43.3214 86.2674C43.6719 86.4194 43.8257 86.573 43.7798 86.7298C43.7338 86.8849 43.4959 87.0353 43.0629 87.1794C42.5158 87.3631 41.8894 87.4866 41.1821 87.5515C40.4779 87.6164 39.8341 87.6101 39.2568 87.5309L38.0531 87.9331L37.092 87.7463L38.2482 87.3599C37.7407 87.2253 37.4964 87.0638 37.5186 86.8786C37.5393 86.6934 37.8247 86.5065 38.3766 86.3213L39.3694 86.5144C39.0173 86.6443 38.8571 86.7599 38.8857 86.8659C38.9126 86.9704 39.1331 87.0638 39.5454 87.143C39.9213 87.2158 40.3209 87.2412 40.7459 87.2174C41.171 87.1937 41.5484 87.1256 41.8846 87.0132C42.0036 86.9736 42.1003 86.934 42.1732 86.896C42.2462 86.8564 42.2938 86.82 42.3176 86.7868C42.3905 86.6744 42.2176 86.5477 41.8021 86.4084C41.7339 86.3846 41.6832 86.3688 41.6499 86.3561C41.1408 86.1788 40.876 86.0141 40.8506 85.8574C40.8252 85.7022 41.0425 85.5486 41.4992 85.395C41.9972 85.2288 42.5602 85.118 43.1882 85.0641C43.8162 85.0103 44.4284 85.0198 45.0247 85.0926L46.0159 84.7617L46.9769 84.947Z" fill="#F99B0F"/>
<path d="M46.9769 84.5717L45.9762 84.9074C46.3743 85.0182 46.5646 85.1512 46.5392 85.3064C46.517 85.4615 46.2823 85.6215 45.8398 85.7877L44.809 85.5882C45.0564 85.4932 45.1658 85.4014 45.1325 85.3127C45.1024 85.2225 44.9343 85.148 44.6298 85.0895C44.3047 85.0261 43.9558 85.0056 43.5847 85.0261C43.2136 85.0467 42.8837 85.1053 42.5919 85.2035C42.4857 85.2399 42.4064 85.2747 42.3509 85.3111C42.2969 85.3475 42.2716 85.384 42.2716 85.422C42.2668 85.4995 42.4524 85.5977 42.8314 85.7196C43.0582 85.7925 43.2199 85.8495 43.3214 85.8938C43.6719 86.0474 43.8257 86.201 43.7798 86.3561C43.7338 86.5113 43.4959 86.6601 43.0629 86.8058C42.5158 86.9894 41.8894 87.1129 41.1821 87.1779C40.4779 87.2428 39.8341 87.2349 39.2568 87.1573L38.0531 87.5594L37.092 87.3726L38.2482 86.9847C37.7407 86.8501 37.4964 86.6902 37.5186 86.5049C37.5393 86.3197 37.8247 86.1329 38.3766 85.9476L39.3694 86.1408C39.0173 86.2706 38.8571 86.3862 38.8857 86.4923C38.9126 86.5968 39.1331 86.6902 39.5454 86.7694C39.9213 86.8422 40.3209 86.8675 40.7459 86.8422C41.171 86.8184 41.5484 86.7504 41.8846 86.6379C42.0036 86.5984 42.1003 86.5588 42.1732 86.5208C42.2462 86.4828 42.2938 86.4448 42.3176 86.4115C42.3905 86.2991 42.2176 86.1725 41.8021 86.0331C41.7339 86.011 41.6832 85.9935 41.6499 85.9809C41.1408 85.8035 40.876 85.6389 40.8506 85.4837C40.8252 85.3285 41.0425 85.1734 41.4992 85.0198C41.9972 84.8536 42.5602 84.7427 43.1882 84.6889C43.8162 84.6351 44.4284 84.6446 45.0247 84.7174L46.0159 84.3865L46.9769 84.5717Z" fill="#FFC910"/>
<path d="M32.0987 85.6156C32.0717 84.892 32.0353 83.9278 32.0067 83.2042C32.0257 83.7014 32.0781 85.0456 32.0987 85.5618C32.0987 85.5792 32.0987 85.5966 32.0987 85.6156Z" fill="#FFC910"/>
<path d="M52.0684 82.1876C52.1017 83.0774 52.135 83.9688 52.1699 84.8587C52.1953 85.5395 51.3024 86.2567 49.4532 86.8758C45.46 88.2105 38.5249 88.5763 33.9638 87.6912C31.5136 87.2162 30.2465 86.4768 30.2164 85.6867L30.1149 83.0157C30.145 83.8058 31.4121 84.5452 33.8623 85.0202C38.4249 85.9052 45.3601 85.5411 49.3517 84.2048C51.1993 83.5857 52.0938 82.8684 52.0684 82.1876Z" fill="#FFAB01"/>
<path d="M48.3204 80.1831C52.883 81.0681 53.3445 82.8684 49.3512 84.2031C45.358 85.5394 38.4228 85.9036 33.8618 85.0185C29.3008 84.1334 28.8393 82.3332 32.831 80.9969C36.8243 79.6622 43.7578 79.298 48.3204 80.1831ZM35.102 84.6037C38.8812 85.3368 44.6253 85.0343 47.9319 83.9292C51.24 82.8225 50.8578 81.3326 47.0787 80.5979C43.3011 79.8648 37.5569 80.1672 34.2488 81.2724C30.9422 82.3791 31.3244 83.8706 35.102 84.6037Z" fill="#FFC910"/>
<path d="M47.0784 80.5981C50.8576 81.3312 51.2398 82.8227 47.9316 83.9294C44.6235 85.0346 38.8794 85.3386 35.1018 84.6039C31.3242 83.8709 30.942 82.3794 34.2486 81.2742C37.5567 80.1675 43.3008 79.8651 47.0784 80.5981Z" fill="#FFAB01"/>
<path d="M34.2489 81.6064C37.5571 80.4997 43.3012 80.1973 47.0788 80.9304C48.9597 81.2945 49.9984 81.8471 50.1602 82.4472C50.3489 81.7236 49.3038 81.0285 47.0788 80.5979C43.3012 79.8648 37.5571 80.1672 34.2489 81.2724C32.5885 81.8281 31.8574 82.4804 32.0208 83.0852C32.154 82.5817 32.8882 82.0608 34.2489 81.6064Z" fill="#F99B0F"/>
<path d="M31.1617 84.1777V86.795C31.7882 87.1417 32.7238 87.4504 33.9608 87.6895C35.1836 87.927 36.5776 88.0743 38.0398 88.1376V85.4713C36.5411 85.4111 35.1106 85.2623 33.8578 85.0201C32.6874 84.7921 31.7866 84.5039 31.1617 84.1777Z" fill="#F99B0F"/>
<path d="M45.5292 81.4306L44.5269 81.7663C44.9265 81.8771 45.1152 82.0101 45.0914 82.1653C45.0692 82.3204 44.8345 82.4819 44.3921 82.6466L43.3612 82.4471C43.6086 82.3537 43.7181 82.2619 43.6848 82.1716C43.6546 82.0814 43.4865 82.0069 43.182 81.9484C42.8569 81.885 42.508 81.8644 42.1369 81.885C41.7674 81.9056 41.436 81.9642 41.1442 82.0624C41.0379 82.0988 40.9586 82.1336 40.9047 82.17C40.8508 82.2064 40.8238 82.2428 40.8238 82.2808C40.8191 82.3584 41.0062 82.4566 41.3836 82.5785C41.6104 82.6513 41.7722 82.7083 41.8737 82.7527C42.2242 82.9047 42.3796 83.0598 42.332 83.215C42.286 83.3702 42.0481 83.519 41.6152 83.6647C41.068 83.8483 40.44 83.9718 39.7343 84.0367C39.0302 84.1017 38.3863 84.0937 37.8074 84.0162L36.6053 84.4183L35.6443 84.2315L36.8004 83.8452C36.2929 83.7106 36.0487 83.5507 36.0709 83.3638C36.0899 83.1786 36.377 82.9933 36.9289 82.8065L37.9216 82.9997C37.5711 83.1279 37.4094 83.2451 37.4379 83.3496C37.4665 83.4541 37.6853 83.5475 38.0977 83.6267C38.4735 83.6995 38.8732 83.7248 39.2982 83.7011C39.7216 83.6773 40.1006 83.6092 40.4369 83.4968C40.5558 83.4572 40.6525 83.4177 40.7255 83.3797C40.7984 83.3417 40.846 83.3037 40.8698 83.2704C40.9412 83.158 40.7699 83.0313 40.3544 82.892C40.2862 82.8698 40.2354 82.8524 40.2021 82.8413C39.6931 82.664 39.4282 82.4993 39.4044 82.3426C39.3791 82.1874 39.5963 82.0323 40.0531 81.8803C40.551 81.714 41.114 81.6032 41.742 81.5494C42.3701 81.4955 42.9822 81.505 43.5785 81.5779L44.5697 81.2469L45.5292 81.4306Z" fill="#F99B0F"/>
<path d="M45.5292 81.0556L44.5269 81.3913C44.9265 81.5021 45.1152 81.6351 45.0914 81.7903C45.0692 81.9454 44.8345 82.1054 44.3921 82.2716L43.3612 82.0721C43.6086 81.9787 43.7181 81.8853 43.6848 81.7966C43.6546 81.7064 43.4865 81.6319 43.182 81.5718C42.8569 81.5084 42.508 81.4879 42.1369 81.5084C41.7674 81.529 41.436 81.5876 41.1442 81.6858C41.0379 81.7222 40.9586 81.757 40.9047 81.7934C40.8508 81.8299 40.8238 81.8663 40.8238 81.9043C40.8191 81.9819 41.0062 82.08 41.3836 82.2019C41.6104 82.2748 41.7722 82.3318 41.8737 82.3761C42.2242 82.5297 42.3796 82.6833 42.332 82.8384C42.286 82.9936 42.0481 83.1424 41.6152 83.2881C41.068 83.4718 40.44 83.5952 39.7343 83.6602C39.0302 83.7251 38.3863 83.7172 37.8074 83.6396L36.6053 84.0417L35.6443 83.8549L36.8004 83.4686C36.2929 83.334 36.0487 83.1725 36.0709 82.9873C36.0899 82.802 36.377 82.6168 36.9289 82.4299L37.9216 82.6231C37.5711 82.7529 37.4094 82.8685 37.4379 82.9746C37.4665 83.0791 37.6853 83.1725 38.0977 83.2517C38.4735 83.3245 38.8732 83.3498 39.2982 83.3261C39.7216 83.3023 40.1006 83.2343 40.4369 83.1218C40.5558 83.0823 40.6525 83.0427 40.7255 83.0047C40.7984 82.9667 40.846 82.9303 40.8698 82.8954C40.9412 82.783 40.7699 82.6563 40.3544 82.517C40.2862 82.4948 40.2354 82.4774 40.2021 82.4663C39.6931 82.289 39.4282 82.1244 39.4044 81.9692C39.3791 81.814 39.5963 81.6589 40.0531 81.5069C40.551 81.3406 41.114 81.2298 41.742 81.1759C42.3701 81.1221 42.9822 81.1316 43.5785 81.2044L44.5697 80.8735L45.5292 81.0556Z" fill="#FFC910"/>
<path d="M33.8542 81.855C33.8272 81.1314 33.7908 80.1672 33.7622 79.442C33.7812 79.9392 33.8336 81.2834 33.8542 81.798C33.8542 81.8186 33.8542 81.836 33.8542 81.855Z" fill="#FFC910"/>
<path d="M53.8227 78.4272C53.856 79.3187 53.8893 80.2085 53.9226 81.0983C53.9479 81.7791 53.0551 82.4964 51.2059 83.1154C47.2127 84.4502 40.2775 84.8159 35.7165 83.9308C33.2663 83.4558 31.9992 82.7164 31.9691 81.9264L31.8676 79.2553C31.8977 80.0438 33.1648 80.7832 35.615 81.2598C40.176 82.1449 47.1127 81.7807 51.1044 80.4444C52.9536 79.8253 53.848 79.1081 53.8227 78.4272Z" fill="#FFAB01"/>
<path d="M50.0751 76.4225C54.6361 77.3076 55.0992 79.1078 51.1059 80.4425C47.1126 81.7788 40.1775 82.143 35.6165 81.2579C31.0539 80.3729 30.594 78.5726 34.5857 77.2379C38.579 75.9016 45.5125 75.5374 50.0751 76.4225ZM36.8567 80.8431C40.6359 81.5762 46.38 81.2738 49.6881 80.1686C52.9947 79.0619 52.6141 77.5704 48.8349 76.8373C45.0573 76.1042 39.3132 76.4067 36.005 77.5134C32.6969 78.6185 33.0775 80.11 36.8567 80.8431Z" fill="#FFC910"/>
<path d="M48.8332 76.8377C52.6124 77.5708 52.993 79.0623 49.6865 80.169C46.3783 81.2742 40.6342 81.5782 36.855 80.8435C33.0758 80.1104 32.6952 78.619 36.0018 77.5122C39.3115 76.4071 45.0556 76.1047 48.8332 76.8377Z" fill="#FFAB01"/>
<path d="M36.003 77.846C39.3112 76.7392 45.0553 76.4384 48.8329 77.1715C50.7137 77.5372 51.7509 78.0898 51.9127 78.6883C52.1014 77.9647 51.0563 77.2712 48.8329 76.839C45.0553 76.1059 39.3112 76.4083 36.003 77.5151C34.341 78.0708 33.6115 78.7231 33.7748 79.328C33.908 78.8213 34.6423 78.3004 36.003 77.846Z" fill="#F99B0F"/>
<path d="M32.9171 80.4172V83.0344C33.5451 83.3812 34.4792 83.6899 35.7178 83.929C36.9405 84.1665 38.3345 84.3138 39.7983 84.3755V81.7092C38.2996 81.6491 36.8676 81.5002 35.6163 81.258C34.4427 81.0316 33.542 80.7434 32.9171 80.4172Z" fill="#F99B0F"/>
<path d="M47.2837 77.6701L46.2814 78.0058C46.681 78.1166 46.8698 78.2496 46.8444 78.4048C46.8222 78.5599 46.5875 78.7199 46.145 78.8861L45.1142 78.6866C45.3616 78.5916 45.471 78.4998 45.4377 78.4111C45.406 78.3209 45.2379 78.2464 44.935 78.1879C44.6099 78.1245 44.261 78.1039 43.8899 78.1245C43.5188 78.1451 43.1889 78.2037 42.8971 78.3019C42.7893 78.3383 42.7115 78.3731 42.656 78.4095C42.6021 78.4459 42.5752 78.4824 42.5752 78.5204C42.5704 78.5979 42.7575 78.6961 43.1366 78.818C43.3633 78.8908 43.5251 78.9478 43.625 78.9922C43.9755 79.1458 44.1309 79.2993 44.0833 79.4545C44.0374 79.6097 43.7995 79.7601 43.3665 79.9042C42.8194 80.0878 42.193 80.2113 41.4857 80.2762C40.7799 80.3412 40.1376 80.3332 39.5588 80.2557L38.3567 80.6578L37.3956 80.471L38.5517 80.0847C38.0443 79.9501 37.8 79.7886 37.8222 79.6033C37.8413 79.4181 38.1283 79.2313 38.6802 79.046L39.673 79.2392C39.3209 79.3674 39.1607 79.4846 39.1893 79.5891C39.2178 79.6936 39.4367 79.787 39.849 79.8662C40.2265 79.939 40.6245 79.9643 41.0495 79.939C41.4745 79.9153 41.8536 79.8488 42.1882 79.7363C42.3071 79.6968 42.4039 79.6572 42.4768 79.6192C42.5498 79.5796 42.5974 79.5432 42.6212 79.5099C42.6941 79.3975 42.5212 79.2708 42.1057 79.1315C42.036 79.1093 41.9868 79.0919 41.9535 79.0793C41.446 78.9019 41.1796 78.7373 41.1542 78.5821C41.1288 78.4269 41.3461 78.2718 41.8028 78.1198C42.3008 77.9535 42.8638 77.8427 43.4918 77.7889C44.1198 77.735 44.732 77.7445 45.3283 77.8174L46.3195 77.4865L47.2837 77.6701Z" fill="#F99B0F"/>
<path d="M47.2837 77.295L46.2814 77.6291C46.681 77.7399 46.8698 77.8729 46.8444 78.0281C46.8222 78.1832 46.5875 78.3431 46.145 78.5094L45.1142 78.3099C45.3616 78.2165 45.471 78.1231 45.4377 78.0344C45.406 77.9442 45.2379 77.8697 44.935 77.8112C44.6099 77.7478 44.261 77.7272 43.8899 77.7478C43.5188 77.7684 43.1889 77.827 42.8971 77.9252C42.7893 77.9616 42.7115 77.9964 42.656 78.0328C42.6021 78.0692 42.5752 78.1056 42.5752 78.1436C42.5704 78.2212 42.7575 78.3194 43.1366 78.4413C43.3633 78.5126 43.5251 78.5711 43.625 78.6155C43.9755 78.7675 44.1309 78.9226 44.0833 79.0778C44.0374 79.233 43.7995 79.3818 43.3665 79.5275C42.8194 79.7111 42.193 79.8346 41.4857 79.9011C40.7799 79.966 40.1376 79.9581 39.5588 79.8805L38.3567 80.2827L37.3956 80.0959L38.5517 79.7095C38.0443 79.575 37.8 79.4135 37.8222 79.2282C37.8413 79.043 38.1283 78.8577 38.6802 78.6709L39.673 78.8641C39.3209 78.9923 39.1607 79.1095 39.1893 79.2155C39.2178 79.32 39.4367 79.4119 39.849 79.4926C40.2265 79.5655 40.6245 79.5908 41.0495 79.5655C41.4745 79.5417 41.8536 79.4736 42.1882 79.3612C42.3071 79.3216 42.4039 79.282 42.4768 79.2441C42.5498 79.2061 42.5974 79.1681 42.6212 79.1348C42.6941 79.0224 42.5212 78.8957 42.1057 78.7564C42.036 78.7326 41.9868 78.7168 41.9535 78.7041C41.446 78.5268 41.1796 78.3621 41.1542 78.207C41.1288 78.0518 41.3461 77.8967 41.8028 77.7447C42.3008 77.5784 42.8638 77.4676 43.4918 77.4137C44.1198 77.3599 44.732 77.3694 45.3283 77.4422L46.3195 77.1113L47.2837 77.295Z" fill="#FFC910"/>
<path d="M33.6815 78.5337C33.6545 77.8101 33.6164 76.8443 33.5895 76.1207C33.6069 76.6179 33.6608 77.9621 33.6815 78.4767C33.6799 78.4957 33.6799 78.5147 33.6815 78.5337Z" fill="#FFC910"/>
<path d="M53.6483 75.1058C53.6816 75.9957 53.7165 76.8855 53.7498 77.7769C53.7752 78.4577 52.8824 79.1749 51.0348 79.794C47.0415 81.1288 40.1064 81.4945 35.5438 80.6094C33.0936 80.1344 31.8265 79.395 31.7963 78.605L31.6948 75.9339C31.725 76.7224 32.9921 77.4618 35.4423 77.9384C40.0049 78.8234 46.94 78.4593 50.9333 77.123C52.7809 76.5039 53.6737 75.7867 53.6483 75.1058Z" fill="#FFAB01"/>
<path d="M49.8993 73.1016C54.4619 73.9866 54.9234 75.7869 50.9301 77.1232C46.9368 78.4579 40.0017 78.8236 35.4391 77.9386C30.8781 77.0535 30.4166 75.2533 34.4083 73.9185C38.4031 72.5806 45.3366 72.2165 49.8993 73.1016ZM36.6808 77.5222C40.46 78.2552 46.2041 77.9528 49.5123 76.8477C52.8205 75.7409 52.4383 74.251 48.6591 73.5164C44.8815 72.7833 39.1374 73.0857 35.8292 74.1925C32.521 75.2976 32.9032 76.7891 36.6808 77.5222Z" fill="#FFC910"/>
<path d="M48.66 73.5161C52.4391 74.2491 52.8214 75.7406 49.5132 76.8474C46.205 77.9541 40.4609 78.2565 36.6817 77.5218C32.9041 76.7888 32.5219 75.2973 35.8285 74.1906C39.1383 73.0854 44.8824 72.783 48.66 73.5161Z" fill="#FFAB01"/>
<path d="M35.8303 74.5233C39.1384 73.4182 44.8826 73.1158 48.6601 73.8489C50.541 74.213 51.5798 74.7656 51.7415 75.3657C51.9303 74.6421 50.8852 73.947 48.6601 73.5164C44.8826 72.7833 39.1384 73.0857 35.8303 74.1924C34.1683 74.7482 33.4387 75.4005 33.6021 76.0053C33.7337 75.4987 34.4696 74.9793 35.8303 74.5233Z" fill="#F99B0F"/>
<path d="M32.7444 77.0959V79.7132C33.3708 80.0599 34.3065 80.3671 35.5435 80.6077C36.7662 80.8452 38.1618 80.9925 39.624 81.0542V78.3879C38.1253 78.3278 36.6948 78.1805 35.442 77.9367C34.2684 77.7087 33.3692 77.4205 32.7444 77.0959Z" fill="#F99B0F"/>
<path d="M47.1103 74.349L46.1096 74.6831C46.5093 74.7939 46.698 74.9269 46.6726 75.0821C46.6504 75.2372 46.4173 75.3987 45.9733 75.5634L44.9424 75.3639C45.1914 75.2705 45.2992 75.1771 45.2675 75.0884C45.2358 74.9982 45.0677 74.9237 44.7648 74.8652C44.4397 74.8018 44.0908 74.7812 43.7197 74.8018C43.3502 74.8224 43.0187 74.881 42.7269 74.9792C42.6207 75.0156 42.5414 75.0504 42.4859 75.0868C42.432 75.1232 42.4066 75.1597 42.4066 75.1977C42.4018 75.2752 42.5874 75.3734 42.9664 75.4953C43.1932 75.5666 43.3549 75.6252 43.4549 75.6695C43.8069 75.8231 43.9608 75.9766 43.9148 76.1318C43.8688 76.287 43.6309 76.4374 43.1979 76.5815C42.6508 76.7651 42.0228 76.8886 41.3171 76.9536C40.6129 77.0185 39.9691 77.0106 39.3902 76.933L38.1881 77.3351L37.2271 77.1483L38.3832 76.762C37.8757 76.6274 37.6315 76.4675 37.6521 76.2806C37.6727 76.0954 37.9581 75.9101 38.51 75.7233L39.5028 75.9165C39.1507 76.0447 38.9906 76.1619 39.0191 76.2664C39.0477 76.3709 39.2665 76.4643 39.6788 76.5435C40.0547 76.6163 40.4543 76.6416 40.8794 76.6163C41.3028 76.5926 41.6818 76.5261 42.018 76.4136C42.137 76.3741 42.2337 76.3345 42.3067 76.2965C42.3812 76.2569 42.4272 76.2205 42.451 76.1872C42.5239 76.0748 42.3527 75.9482 41.9356 75.8088C41.8674 75.7867 41.8166 75.7692 41.7833 75.7582C41.2743 75.5808 41.0094 75.4162 40.9856 75.261C40.9602 75.1058 41.1759 74.9507 41.6342 74.7987C42.1322 74.6324 42.6952 74.5216 43.3232 74.4678C43.9497 74.4139 44.5634 74.4234 45.1597 74.4963L46.1509 74.1638L47.1103 74.349Z" fill="#F99B0F"/>
<path d="M47.1103 73.9738L46.1096 74.3079C46.5093 74.4187 46.698 74.5517 46.6726 74.7069C46.6504 74.8621 46.4173 75.0236 45.9733 75.1882L44.9424 74.9887C45.1914 74.8937 45.2992 74.8019 45.2675 74.7132C45.2358 74.623 45.0677 74.5486 44.7648 74.49C44.4397 74.4267 44.0908 74.4061 43.7197 74.4267C43.3502 74.4472 43.0187 74.5058 42.7269 74.604C42.6207 74.6404 42.5414 74.6752 42.4859 74.7117C42.432 74.7481 42.4066 74.7845 42.4066 74.8225C42.4018 74.9001 42.5874 74.9982 42.9664 75.1201C43.1932 75.1914 43.3549 75.25 43.4549 75.2943C43.8069 75.4463 43.9608 75.6015 43.9148 75.7566C43.8688 75.9118 43.6309 76.0622 43.1979 76.2063C42.6508 76.3884 42.0228 76.5135 41.3171 76.5784C40.6129 76.6433 39.9691 76.6354 39.3902 76.5578L38.1881 76.96L37.2271 76.7731L38.3832 76.3868C37.8757 76.2522 37.6315 76.0907 37.6521 75.9055C37.6727 75.7202 37.9581 75.535 38.51 75.3481L39.5028 75.5413C39.1507 75.6696 38.9906 75.7867 39.0191 75.8928C39.0477 75.9973 39.2665 76.0907 39.6788 76.1699C40.0547 76.2427 40.4543 76.2681 40.8794 76.2443C41.3028 76.2206 41.6818 76.1525 42.018 76.0401C42.137 76.0005 42.2337 75.9609 42.3067 75.9229C42.3812 75.8849 42.4272 75.8485 42.451 75.8136C42.5239 75.6996 42.3527 75.5746 41.9356 75.4352C41.8674 75.4131 41.8166 75.3956 41.7833 75.3846C41.2743 75.2072 41.0094 75.0426 40.9856 74.8874C40.9602 74.7322 41.1759 74.5771 41.6342 74.4251C42.1322 74.2588 42.6952 74.148 43.3232 74.0942C43.9497 74.0403 44.5634 74.0498 45.1597 74.1227L46.1509 73.7917L47.1103 73.9738Z" fill="#FFC910"/>
<path d="M34.9316 75.1931C34.903 74.4695 34.8681 73.5037 34.8396 72.7802C34.8586 73.2773 34.911 74.6215 34.9316 75.1377C34.93 75.1551 34.93 75.1741 34.9316 75.1931Z" fill="#FFC910"/>
<path d="M54.8982 71.7649C54.9331 72.6563 54.9664 73.5461 54.9997 74.4359C55.0251 75.1168 54.1322 75.834 52.2831 76.4531C48.2898 77.7878 41.3547 78.1536 36.7937 77.2669C34.3435 76.7919 33.0763 76.0525 33.0462 75.2624L32.9463 72.5914C32.9764 73.3799 34.2436 74.1193 36.6938 74.5959C41.2548 75.4809 48.1915 75.1168 52.1832 73.7805C54.0307 73.163 54.9252 72.4457 54.8982 71.7649Z" fill="#FFAB01"/>
<path d="M51.1503 69.7606C55.7129 70.6457 56.1744 72.4459 52.1811 73.7807C48.1879 75.117 41.2528 75.4811 36.6917 74.5961C32.1291 73.711 31.6676 71.9108 35.6609 70.5745C39.6542 69.2397 46.5877 68.8756 51.1503 69.7606ZM37.9335 74.1813C41.7127 74.9143 47.4568 74.6119 50.7649 73.5068C54.0715 72.4 53.6909 70.9101 49.9117 70.1755C46.1341 69.4424 40.39 69.7448 37.0819 70.8515C33.7737 71.9567 34.1543 73.4482 37.9335 74.1813Z" fill="#FFC910"/>
<path d="M49.9114 70.1754C53.6906 70.9085 54.0728 72.4 50.7646 73.5067C47.4565 74.6135 41.7124 74.9159 37.9332 74.1812C34.1556 73.4481 33.7734 71.9567 37.08 70.8499C40.3897 69.7448 46.1338 69.4424 49.9114 70.1754Z" fill="#FFAB01"/>
<path d="M37.082 71.1827C40.3902 70.076 46.1343 69.7751 49.9119 70.5082C51.7927 70.874 52.8299 71.4265 52.9932 72.025C53.182 71.3015 52.1369 70.6064 49.9119 70.1757C46.1343 69.4426 40.3902 69.7451 37.082 70.8518C35.4215 71.4075 34.6905 72.0599 34.8554 72.6647C34.9854 72.1596 35.7213 71.6387 37.082 71.1827Z" fill="#F99B0F"/>
<path d="M33.9945 73.7553V76.3725C34.6225 76.7193 35.5566 77.028 36.7936 77.2671C38.0179 77.5046 39.4119 77.6518 40.8741 77.7152V75.0489C39.3754 74.9887 37.945 74.8399 36.6921 74.5976C35.5201 74.3696 34.6193 74.0815 33.9945 73.7553Z" fill="#F99B0F"/>
<path d="M48.3607 71.0082L47.3584 71.3438C47.7581 71.4547 47.9468 71.5877 47.923 71.7428C47.9008 71.898 47.6677 72.0579 47.2236 72.2242L46.1928 72.0247C46.4402 71.9297 46.5496 71.8378 46.5163 71.7492C46.4862 71.6589 46.3181 71.5845 46.0136 71.5259C45.6869 71.4626 45.3396 71.442 44.9685 71.4626C44.599 71.4832 44.2675 71.5418 43.9757 71.6399C43.8695 71.6763 43.7902 71.7112 43.7347 71.7476C43.6807 71.784 43.6538 71.8204 43.6538 71.8584C43.649 71.936 43.8361 72.0358 44.2136 72.1561C44.4404 72.2289 44.6021 72.2859 44.7036 72.3303C45.0541 72.4838 45.2095 72.6374 45.162 72.7926C45.116 72.9477 44.8781 73.0966 44.4451 73.2422C43.898 73.4259 43.27 73.5494 42.5643 73.6143C41.8601 73.6792 41.2163 73.6713 40.639 73.5937L39.4369 73.9959L38.4758 73.8091L39.6319 73.4227C39.1245 73.2882 38.8802 73.1267 38.9024 72.9414C38.9215 72.7562 39.2085 72.5693 39.7604 72.3841L40.7532 72.5772C40.4027 72.7055 40.2409 72.8227 40.2695 72.9272C40.298 73.0317 40.5169 73.1251 40.9292 73.2042C41.3051 73.2771 41.7047 73.3024 42.1297 73.2771C42.5532 73.2533 42.9322 73.1852 43.2684 73.0728C43.3873 73.0332 43.4841 72.9937 43.557 72.9557C43.63 72.9161 43.6776 72.8797 43.7013 72.8464C43.7743 72.734 43.6014 72.6073 43.1859 72.468C43.1177 72.4458 43.067 72.4284 43.0337 72.4173C42.5246 72.24 42.2598 72.0753 42.236 71.9202C42.2106 71.765 42.4279 71.6098 42.8846 71.4578C43.3826 71.2916 43.9456 71.1808 44.5736 71.1269C45.2016 71.0731 45.8138 71.0826 46.4101 71.1554L47.4012 70.8245L48.3607 71.0082Z" fill="#F99B0F"/>
<path d="M48.3607 70.6328L47.3584 70.9685C47.7581 71.0793 47.9468 71.2123 47.923 71.3675C47.9008 71.5226 47.6677 71.6841 47.2236 71.8488L46.1928 71.6493C46.4402 71.5543 46.5496 71.4625 46.5163 71.3738C46.4862 71.2836 46.3181 71.2092 46.0136 71.1506C45.6869 71.0872 45.3396 71.0667 44.9685 71.0872C44.599 71.1094 44.2675 71.1664 43.9757 71.2646C43.8695 71.301 43.7902 71.3358 43.7347 71.3722C43.6807 71.4086 43.6538 71.4451 43.6538 71.4831C43.649 71.5606 43.8361 71.6588 44.2136 71.7807C44.4404 71.8536 44.6021 71.9106 44.7036 71.9549C45.0541 72.1085 45.2095 72.2621 45.162 72.4172C45.116 72.5724 44.8781 72.7228 44.4451 72.8669C43.898 73.0505 43.27 73.174 42.5643 73.2405C41.8601 73.3055 41.2163 73.2975 40.639 73.22L39.4369 73.6221L38.4758 73.4353L39.6319 73.049C39.1245 72.9144 38.8802 72.7529 38.9024 72.5676C38.9215 72.3824 39.2085 72.1956 39.7604 72.0103L40.7532 72.2035C40.4027 72.3317 40.2409 72.4489 40.2695 72.5534C40.298 72.6579 40.5169 72.7513 40.9292 72.8305C41.3051 72.9033 41.7047 72.9286 42.1297 72.9049C42.5532 72.8811 42.9322 72.813 43.2684 72.7006C43.3873 72.6611 43.4841 72.6215 43.557 72.5835C43.63 72.5439 43.6776 72.5075 43.7013 72.4742C43.7743 72.3618 43.6014 72.2351 43.1859 72.0958C43.1177 72.0736 43.067 72.0562 43.0337 72.0451C42.5246 71.8678 42.2598 71.7031 42.236 71.548C42.2106 71.3928 42.4279 71.2377 42.8846 71.0857C43.3826 70.9194 43.9456 70.8086 44.5736 70.7547C45.2016 70.7009 45.8138 70.7104 46.4101 70.7832L47.4012 70.4507L48.3607 70.6328Z" fill="#FFC910"/>
<path d="M32.0987 71.8732C32.0717 71.1496 32.0337 70.1854 32.0067 69.4602C32.0257 69.9574 32.0781 71.3016 32.0987 71.8162C32.0987 71.8368 32.0987 71.8542 32.0987 71.8732Z" fill="#FFC910"/>
<path d="M52.0681 68.445C52.1015 69.3364 52.1363 70.2262 52.1696 71.1161C52.195 71.7969 51.3022 72.5141 49.453 73.1332C45.4597 74.4679 38.5246 74.8337 33.9636 73.9486C31.5134 73.4736 30.2463 72.7342 30.2177 71.9441L30.1162 69.2731C30.1463 70.0616 31.4135 70.801 33.8621 71.2775C38.4247 72.1626 45.3598 71.7985 49.3515 70.4621C51.2007 69.8431 52.0935 69.1258 52.0681 68.445Z" fill="#FFAB01"/>
<path d="M48.3207 66.4407C52.8833 67.3258 53.3448 69.126 49.3515 70.4623C45.3582 71.797 38.4231 72.1628 33.8621 71.2777C29.2995 70.3926 28.8396 68.5924 32.8329 67.2561C36.8245 65.9214 43.7581 65.5556 48.3207 66.4407ZM35.1023 70.8613C38.8815 71.5944 44.6256 71.292 47.9321 70.1868C51.2403 69.0801 50.8581 67.5902 47.0789 66.8555C43.3013 66.1225 37.5572 66.4249 34.2491 67.5316C30.9425 68.6368 31.3247 70.1282 35.1023 70.8613Z" fill="#FFC910"/>
<path d="M47.0784 66.8555C50.8576 67.5885 51.2398 69.08 47.9316 70.1868C44.6251 71.2919 38.8794 71.5959 35.1018 70.8612C31.3242 70.1282 30.942 68.6367 34.2486 67.5315C37.5567 66.4248 43.3008 66.1224 47.0784 66.8555Z" fill="#FFAB01"/>
<path d="M34.2475 67.8639C37.5557 66.7571 43.2998 66.4563 47.0774 67.1894C48.9583 67.5535 49.9954 68.1077 50.1588 68.7062C50.3475 67.9826 49.3024 67.2875 47.0774 66.8569C43.2998 66.1238 37.5557 66.4262 34.2475 67.5329C32.5855 68.0887 31.856 68.741 32.0193 69.3458C32.1525 68.8392 32.8868 68.3183 34.2475 67.8639Z" fill="#F99B0F"/>
<path d="M31.1617 70.4368V73.054C31.7882 73.4008 32.7238 73.708 33.9608 73.9486C35.1836 74.1861 36.5792 74.3334 38.0413 74.3967V71.7304C36.5427 71.6702 35.1122 71.5214 33.8593 71.2792C32.6874 71.0496 31.7866 70.7614 31.1617 70.4368Z" fill="#F99B0F"/>
<path d="M45.529 67.6882L44.5283 68.0238C44.928 68.1347 45.1167 68.2677 45.0913 68.4228C45.0691 68.578 44.8344 68.7395 44.3919 68.9042L43.3611 68.7047C43.6085 68.6097 43.7164 68.5178 43.6862 68.4292C43.6545 68.3389 43.4864 68.2645 43.1835 68.2059C42.8584 68.1426 42.5095 68.122 42.1384 68.1426C41.7689 68.1632 41.4374 68.2218 41.1456 68.3199C41.0394 68.3563 40.9601 68.3928 40.9046 68.4276C40.8507 68.464 40.8253 68.5004 40.8253 68.5384C40.8205 68.616 41.0077 68.7142 41.3867 68.8361C41.6135 68.9089 41.7752 68.9659 41.8751 69.0102C42.2256 69.1638 42.3795 69.3174 42.3335 69.4726C42.2875 69.6277 42.0496 69.7766 41.6166 69.9222C41.0695 70.1059 40.4431 70.2294 39.7358 70.2943C39.0316 70.3592 38.3878 70.3513 37.8089 70.2737L36.6068 70.6759L35.6458 70.4891L36.8019 70.1027C36.2944 69.9681 36.0502 69.8066 36.0724 69.6214C36.093 69.4362 36.3784 69.2493 36.9303 69.0641L37.9231 69.2557C37.5726 69.3855 37.4109 69.5011 37.4394 69.6071C37.4664 69.7116 37.6852 69.8051 38.0975 69.8842C38.4734 69.9571 38.873 69.9824 39.2981 69.9571C39.7215 69.9333 40.1005 69.8652 40.4367 69.7528C40.5557 69.7132 40.6524 69.6736 40.7254 69.6356C40.7999 69.5976 40.8459 69.5597 40.8697 69.5264C40.9426 69.414 40.7714 69.2873 40.3543 69.148C40.2861 69.1258 40.2353 69.1084 40.202 69.0957C39.6945 68.92 39.4281 68.7537 39.4043 68.5986C39.3789 68.4434 39.5962 68.2883 40.0529 68.1363C40.5509 67.97 41.1139 67.8592 41.7419 67.8053C42.3699 67.7515 42.9821 67.761 43.5784 67.8338L44.5696 67.5029L45.529 67.6882Z" fill="#F99B0F"/>
<path d="M45.529 67.3128L44.5283 67.6484C44.928 67.7592 45.1167 67.8922 45.0913 68.0474C45.0691 68.2026 44.8344 68.3641 44.3919 68.5287L43.3611 68.3292C43.6085 68.2342 43.7164 68.1424 43.6862 68.0537C43.6545 67.9635 43.4864 67.8891 43.1835 67.8305C42.8584 67.7672 42.5095 67.7466 42.1384 67.7672C41.7689 67.7877 41.4374 67.8463 41.1456 67.9445C41.0394 67.9809 40.9601 68.0157 40.9046 68.0522C40.8507 68.0886 40.8253 68.125 40.8253 68.163C40.8205 68.2406 41.0077 68.3387 41.3867 68.4607C41.6135 68.5319 41.7752 68.5905 41.8751 68.6348C42.2256 68.7884 42.3795 68.942 42.3335 69.0971C42.2875 69.2523 42.0496 69.4011 41.6166 69.5468C41.0695 69.7305 40.4431 69.854 39.7358 69.9189C39.0316 69.9838 38.3878 69.9775 37.8089 69.8983L36.6068 70.3005L35.6458 70.1136L36.8019 69.7273C36.2944 69.5927 36.0502 69.4312 36.0724 69.246C36.093 69.0607 36.3784 68.8739 36.9303 68.6887L37.9231 68.8818C37.5726 69.0101 37.4109 69.1272 37.4394 69.2317C37.4664 69.3362 37.6852 69.4296 38.0975 69.5088C38.4734 69.5816 38.873 69.607 39.2981 69.5816C39.7215 69.5579 40.1005 69.4914 40.4367 69.379C40.5557 69.3394 40.6524 69.2998 40.7254 69.2618C40.7999 69.2222 40.8459 69.1858 40.8697 69.1526C40.9426 69.0386 40.7714 68.9135 40.3543 68.7742C40.2861 68.752 40.2353 68.7346 40.202 68.7219C39.6945 68.5446 39.4281 68.3799 39.4043 68.2247C39.3789 68.0696 39.5962 67.9144 40.0529 67.7624C40.5509 67.5962 41.1139 67.4853 41.7419 67.4315C42.3699 67.3777 42.9821 67.3872 43.5784 67.46L44.5696 67.1291L45.529 67.3128Z" fill="#FFC910"/>
<path d="M33.8542 68.1126C33.8256 67.389 33.7908 66.4232 33.7622 65.7012C33.7812 66.1983 33.8336 67.5426 33.8542 68.0571C33.8542 68.0761 33.8542 68.0936 33.8542 68.1126Z" fill="#FFC910"/>
<path d="M53.8211 64.6849C53.8544 65.5748 53.8893 66.4662 53.9226 67.356C53.9479 68.0368 53.0551 68.754 51.2059 69.3731C47.2127 70.7079 40.2775 71.0736 35.7149 70.1885C33.2663 69.7135 31.9976 68.9741 31.9675 68.1841L31.8676 65.513C31.8977 66.3015 33.1648 67.0409 35.615 67.5175C40.176 68.4026 47.1127 68.0384 51.106 66.7021C52.9536 66.0846 53.848 65.3658 53.8211 64.6849Z" fill="#FFAB01"/>
<path d="M50.075 62.6802C54.636 63.5653 55.0991 65.3655 51.1058 66.7019C47.1125 68.0366 40.1774 68.4023 35.6148 67.5173C31.0522 66.6322 30.5923 64.832 34.5855 63.4956C38.5788 62.1593 45.5123 61.7952 50.075 62.6802ZM36.8565 67.1009C40.6357 67.8339 46.3798 67.5315 49.6864 66.4264C52.9946 65.3196 52.6124 63.8297 48.8332 63.0951C45.0556 62.362 39.3115 62.6644 36.0033 63.7696C32.6967 64.8779 33.0789 66.3678 36.8565 67.1009Z" fill="#FFC910"/>
<path d="M48.8325 63.0951C52.6116 63.8282 52.9938 65.3197 49.6857 66.4264C46.3791 67.5316 40.635 67.834 36.8558 67.1009C33.0782 66.3679 32.696 64.8764 36.0026 63.7696C39.3108 62.6645 45.0549 62.3637 48.8325 63.0951Z" fill="#FFAB01"/>
<path d="M36.003 64.1039C39.3111 62.9971 45.0552 62.6947 48.8328 63.4294C50.7137 63.7935 51.7509 64.3461 51.9142 64.9462C52.103 64.2226 51.0563 63.5275 48.8328 63.0969C45.0552 62.3638 39.3111 62.6662 36.003 63.7714C34.3425 64.3271 33.6114 64.9794 33.7748 65.5843C33.908 65.0792 34.6423 64.5583 36.003 64.1039Z" fill="#F99B0F"/>
<path d="M32.9171 66.6767V69.2939C33.5435 69.6407 34.4792 69.9494 35.7162 70.1885C36.9405 70.426 38.3345 70.5732 39.7967 70.635V67.9687C38.2981 67.9085 36.8676 67.7597 35.6147 67.5174C34.4427 67.2894 33.542 67.0013 32.9171 66.6767Z" fill="#F99B0F"/>
<path d="M47.2833 63.9279L46.2826 64.2635C46.6823 64.3744 46.871 64.5074 46.8456 64.6625C46.8234 64.8177 46.5887 64.9792 46.1462 65.1438L45.1154 64.9444C45.3628 64.8509 45.4722 64.7575 45.4389 64.6689C45.4072 64.5786 45.2407 64.5042 44.9362 64.4456C44.6111 64.3823 44.2622 64.3617 43.8911 64.3823C43.5216 64.4029 43.1901 64.4614 42.8983 64.5596C42.7921 64.596 42.7128 64.6309 42.6573 64.6673C42.6033 64.7037 42.578 64.7401 42.578 64.7781C42.5732 64.8557 42.7603 64.9539 43.1378 65.0758C43.3646 65.1486 43.5263 65.2056 43.6262 65.2499C43.9783 65.4035 44.1321 65.5571 44.0862 65.7123C44.0402 65.8674 43.8023 66.0178 43.3693 66.1619C42.8222 66.3456 42.1958 66.4691 41.4885 66.534C40.7827 66.5989 40.1404 66.5926 39.5616 66.5134L38.3595 66.9156L37.3984 66.7287L38.5546 66.3424C38.0471 66.2078 37.8028 66.0463 37.825 65.8611C37.8441 65.6758 38.1311 65.489 38.683 65.3038L39.6758 65.4969C39.3253 65.6252 39.1635 65.7423 39.1921 65.8468C39.219 65.9513 39.4395 66.0448 39.8518 66.1239C40.2293 66.1968 40.6273 66.2221 41.0523 66.1983C41.4774 66.1746 41.8548 66.1065 42.191 65.9941C42.31 65.9545 42.4067 65.9149 42.4796 65.8769C42.5542 65.8373 42.6002 65.8009 42.624 65.7677C42.6969 65.6553 42.5256 65.5286 42.1085 65.3893C42.0403 65.3671 41.9896 65.3497 41.9563 65.3386C41.4472 65.1628 41.1824 64.9966 41.1586 64.8414C41.1332 64.6863 41.3505 64.5311 41.8072 64.3791C42.3052 64.2129 42.8682 64.102 43.4962 64.0482C44.1242 63.9944 44.7364 64.0039 45.3327 64.0767L46.3238 63.7442L47.2833 63.9279Z" fill="#F99B0F"/>
<path d="M47.2833 63.5529L46.2826 63.8869C46.6823 63.9978 46.871 64.1308 46.8456 64.2859C46.8234 64.4411 46.5887 64.601 46.1462 64.7673L45.1154 64.5678C45.3628 64.4728 45.4722 64.3809 45.4389 64.2923C45.4072 64.202 45.2407 64.1276 44.9362 64.069C44.6111 64.0057 44.2622 63.9851 43.8911 64.0057C43.5216 64.0279 43.1901 64.0864 42.8983 64.183C42.7921 64.2179 42.7128 64.2543 42.6573 64.2907C42.6033 64.3271 42.578 64.3635 42.578 64.4015C42.5732 64.4791 42.7603 64.5773 43.1378 64.6992C43.3646 64.772 43.5263 64.829 43.6262 64.8733C43.9783 65.0269 44.1321 65.1805 44.0862 65.3357C44.0402 65.4908 43.8023 65.6397 43.3693 65.7853C42.8222 65.969 42.1958 66.0925 41.4885 66.1574C40.7827 66.2223 40.1404 66.216 39.5616 66.1368L38.3595 66.539L37.3984 66.3522L38.5546 65.9658C38.0471 65.8312 37.8028 65.6697 37.825 65.4845C37.8441 65.2993 38.1311 65.114 38.683 64.9272L39.6758 65.1203C39.3253 65.2486 39.1635 65.3658 39.1921 65.4703C39.219 65.5748 39.4395 65.6682 39.8518 65.7473C40.2293 65.8202 40.6273 65.8455 41.0523 65.8217C41.4774 65.798 41.8548 65.7299 42.191 65.6175C42.31 65.5779 42.4067 65.5383 42.4796 65.5003C42.5542 65.4623 42.6002 65.4243 42.624 65.3911C42.6969 65.2787 42.5256 65.152 42.1085 65.0127C42.0403 64.9889 41.9896 64.9731 41.9563 64.9604C41.4472 64.7831 41.1824 64.6184 41.1586 64.4633C41.1332 64.3081 41.3505 64.1529 41.8072 63.9994C42.3052 63.8331 42.8682 63.7223 43.4962 63.67C44.1242 63.6162 44.7364 63.6257 45.3327 63.6985L46.3238 63.3676L47.2833 63.5529Z" fill="#FFC910"/>
<path d="M56.6846 75.3126L54.0105 75.5068L53.8614 75.565L56.5355 75.3709L56.6846 75.3126Z" fill="#EE5A28"/>
<path d="M56.5097 75.2722L53.8357 75.4664L53.8616 75.5651L56.5356 75.3709L56.5097 75.2722Z" fill="#FFAB01"/>
<path d="M56.5078 75.2722L53.8338 75.4664L52.9197 75.824L55.5938 75.6282L56.5078 75.2722Z" fill="#FFCA10"/>
<path d="M55.3116 73.2319C54.8286 73.2675 54.1836 73.3144 53.7007 73.35C53.9859 73.3322 54.2549 73.3144 54.6714 73.3112C55.0798 73.3096 55.425 73.3241 55.6422 73.3387C55.767 73.3468 56.1413 73.371 56.6146 73.4325C57.0376 73.4875 57.2904 73.5377 57.5853 73.5943C56.8544 73.3047 56.0862 73.1753 55.3116 73.2319Z" fill="#FFC910"/>
<path d="M53.8412 73.5684C57.238 72.2432 60.9282 74.8094 62.0805 79.301C63.2312 83.7925 61.4112 88.5074 58.0127 89.8325C54.6142 91.1593 50.9256 88.5932 49.7734 84.1016C48.6211 79.6084 50.4427 74.8935 53.8412 73.5684Z" fill="#FFAB01"/>
<path d="M61.6721 79.6537C60.5199 75.1621 56.8313 72.596 53.4328 73.9227C52.9158 74.125 52.4345 74.4065 51.9953 74.7511C52.5398 74.2399 53.1573 73.8354 53.8412 73.5684C57.2381 72.2432 60.9283 74.8094 62.0805 79.301C63.0562 83.1081 61.8958 87.0755 59.4502 89.0041C61.6138 86.9719 62.5927 83.2424 61.6721 79.6537Z" fill="#F99B0F"/>
<path d="M55.312 73.2321C54.4223 73.2968 53.5293 73.3616 52.638 73.4279C52.1469 73.4635 51.6526 73.5735 51.1648 73.7644L53.8405 73.5687C54.3283 73.3794 54.821 73.2693 55.312 73.2321Z" fill="#FFAB01"/>
<path d="M53.4067 71.8841C49.3032 73.4843 47.104 79.1765 48.4945 84.5984C49.885 90.0203 54.3386 93.1172 58.442 91.517C62.5455 89.9168 64.7447 84.2246 63.3526 78.8027C61.9637 73.3808 57.5102 70.2839 53.4067 71.8841ZM58.0109 89.831C54.6125 91.1578 50.9239 88.5916 49.7716 84.1C48.6193 79.6085 50.4409 74.8936 53.841 73.5685C57.2379 72.2433 60.9281 74.8095 62.0804 79.3011C63.231 83.791 61.4094 88.5059 58.0109 89.831Z" fill="#FFC910"/>
<path d="M55.1853 71.4777C54.294 71.5424 53.4026 71.6071 52.5112 71.6718C51.9181 71.7155 51.3217 71.8482 50.7334 72.0779L53.4075 71.8838C53.9958 71.654 54.5921 71.5213 55.1853 71.4777Z" fill="#EE8F01"/>
<path d="M53.9911 92.1173C54.8825 92.0526 55.7738 91.9878 56.6652 91.9231C53.1241 92.1804 49.6867 89.2421 48.4955 84.5984C47.105 79.1765 49.3042 73.4844 53.4077 71.8842L50.7336 72.0783C46.6302 73.6785 44.4309 79.3707 45.8215 84.7926C47.0126 89.4362 50.4516 92.3745 53.9911 92.1173Z" fill="#F99B0F"/>
<path d="M47.0849 87.8974C46.5485 86.9816 46.1174 85.9396 45.8224 84.7925C45.1726 82.2603 45.3071 79.6683 46.0526 77.4613L48.6407 77.5341C47.973 79.6812 47.8742 82.1665 48.4981 84.5983C48.8222 85.8604 49.3133 86.9962 49.9259 87.9767L47.0849 87.8974Z" fill="#FFAB01"/>
<path d="M54.2946 75.4673L54.6716 76.8171C55.1378 76.8338 55.5587 77.028 55.9404 77.3942C56.32 77.7599 56.6162 78.2633 56.8262 78.9025L55.8422 79.0521C55.7198 78.6911 55.5382 78.4186 55.2978 78.2324C55.0573 78.0461 54.7927 77.9766 54.5021 78.021C54.192 78.0674 53.9764 78.2255 53.8564 78.4909C53.7356 78.755 53.7312 79.0845 53.841 79.4788C53.8816 79.6236 53.9341 79.7502 54.0004 79.8651C54.0659 79.9786 54.1459 80.0782 54.2411 80.1652C54.433 80.3421 54.7716 80.4586 55.2517 80.5122C55.5395 80.544 55.7623 80.5798 55.9194 80.6217C56.4685 80.7625 56.9282 81.0239 57.2977 81.4047C57.6679 81.7832 57.9353 82.2659 58.0976 82.8485C58.3042 83.5887 58.3247 84.2401 58.1608 84.8055C57.9954 85.3681 57.6801 85.7295 57.2105 85.8886L57.6646 87.5115L56.7483 87.6519L56.3124 86.0932C55.7349 86.0847 55.2181 85.8637 54.7603 85.4274C54.302 84.9933 53.9664 84.4023 53.7528 83.6531L54.7023 83.5085C54.8619 84.0086 55.0829 84.3686 55.3596 84.5919C55.6377 84.8143 55.972 84.8941 56.364 84.8341C56.7237 84.7796 56.9721 84.6006 57.1095 84.2972C57.249 83.9943 57.2534 83.6162 57.1271 83.1641C57.0813 83.0037 57.0277 82.8591 56.9647 82.7273C56.9009 82.5941 56.832 82.4844 56.7555 82.3941C56.5046 82.0924 56.1075 81.9069 55.5633 81.8362C55.4754 81.8234 55.4081 81.8138 55.3626 81.8064C54.6823 81.7041 54.1393 81.4832 53.738 81.1413C53.3346 80.8025 53.0471 80.3239 52.8748 79.7079C52.6868 79.0354 52.6703 78.4527 52.8262 77.961C52.9829 77.4707 53.2923 77.1314 53.7532 76.9475L53.379 75.6091L54.2946 75.4673Z" fill="#F99B0F"/>
<path d="M55.2742 75.6103L55.6512 76.9602C56.1169 76.979 56.5383 77.171 56.9209 77.5387C57.3004 77.9043 57.5967 78.4077 57.8058 79.0455L56.8226 79.1965C56.7003 78.8356 56.5186 78.5631 56.2774 78.3754C56.037 78.1891 55.7723 78.1196 55.4817 78.1641C55.1725 78.2118 54.956 78.3685 54.8361 78.634C54.7153 78.898 54.7109 79.2275 54.8221 79.6211C54.8626 79.7658 54.9145 79.8946 54.9815 80.0073C55.047 80.1208 55.1269 80.2204 55.2221 80.3074C55.4149 80.4857 55.7527 80.6008 56.2335 80.6558C56.5206 80.6862 56.7442 80.7234 56.9013 80.7654C57.4511 80.9075 57.9087 81.1683 58.2788 81.5469C58.6489 81.9255 58.9164 82.4081 59.0787 82.9907C59.286 83.7323 59.3066 84.3837 59.1419 84.9477C58.9764 85.5104 58.6611 85.8718 58.1901 86.0316L58.6407 87.6547L57.7243 87.7952L57.2885 86.2364C56.711 86.2279 56.1955 86.0061 55.7378 85.5698C55.2794 85.1357 54.9438 84.5447 54.7302 83.7956L55.6789 83.6495C55.8385 84.1496 56.0589 84.5119 56.3362 84.7329C56.6158 84.9545 56.9508 85.0357 57.3406 84.9751C57.7003 84.9206 57.9488 84.7417 58.0861 84.4382C58.2234 84.1347 58.23 83.7572 58.1029 83.3038C58.0585 83.1426 58.0035 82.9987 57.9405 82.8669C57.8767 82.7337 57.8078 82.6241 57.7327 82.5329C57.4818 82.2312 57.0847 82.0457 56.5405 81.9751C56.4526 81.9623 56.3853 81.9526 56.3398 81.9452C55.6595 81.8429 55.1165 81.622 54.7138 81.281C54.3104 80.9422 54.0237 80.465 53.852 79.8467C53.664 79.1743 53.6476 78.5915 53.8035 78.0998C53.9602 77.6095 54.2695 77.2703 54.7304 77.0864L54.3563 75.748L55.2742 75.6103Z" fill="#FFC910"/>
<path d="M33.1402 51.4026C33.1402 51.4026 33.0625 52.1831 29.3274 52.1786C25.5877 52.1786 20.161 51.2429 20.161 51.2429L28.8428 50.4304C28.8428 50.4304 32.1619 50.2798 33.1402 51.4026Z" fill="#E2C59C"/>
<path d="M23.633 51.6855C21.5254 51.681 20.6111 52.7308 19.779 53.0548C18.9424 53.3789 18.1012 53.8764 18.1057 53.8673C18.5766 52.9681 19.2578 52.9453 19.6007 52.6532C19.9436 52.3611 19.8522 52.5071 19.1024 52.4523C18.6772 52.4204 17.9183 53.1689 17.3788 53.5843C16.9125 53.9449 16.6154 53.9723 16.6154 53.9723C16.6154 53.9723 17.164 53.2146 17.8634 52.6075C18.7092 51.8727 19.747 51.2565 19.9939 51.1606C20.4419 50.9872 21.8546 50.9415 22.8604 51.0785C23.9942 51.2291 25.1508 51.6901 23.633 51.6855Z" fill="#E2C59C"/>
<path d="M20.1078 51.197C20.1078 51.197 18.4894 51.6032 18.206 51.8132C18.0094 51.9593 17.1819 52.8219 17.1819 52.8219C17.1819 52.8219 17.7854 52.7261 18.1374 52.402C18.4894 52.0779 20.1078 51.197 20.1078 51.197Z" fill="#E2C59C"/>
<path d="M30.0734 49.8327C30.0734 49.8327 34.156 50.0883 33.8771 52.5074C33.7171 53.8812 32.7844 54.3559 31.5501 54.2555C29.2551 54.0684 26.6583 53.7352 26.6583 53.7352L25.4971 49.9788L30.0734 49.8327Z" fill="#0063CB"/>
<path d="M30.93 50.1702L34.9303 37.7279C34.9303 37.7279 35.5201 35.9021 36.4939 36.249C37.8974 36.742 37.1979 38.2345 37.079 39.12C36.8276 40.9229 36.9967 41.708 35.7029 46.0532C34.9029 48.7324 34.2171 51.8225 33.5176 53.5843C33.0422 54.7984 32.2238 53.0594 30.9895 52.571C28.6899 51.6582 30.93 50.1702 30.93 50.1702Z" fill="#0063CB"/>
<path d="M31.7427 31.8171C32.6936 34.4598 35.6516 35.8154 38.3535 34.8478C41.0554 33.8801 42.4772 30.9544 41.5263 28.3163C40.5799 25.6735 37.622 24.3179 34.9155 25.2855C32.2182 26.2532 30.7964 29.1743 31.7427 31.8171Z" fill="#001F46"/>
<path d="M27.2212 30.9681C28.451 32.7391 30.8832 33.1818 32.657 31.954L32.401 29.8772C34.1749 28.6494 34.6183 26.2212 33.3885 24.4503L32.5565 23.2499C31.3267 21.4789 28.8945 21.0362 27.1207 22.264L26.316 22.8208C24.5422 24.0486 24.0987 26.4768 25.3285 28.2478L27.2212 30.9681Z" fill="#001F46"/>
<path d="M25.2364 25.3676C25.4467 25.6597 25.6799 25.9427 25.9405 26.2165C27.6914 28.0514 30.0322 28.7497 31.5363 27.9966C32.2266 28.9003 32.9947 29.6078 33.717 30.1646C34.5354 30.7991 36.6384 31.0592 36.6384 31.0592C37.8682 32.3373 33.2736 39.8592 32.9581 39.8319C32.2906 39.7725 31.4311 35.619 32.0575 34.1082C32.3363 33.4327 32.8072 32.6157 32.6747 32.2505C32.1992 30.9771 31.6872 30.8721 30.846 30.5435C29.4561 30.1738 28.3543 30.9543 28.3543 30.9543C28.2446 31.0273 28.1212 31.0501 28.0023 31.0227C27.7875 30.8539 27.6 30.653 27.4354 30.4202L25.6022 27.7775C25.0855 27.0427 24.985 26.1526 25.2364 25.3676Z" fill="#F79884"/>
<path d="M29.3887 28.8071C29.2017 29.2579 28.5122 29.9511 27.9026 29.789C27.7811 29.7569 27.6856 29.9239 27.8057 29.9565C28.5512 30.1548 29.3571 29.386 29.5937 28.8168C29.6396 28.7048 29.4354 28.6973 29.3887 28.8071Z" fill="#E67D65"/>
<path d="M26.661 28.0668C26.6091 27.9625 26.4302 28.0707 26.4824 28.1769C26.5652 28.3421 26.6444 28.5084 26.7193 28.6792C26.7805 28.8189 26.8205 29.0137 26.9416 29.1005C27.1213 29.2284 27.4318 29.0096 27.6303 28.9128C27.7491 28.8556 27.6851 28.6793 27.5673 28.7372C27.4686 28.7859 27.316 28.8935 27.2128 28.9082C27.0056 28.9389 26.9775 28.7521 26.9162 28.6124C26.8356 28.4268 26.7496 28.2449 26.661 28.0668Z" fill="#E67D65"/>
<path d="M39.2427 57.0352C39.2427 57.0352 37.7523 58.7605 37.2997 58.9568C36.6916 59.2169 34.8309 58.6738 34.8309 58.6738C34.8309 58.6738 34.3372 50.7501 33.7657 47.6601C33.1942 44.5655 32.3485 43.7576 32.3119 42.7854C32.257 41.229 30.9084 40.5991 31.1324 39.3804C31.3518 38.1618 31.7587 33.8302 31.8959 34.4099C33.0617 39.3257 34.4972 35.2452 34.8035 34.597C34.9727 34.2273 39.2427 57.0352 39.2427 57.0352Z" fill="white"/>
<path d="M32.4698 32.9306C32.4698 32.9306 30.6639 34.8476 30.7874 35.5916C30.9108 36.3356 30.0102 38.7045 30.9017 41.9771C31.9212 45.7153 32.4424 48.2439 32.6344 50.6858C32.8264 53.1277 31.9669 55.3733 32.3052 58.363C32.5658 60.709 33.1281 60.8505 33.1281 60.8505C33.1281 60.8505 34.2116 61.1061 34.9797 60.1978C35.7477 59.2895 34.5957 51.2929 34.2116 49.2937C33.8276 47.2945 32.6024 42.6207 32.2869 41.2514C31.8892 39.5534 31.9532 37.8373 31.9806 37.3306C32.0766 35.5871 32.3144 34.4962 32.4881 33.8344C32.5247 33.7248 32.6252 32.7024 32.4698 32.9306Z" fill="#387BFF"/>
<path d="M35.8221 36.6329C36.8142 39.3897 39.9047 40.8047 42.7254 39.7959C45.5462 38.7872 47.0274 35.7291 46.0399 32.9723C45.0479 30.2155 41.9619 28.796 39.1366 29.8047C36.3158 30.8179 34.8346 33.876 35.8221 36.6329Z" fill="#001F46"/>
<path d="M25.9338 82.5405L26.9487 90.309L22.5599 92.3219L20.1277 92.8331L24.448 89.6107L23.0353 82.6044L25.9338 82.5405Z" fill="#F79884"/>
<path d="M27.2417 91.4819L26.2907 91.7283L25.6507 91.1532L22.1487 92.8511L19.0399 93.5586C19.0399 93.5586 19.0034 93.3167 19.1039 93.1843C19.4971 92.6914 21.6733 91.596 21.6733 91.596C21.6733 91.596 21.7098 92.3171 22.0161 92.3354C22.327 92.3536 25.0106 90.9935 25.6324 90.6192C26.7022 89.9665 26.8988 89.5603 26.9811 89.6105C27.1959 89.752 27.2417 91.4819 27.2417 91.4819Z" fill="#161711"/>
<path d="M15.3469 71.7361L11.8632 78.3544L7.04458 78.1216L4.64441 77.4552L9.9705 76.588L12.8736 70.9282L15.3469 71.7361Z" fill="#F79884"/>
<path d="M11.58 79.5282L10.6199 79.3091L10.3182 78.5058L5.9979 78.4419L3.41943 77.8576C3.41943 77.8576 3.73488 77.5199 3.9269 77.4423C4.50294 77.2095 6.54194 77.0908 6.54194 77.0908C6.54194 77.0908 6.32707 77.6522 6.59223 77.8165C6.85739 77.9763 9.82903 78.0721 10.5514 78.0219C11.7995 77.9352 12.1652 77.6705 12.2155 77.7526C12.3389 77.9717 11.58 79.5282 11.58 79.5282Z" fill="#161711"/>
<path d="M40.8033 51.9369L38.2066 53.0643L38.2157 56.5103L20.3493 53.7033C20.3493 53.7033 18.644 53.1784 17.5605 55.8668C16.0153 59.6917 12.0881 71.5771 12.0881 71.5771L14.5752 74.1742L22.3746 60.7414C22.3746 60.7414 38.3574 68.2269 43.6286 66.6111C45.6494 65.9904 47.1946 62.4257 46.9066 58.8199C46.678 55.9991 46.1157 53.402 46.1157 53.402L40.8033 51.9369Z" fill="#1F2144"/>
<path d="M38.5521 66.5189L25.7603 65.6015L26.8575 85.3056L23.0858 85.4243L20.3016 62.3471C20.3016 62.3471 21.0514 58.9148 23.4973 59.4306C25.9386 59.9509 31.8499 64.4695 38.5521 66.5189Z" fill="#030820"/>
<path d="M47.1592 71.4536C47.1592 71.4536 40.4478 64.2009 38.706 60.093C36.6258 55.1909 36.8041 49.0291 36.4201 46.9934C35.716 43.2461 34.8611 35.9615 34.6965 35.0623C34.532 34.1586 34.7122 32.9734 34.7122 32.9734C34.7122 32.9734 34.6691 30.425 35.9355 30.7171C37.7413 31.1325 39.5472 32.1047 40.1689 32.3831C41.3484 32.9034 43.7715 46.6055 43.9086 47.2719C44.4024 49.6636 46.2265 51.8179 47.5203 54.059C50.5697 59.3308 51.3469 65.5565 51.3469 65.5565C51.3469 65.5565 50.9766 70.1436 47.1592 71.4536Z" fill="#387BFF"/>
<path d="M40.2283 52.4756C40.2283 52.4756 40.1734 53.3657 35.8942 53.1511C31.6151 52.9412 25.3746 51.5582 25.3746 51.5582L35.2771 51.12C35.2771 51.1155 39.0716 51.1291 40.2283 52.4756Z" fill="#F79884"/>
<path d="M28.7296 52.0424C26.6906 52.0059 25.8128 53.0192 25.0036 53.3204C24.1944 53.6262 23.3852 54.0963 23.3898 54.0872C23.8469 53.2154 24.5053 53.2063 24.8344 52.9233C25.1636 52.6449 25.0767 52.7864 24.3544 52.7179C23.9429 52.6814 23.216 53.398 22.6903 53.7951C22.2377 54.1374 21.9542 54.1602 21.9542 54.1602C21.9542 54.1602 22.4845 53.4299 23.1612 52.8457C23.9749 52.1428 24.9807 51.554 25.2185 51.4627C25.6528 51.2984 27.0152 51.2756 27.9844 51.4262C29.0816 51.5997 30.1971 52.0698 28.7296 52.0424Z" fill="#F79884"/>
<path d="M25.328 51.5126C25.328 51.5126 23.7691 51.8823 23.4948 52.0877C23.3027 52.2292 22.5027 53.0599 22.5027 53.0599C22.5027 53.0599 23.0833 52.9731 23.4216 52.6628C23.7599 52.3478 25.328 51.5126 25.328 51.5126Z" fill="#E9D6B8"/>
<path d="M38.8654 49.942L38.6231 37.527C38.6231 37.527 38.6459 33.6519 38.7145 32.5109C38.7831 31.3333 40.8678 32.7208 40.8678 32.7208C40.8678 32.7208 43.78 36.5274 43.844 45.6926C43.8851 51.8179 43.5331 55.0175 40.6026 54.7664C37.8687 54.5291 34.7736 54.1274 34.7736 54.1274L33.4113 50.0332L38.8654 49.942Z" fill="#387BFF"/>
<path d="M16.4634 53.4302L16.4092 53.8788L38.2138 56.5057L38.268 56.0571L16.4634 53.4302Z" fill="#797A8A"/>
<path d="M28.6485 54.8764C28.6074 55.2233 28.3239 55.4743 28.0222 55.4378L16.8397 54.0913C16.5379 54.0548 16.1493 53.7809 15.8842 52.8589L11.573 42.1146C11.6233 41.6764 11.9982 41.4573 12.2953 41.5623L23.7293 43.2876C24.0265 43.3971 24.2459 43.6619 24.3602 44.1411L28.6485 54.8764Z" fill="#797A8A"/>
<path d="M27.2402 55.1868L27.3545 55.2005L38.2719 56.515C37.8558 56.6747 37.1838 56.7341 36.4432 56.6428L27.3134 55.5428L27.1991 55.5291L18.0693 54.4291C17.3287 54.3378 16.6886 54.1233 16.3229 53.8677L27.2402 55.1868Z" fill="#B7BEC0"/>
<path fill-rule="evenodd" clip-rule="evenodd" d="M39.7415 40.7144C39.7964 40.7361 39.8234 40.7982 39.8017 40.8531C39.7909 40.8804 39.7701 40.9316 39.7438 40.9963C39.7022 41.0985 39.647 41.2343 39.5959 41.363C39.5078 41.5852 39.4282 41.7957 39.4115 41.8699C39.3754 42.0299 39.3409 42.1748 39.3087 42.3103C39.1659 42.9108 39.0673 43.3252 39.0673 44.0422C39.0673 44.8771 38.9129 46.0875 38.707 46.9072C38.6597 47.0954 38.5947 47.2723 38.5274 47.4432C38.5075 47.4937 38.4875 47.5434 38.4677 47.5927C38.4197 47.7121 38.3726 47.8291 38.3298 47.9499C38.3067 48.0151 38.2846 48.0791 38.2628 48.1419C38.1082 48.5884 37.973 48.9785 37.6571 49.3785C37.4348 49.6601 37.1499 49.9414 36.9252 50.157C36.8826 50.1978 36.8149 50.1964 36.774 50.1538C36.7331 50.1112 36.7346 50.0435 36.7772 50.0027C37.0016 49.7873 37.2769 49.515 37.4893 49.246C37.7815 48.876 37.9047 48.521 38.0603 48.0731C38.0821 48.0102 38.1046 47.9454 38.1283 47.8785C38.1726 47.7532 38.2223 47.6296 38.271 47.5086C38.2904 47.4602 38.3097 47.4123 38.3284 47.3648C38.3948 47.1964 38.4557 47.0298 38.4996 46.855C38.7015 46.0517 38.8535 44.8588 38.8535 44.0422C38.8535 43.2985 38.9581 42.8593 39.1019 42.2552C39.1339 42.1209 39.1678 41.9785 39.2029 41.8228C39.2243 41.7281 39.3123 41.498 39.3972 41.2841C39.4514 41.1476 39.5035 41.0196 39.5433 40.9217C39.5693 40.8577 39.5901 40.8067 39.6028 40.7746C39.6245 40.7197 39.6866 40.6927 39.7415 40.7144Z" fill="#0B2E8F"/>
<path fill-rule="evenodd" clip-rule="evenodd" d="M43.5763 48.5922C43.6105 48.6403 43.5991 48.7071 43.551 48.7413C43.4556 48.809 43.3778 48.9183 43.29 49.0516C43.2825 49.0629 43.275 49.0745 43.2673 49.0862C43.1898 49.2045 43.1027 49.3375 42.9926 49.4383C42.9502 49.4771 42.9039 49.5108 42.8633 49.5403C42.8588 49.5436 42.8543 49.5468 42.8499 49.55C42.8042 49.5834 42.7659 49.6124 42.7337 49.6455C42.5459 49.8376 42.3946 50.0264 42.2392 50.2202L42.2386 50.221C42.0835 50.4144 41.9244 50.6127 41.725 50.8168C41.5836 50.9616 41.4359 51.0857 41.2922 51.2065C41.276 51.2201 41.2599 51.2337 41.2438 51.2473C41.0837 51.3822 40.9283 51.5169 40.7805 51.6814C40.694 51.7778 40.5957 51.922 40.4915 52.0756L40.4841 52.0865C40.3851 52.2325 40.2811 52.3861 40.1858 52.4941C39.9482 52.7637 39.5249 53.1859 39.2152 53.3817C38.7808 53.6563 38.3503 53.7926 37.901 53.9349C37.784 53.972 37.6657 54.0094 37.5457 54.0499C37.4898 54.0687 37.4291 54.0386 37.4103 53.9827C37.3914 53.9267 37.4215 53.8661 37.4775 53.8472C37.6054 53.8041 37.7287 53.765 37.8487 53.7269C38.2939 53.5857 38.692 53.4594 39.101 53.2009C39.3837 53.0222 39.7905 52.6193 40.0254 52.3527C40.1116 52.255 40.2094 52.1107 40.313 51.9578L40.3146 51.9556C40.4159 51.8061 40.5231 51.6481 40.6214 51.5386C40.7798 51.3621 40.9452 51.2193 41.106 51.0838C41.1221 51.0702 41.1382 51.0567 41.1542 51.0432C41.2989 50.9215 41.4384 50.8042 41.572 50.6674C41.7631 50.4718 41.9162 50.2812 42.0717 50.0872L42.0747 50.0834C42.2288 49.8913 42.3856 49.6957 42.5807 49.496C42.6268 49.4488 42.6784 49.4104 42.7239 49.3773C42.7283 49.3741 42.7325 49.371 42.7368 49.3679C42.7789 49.3373 42.8152 49.3108 42.8482 49.2806C42.9374 49.1989 43.0099 49.0886 43.0909 48.9653C43.0977 48.9549 43.1045 48.9445 43.1115 48.9339C43.1965 48.8049 43.2943 48.6612 43.4272 48.5669C43.4754 48.5327 43.5421 48.544 43.5763 48.5922Z" fill="#0B2E8F"/>
</g>
<defs>
<clipPath id="clip0_1364_250625">
<rect width="59.1596" height="79.117" fill="white" transform="translate(4.77661 14.4415)"/>
</clipPath>
</defs>
</svg>
