<svg width="25" height="24" viewBox="0 0 25 24" fill="none" xmlns="http://www.w3.org/2000/svg">
<path d="M7.86719 11.5C7.27624 11.5 6.69108 11.3836 6.14511 11.1575C5.59915 10.9313 5.10307 10.5998 4.68521 10.182C4.26734 9.76412 3.93588 9.26804 3.70973 8.72208C3.48358 8.17611 3.36719 7.59095 3.36719 7C3.36719 6.40905 3.48358 5.82389 3.70973 5.27792C3.93588 4.73196 4.26734 4.23588 4.68521 3.81802C5.10307 3.40016 5.59915 3.06869 6.14511 2.84254C6.69108 2.6164 7.27624 2.5 7.86719 2.5C9.06066 2.5 10.2053 2.97411 11.0492 3.81802C11.8931 4.66193 12.3672 5.80653 12.3672 7C12.3672 8.19347 11.8931 9.33807 11.0492 10.182C10.2053 11.0259 9.06066 11.5 7.86719 11.5ZM7.86719 21.5C6.67371 21.5 5.52912 21.0259 4.68521 20.182C3.84129 19.3381 3.36719 18.1935 3.36719 17C3.36719 15.8065 3.84129 14.6619 4.68521 13.818C5.52912 12.9741 6.67371 12.5 7.86719 12.5C9.06066 12.5 10.2053 12.9741 11.0492 13.818C11.8931 14.6619 12.3672 15.8065 12.3672 17C12.3672 18.1935 11.8931 19.3381 11.0492 20.182C10.2053 21.0259 9.06066 21.5 7.86719 21.5ZM17.8672 11.5C17.2762 11.5 16.6911 11.3836 16.1451 11.1575C15.5991 10.9313 15.1031 10.5998 14.6852 10.182C14.2673 9.76412 13.9359 9.26804 13.7097 8.72208C13.4836 8.17611 13.3672 7.59095 13.3672 7C13.3672 6.40905 13.4836 5.82389 13.7097 5.27792C13.9359 4.73196 14.2673 4.23588 14.6852 3.81802C15.1031 3.40016 15.5991 3.06869 16.1451 2.84254C16.6911 2.6164 17.2762 2.5 17.8672 2.5C19.0607 2.5 20.2053 2.97411 21.0492 3.81802C21.8931 4.66193 22.3672 5.80653 22.3672 7C22.3672 8.19347 21.8931 9.33807 21.0492 10.182C20.2053 11.0259 19.0607 11.5 17.8672 11.5ZM17.8672 21.5C16.6737 21.5 15.5291 21.0259 14.6852 20.182C13.8413 19.3381 13.3672 18.1935 13.3672 17C13.3672 15.8065 13.8413 14.6619 14.6852 13.818C15.5291 12.9741 16.6737 12.5 17.8672 12.5C19.0607 12.5 20.2053 12.9741 21.0492 13.818C21.8931 14.6619 22.3672 15.8065 22.3672 17C22.3672 18.1935 21.8931 19.3381 21.0492 20.182C20.2053 21.0259 19.0607 21.5 17.8672 21.5ZM7.86719 9.5C8.53023 9.5 9.16611 9.23661 9.63495 8.76777C10.1038 8.29893 10.3672 7.66304 10.3672 7C10.3672 6.33696 10.1038 5.70107 9.63495 5.23223C9.16611 4.76339 8.53023 4.5 7.86719 4.5C7.20415 4.5 6.56826 4.76339 6.09942 5.23223C5.63058 5.70107 5.36719 6.33696 5.36719 7C5.36719 7.66304 5.63058 8.29893 6.09942 8.76777C6.56826 9.23661 7.20415 9.5 7.86719 9.5ZM7.86719 19.5C8.53023 19.5 9.16611 19.2366 9.63495 18.7678C10.1038 18.2989 10.3672 17.663 10.3672 17C10.3672 16.337 10.1038 15.7011 9.63495 15.2322C9.16611 14.7634 8.53023 14.5 7.86719 14.5C7.20415 14.5 6.56826 14.7634 6.09942 15.2322C5.63058 15.7011 5.36719 16.337 5.36719 17C5.36719 17.663 5.63058 18.2989 6.09942 18.7678C6.56826 19.2366 7.20415 19.5 7.86719 19.5ZM17.8672 9.5C18.5302 9.5 19.1661 9.23661 19.635 8.76777C20.1038 8.29893 20.3672 7.66304 20.3672 7C20.3672 6.33696 20.1038 5.70107 19.635 5.23223C19.1661 4.76339 18.5302 4.5 17.8672 4.5C17.2041 4.5 16.5683 4.76339 16.0994 5.23223C15.6306 5.70107 15.3672 6.33696 15.3672 7C15.3672 7.66304 15.6306 8.29893 16.0994 8.76777C16.5683 9.23661 17.2041 9.5 17.8672 9.5ZM17.8672 19.5C18.5302 19.5 19.1661 19.2366 19.635 18.7678C20.1038 18.2989 20.3672 17.663 20.3672 17C20.3672 16.337 20.1038 15.7011 19.635 15.2322C19.1661 14.7634 18.5302 14.5 17.8672 14.5C17.2041 14.5 16.5683 14.7634 16.0994 15.2322C15.6306 15.7011 15.3672 16.337 15.3672 17C15.3672 17.663 15.6306 18.2989 16.0994 18.7678C16.5683 19.2366 17.2041 19.5 17.8672 19.5Z" fill="#757575"/>
</svg>
