<svg width="22" height="20" viewBox="0 0 22 20" fill="none" xmlns="http://www.w3.org/2000/svg">
<path d="M1.52985 17.65L2.86985 18.21V9.18L0.439855 15.04C0.029855 16.06 0.519855 17.23 1.52985 17.65ZM21.0299 13.95L16.0699 1.98C15.7599 1.23 15.0299 0.77 14.2599 0.75C13.9999 0.75 13.7299 0.79 13.4699 0.9L6.09985 3.95C5.34985 4.26 4.88985 4.98 4.86985 5.75C4.85985 6.02 4.90985 6.29 5.01986 6.55L9.97985 18.52C10.2899 19.28 11.0299 19.74 11.8099 19.75C12.0699 19.75 12.3299 19.7 12.5799 19.6L19.9399 16.55C20.9599 16.13 21.4499 14.96 21.0299 13.95ZM6.87986 6.75C6.32985 6.75 5.87986 6.3 5.87986 5.75C5.87986 5.2 6.32985 4.75 6.87986 4.75C7.42986 4.75 7.87986 5.2 7.87986 5.75C7.87986 6.3 7.42986 6.75 6.87986 6.75ZM4.87986 17.75C4.87986 18.85 5.77986 19.75 6.87986 19.75H8.32985L4.87986 11.41V17.75Z" fill="#3E7EFF"/>
</svg>
