<svg width="14" height="14" viewBox="0 0 14 14" fill="none" xmlns="http://www.w3.org/2000/svg">
<path fill-rule="evenodd" clip-rule="evenodd" d="M7 0.25C7.41421 0.25 7.75 0.585786 7.75 1V7.52284L9.80317 5.46967C10.0961 5.17678 10.5709 5.17678 10.8638 5.46967C11.1567 5.76256 11.1567 6.23744 10.8638 6.53033L7.53049 9.86366C7.38984 10.0043 7.19908 10.0833 7.00016 10.0833C6.80125 10.0833 6.61049 10.0043 6.46983 9.86366L3.1365 6.53033C2.84361 6.23744 2.84361 5.76256 3.1365 5.46967C3.42939 5.17678 3.90427 5.17678 4.19716 5.46967L6.25 7.52251V1C6.25 0.585786 6.58579 0.25 7 0.25ZM1 8.25C1.41421 8.25 1.75 8.58579 1.75 9V11.6667C1.75 11.8214 1.81146 11.9697 1.92085 12.0791C2.03025 12.1885 2.17862 12.25 2.33333 12.25H11.6667C11.8214 12.25 11.9697 12.1885 12.0791 12.0791C12.1885 11.9697 12.25 11.8214 12.25 11.6667V9C12.25 8.58579 12.5858 8.25 13 8.25C13.4142 8.25 13.75 8.58579 13.75 9V11.6667C13.75 12.2192 13.5305 12.7491 13.1398 13.1398C12.7491 13.5305 12.2192 13.75 11.6667 13.75H2.33333C1.7808 13.75 1.25089 13.5305 0.860194 13.1398C0.469494 12.7491 0.25 12.2192 0.25 11.6667V9C0.25 8.58579 0.585786 8.25 1 8.25Z" fill="#757575"/>
</svg>
