<svg width="27" height="23" viewBox="0 0 27 23" fill="none" xmlns="http://www.w3.org/2000/svg">
<path d="M13.5052 5.16667C16.7267 5.16667 19.3412 7.78 19.3412 11C19.3412 11.7583 19.1894 12.47 18.921 13.135L22.3292 16.5417C24.0917 15.0717 25.4806 13.17 26.3327 11C24.3134 5.87833 19.3295 2.25 13.4935 2.25C11.8594 2.25 10.2954 2.54167 8.84807 3.06667L11.3692 5.58667C12.0345 5.31833 12.7465 5.16667 13.5052 5.16667ZM1.83321 1.98167L4.49442 4.64167L5.03133 5.17833C3.09379 6.68333 1.57643 8.69 0.666016 11C2.68527 16.1217 7.6692 19.75 13.5052 19.75C15.3143 19.75 17.0418 19.4 18.6175 18.77L19.1077 19.26L22.5276 22.6667L24.01 21.185L3.31555 0.5L1.83321 1.98167ZM8.28781 8.43333L10.097 10.2417C10.0386 10.4867 10.0036 10.7433 10.0036 11C10.0036 12.9367 11.5676 14.5 13.5052 14.5C13.762 14.5 14.0188 14.465 14.2639 14.4067L16.073 16.215C15.291 16.6 14.4273 16.8333 13.5052 16.8333C10.2837 16.8333 7.6692 14.22 7.6692 11C7.6692 10.0783 7.90264 9.215 8.28781 8.43333ZM13.3184 7.52333L16.9951 11.1983L17.0184 11.0117C17.0184 9.075 15.4544 7.51167 13.5169 7.51167L13.3184 7.52333Z" fill="#2C50FF"/>
</svg>
