<svg width="27" height="18" viewBox="0 0 27 18" fill="none" xmlns="http://www.w3.org/2000/svg">
<path d="M13.5002 0.25C7.66687 0.25 2.6852 3.87833 0.66687 9C2.6852 14.1217 7.66687 17.75 13.5002 17.75C19.3335 17.75 24.3152 14.1217 26.3335 9C24.3152 3.87833 19.3335 0.25 13.5002 0.25ZM13.5002 14.8333C10.2802 14.8333 7.66687 12.22 7.66687 9C7.66687 5.78 10.2802 3.16667 13.5002 3.16667C16.7202 3.16667 19.3335 5.78 19.3335 9C19.3335 12.22 16.7202 14.8333 13.5002 14.8333ZM13.5002 5.5C11.5635 5.5 10.0002 7.06333 10.0002 9C10.0002 10.9367 11.5635 12.5 13.5002 12.5C15.4369 12.5 17.0002 10.9367 17.0002 9C17.0002 7.06333 15.4369 5.5 13.5002 5.5Z" fill="#2C50FF"/>
</svg>
