<svg width="10" height="21" viewBox="0 0 10 21" fill="none" xmlns="http://www.w3.org/2000/svg">
<path fill-rule="evenodd" clip-rule="evenodd" d="M0.199951 2.4999C0.199951 2.07556 0.368522 1.66859 0.668581 1.36853C0.968639 1.06847 1.3756 0.899902 1.79995 0.899902C2.2243 0.899902 2.63126 1.06847 2.93132 1.36853C3.23138 1.66859 3.39995 2.07556 3.39995 2.4999C3.39995 2.92425 3.23138 3.33122 2.93132 3.63127C2.63126 3.93133 2.2243 4.0999 1.79995 4.0999C1.3756 4.0999 0.968639 3.93133 0.668581 3.63127C0.368522 3.33122 0.199951 2.92425 0.199951 2.4999ZM6.59995 2.4999C6.59995 2.07556 6.76852 1.66859 7.06858 1.36853C7.36864 1.06847 7.7756 0.899902 8.19995 0.899902C8.6243 0.899902 9.03126 1.06847 9.33132 1.36853C9.63138 1.66859 9.79995 2.07556 9.79995 2.4999C9.79995 2.92425 9.63138 3.33122 9.33132 3.63127C9.03126 3.93133 8.6243 4.0999 8.19995 4.0999C7.7756 4.0999 7.36864 3.93133 7.06858 3.63127C6.76852 3.33122 6.59995 2.92425 6.59995 2.4999ZM0.199951 10.4999C0.199951 10.0756 0.368522 9.66859 0.668581 9.36853C0.968639 9.06847 1.3756 8.8999 1.79995 8.8999C2.2243 8.8999 2.63126 9.06847 2.93132 9.36853C3.23138 9.66859 3.39995 10.0756 3.39995 10.4999C3.39995 10.9242 3.23138 11.3312 2.93132 11.6313C2.63126 11.9313 2.2243 12.0999 1.79995 12.0999C1.3756 12.0999 0.968639 11.9313 0.668581 11.6313C0.368522 11.3312 0.199951 10.9242 0.199951 10.4999ZM6.59995 10.4999C6.59995 10.0756 6.76852 9.66859 7.06858 9.36853C7.36864 9.06847 7.7756 8.8999 8.19995 8.8999C8.6243 8.8999 9.03126 9.06847 9.33132 9.36853C9.63138 9.66859 9.79995 10.0756 9.79995 10.4999C9.79995 10.9242 9.63138 11.3312 9.33132 11.6313C9.03126 11.9313 8.6243 12.0999 8.19995 12.0999C7.7756 12.0999 7.36864 11.9313 7.06858 11.6313C6.76852 11.3312 6.59995 10.9242 6.59995 10.4999ZM0.199951 18.4999C0.199951 18.0756 0.368522 17.6686 0.668581 17.3685C0.968639 17.0685 1.3756 16.8999 1.79995 16.8999C2.2243 16.8999 2.63126 17.0685 2.93132 17.3685C3.23138 17.6686 3.39995 18.0756 3.39995 18.4999C3.39995 18.9242 3.23138 19.3312 2.93132 19.6313C2.63126 19.9313 2.2243 20.0999 1.79995 20.0999C1.3756 20.0999 0.968639 19.9313 0.668581 19.6313C0.368522 19.3312 0.199951 18.9242 0.199951 18.4999ZM6.59995 18.4999C6.59995 18.0756 6.76852 17.6686 7.06858 17.3685C7.36864 17.0685 7.7756 16.8999 8.19995 16.8999C8.6243 16.8999 9.03126 17.0685 9.33132 17.3685C9.63138 17.6686 9.79995 18.0756 9.79995 18.4999C9.79995 18.9242 9.63138 19.3312 9.33132 19.6313C9.03126 19.9313 8.6243 20.0999 8.19995 20.0999C7.7756 20.0999 7.36864 19.9313 7.06858 19.6313C6.76852 19.3312 6.59995 18.9242 6.59995 18.4999Z" fill="#CCCCCC"/>
</svg>
