<svg width="24" height="24" viewBox="0 0 24 24" fill="none" xmlns="http://www.w3.org/2000/svg">
<g clip-path="url(#clip0_209_105811)">
<path d="M11.766 8.67018L6.026 13.4794V18.6366C6.026 18.9214 6.24437 19.1429 6.52513 19.1429H10.0191C10.2686 19.1429 10.487 18.9214 10.487 18.6366V15.5992C10.487 15.3461 10.7366 15.093 10.9861 15.093H12.9827C13.2634 15.093 13.4818 15.3461 13.4818 15.5992V18.6366C13.4818 18.9214 13.7314 19.1429 13.9809 19.1429H17.5061C17.7556 19.1429 18.0052 18.9214 18.0052 18.6366V13.4477L12.234 8.67018C12.1716 8.6069 12.078 8.57526 12.0156 8.57526C11.922 8.57526 11.8284 8.6069 11.766 8.67018ZM20.844 11.9291L18.2548 9.74593V5.37967C18.2548 5.1582 18.0676 5 17.8804 5H16.1334C15.9151 5 15.7591 5.1582 15.7591 5.37967V7.65772L12.9515 5.3164C12.7331 5.12656 12.2964 5 11.9844 5C11.7036 5 11.2669 5.12656 11.0485 5.3164L3.15598 11.9291C3.06239 11.9923 3 12.1189 3 12.2138C3 12.3087 3.06239 12.4036 3.09359 12.4669L3.90468 13.4477C3.96707 13.511 4.09185 13.5743 4.18544 13.5743C4.24783 13.5743 4.37262 13.5427 4.43501 13.4794L11.766 7.37296C11.8284 7.30968 11.922 7.27804 12.0156 7.27804C12.078 7.27804 12.1716 7.30968 12.234 7.37296L19.565 13.4794C19.6274 13.5427 19.7522 13.5743 19.8146 13.5743C19.9081 13.5743 20.0329 13.511 20.0953 13.4477L20.9064 12.4669C20.9376 12.4036 21 12.3087 21 12.2138C21 12.1189 20.9376 11.9923 20.844 11.9291Z" fill="#8F8F8F"/>
</g>
<defs>
<clipPath id="clip0_209_105811">
<rect width="24" height="24" fill="white"/>
</clipPath>
</defs>
</svg>
