<svg width="16" height="16" viewBox="0 0 16 16" fill="none" xmlns="http://www.w3.org/2000/svg">
<path d="M8 0.5C3.86455 0.5 0.5 3.86455 0.5 8C0.5 12.1354 3.86455 15.5 8 15.5C12.1354 15.5 15.5 12.1354 15.5 8C15.5 3.86455 12.1354 0.5 8 0.5ZM8.48785 12.4499C8.13153 12.5093 7.42253 12.6577 7.06249 12.6875C6.75773 12.7127 6.47014 12.5383 6.29483 12.2879C6.11906 12.0375 6.07694 11.717 6.1813 11.4296L7.59899 7.53126H6.12499C6.12373 6.71896 6.73301 6.1217 7.51229 5.89248C7.88417 5.78306 8.57704 5.63333 8.93748 5.65627C9.15342 5.67001 9.52983 5.80549 9.70514 6.05591C9.88091 6.30631 9.92303 6.62674 9.81867 6.91422L8.40098 10.8125H9.87453C9.87481 11.6239 9.28825 12.3165 8.48785 12.4499ZM8.93748 5.18751C8.4197 5.18751 7.99997 4.76772 7.99997 4.25C7.99997 3.73222 8.4197 3.31249 8.93748 3.31249C9.45526 3.31249 9.87499 3.73222 9.87499 4.25C9.87499 4.76775 9.45529 5.18751 8.93748 5.18751Z" fill="#CCCCCC"/>
</svg>
