<svg width="24" height="24" viewBox="0 0 24 24" fill="none" xmlns="http://www.w3.org/2000/svg">
<path d="M3 5.88889V19.1111C3 20.15 3.84056 21 4.88889 21H18.1111C19.15 21 20 20.15 20 19.1111V5.88889C20 4.85 19.15 4 18.1111 4H4.88889C3.84056 4 3 4.85 3 5.88889ZM14.3333 9.66667C14.3333 11.2344 13.0678 12.5 11.5 12.5C9.93222 12.5 8.66667 11.2344 8.66667 9.66667C8.66667 8.09889 9.93222 6.83333 11.5 6.83333C13.0678 6.83333 14.3333 8.09889 14.3333 9.66667ZM5.83333 17.2222C5.83333 15.3333 9.61111 14.2944 11.5 14.2944C13.3889 14.2944 17.1667 15.3333 17.1667 17.2222V18.1667H5.83333V17.2222Z" fill="#4A4A4A"/>
</svg>
