<svg width="16" height="18" viewBox="0 0 16 18" fill="none" xmlns="http://www.w3.org/2000/svg">
<path d="M0.75 15.3C0.533333 15.3 0.354167 15.2362 0.2125 15.1088C0.0708334 14.9812 0 14.82 0 14.625C0 14.43 0.0708334 14.2687 0.2125 14.1412C0.354167 14.0137 0.533333 13.95 0.75 13.95H2.1V7.065C2.1 5.835 2.5125 4.72125 3.3375 3.72375C4.1625 2.72625 5.25 2.1 6.6 1.845V1.1925C6.6 0.8475 6.7375 0.5625 7.0125 0.3375C7.2875 0.1125 7.61667 0 8 0C8.38333 0 8.7125 0.1125 8.9875 0.3375C9.2625 0.5625 9.4 0.8475 9.4 1.1925V1.845C10.75 2.1 11.8417 2.72625 12.675 3.72375C13.5083 4.72125 13.925 5.835 13.925 7.065V13.95H15.25C15.4667 13.95 15.6458 14.0137 15.7875 14.1412C15.9292 14.2687 16 14.43 16 14.625C16 14.82 15.9292 14.9812 15.7875 15.1088C15.6458 15.2362 15.4667 15.3 15.25 15.3H0.75ZM8 18C7.46667 18 7 17.8237 6.6 17.4713C6.2 17.1187 6 16.695 6 16.2H10C10 16.695 9.80417 17.1187 9.4125 17.4713C9.02083 17.8237 8.55 18 8 18ZM3.6 13.95H12.425V7.065C12.425 5.94 12.0042 4.99125 11.1625 4.21875C10.3208 3.44625 9.28333 3.06 8.05 3.06C6.8 3.06 5.74583 3.44625 4.8875 4.21875C4.02917 4.99125 3.6 5.94 3.6 7.065V13.95Z" fill="#4A4A4A"/>
</svg>
