<svg width="62" height="79" viewBox="0 0 62 79" fill="none" xmlns="http://www.w3.org/2000/svg">
<path d="M52.7222 27.4081C52.7222 26.935 53.1036 26.5515 53.574 26.5515H56.9814C57.4519 26.5515 57.8333 26.935 57.8333 27.4081C57.8333 27.8812 57.4519 28.2647 56.9814 28.2647H53.574C53.1036 28.2647 52.7222 27.8812 52.7222 27.4081Z" fill="#F1F1F2"/>
<path d="M55.2778 24.8383C55.7483 24.8383 56.1297 25.2218 56.1297 25.6949V29.1213C56.1297 29.5944 55.7483 29.9779 55.2778 29.9779C54.8074 29.9779 54.426 29.5944 54.426 29.1213V25.6949C54.426 25.2218 54.8074 24.8383 55.2778 24.8383Z" fill="#F1F1F2"/>
<path fill-rule="evenodd" clip-rule="evenodd" d="M36.963 23.1202C36.963 22.6497 36.5816 22.2683 36.1111 22.2683C35.6407 22.2683 35.2593 22.6497 35.2593 23.1202V23.9813H34.412C33.9389 23.9813 33.5554 24.3648 33.5554 24.8379C33.5554 25.311 33.9389 25.6945 34.412 25.6945H35.2593V26.5561C35.2593 27.0266 35.6407 27.408 36.1111 27.408C36.5816 27.408 36.963 27.0266 36.963 26.5561V25.6945H37.8099C38.283 25.6945 38.6665 25.311 38.6665 24.8379C38.6665 24.3648 38.283 23.9813 37.8099 23.9813H36.963V23.1202Z" fill="#F1F1F2"/>
<path d="M25.8888 4.27955C25.8888 3.56991 26.4609 2.99464 27.1666 2.99464H32.2777C32.9834 2.99464 33.5555 3.56991 33.5555 4.27955C33.5555 4.98919 32.9834 5.56447 32.2777 5.56447H27.1666C26.4609 5.56447 25.8888 4.98919 25.8888 4.27955Z" fill="#F1F1F2"/>
<path d="M29.7221 0.424805C30.4278 0.424805 30.9999 1.00008 30.9999 1.70972V6.84939C30.9999 7.55903 30.4278 8.1343 29.7221 8.1343C29.0164 8.1343 28.4443 7.55903 28.4443 6.84939V1.70972C28.4443 1.00008 29.0164 0.424805 29.7221 0.424805Z" fill="#F1F1F2"/>
<path d="M6.72217 74.9501C6.72217 74.2404 7.29425 73.6652 7.99995 73.6652H13.1111C13.8168 73.6652 14.3888 74.2404 14.3888 74.9501C14.3888 75.6597 13.8168 76.235 13.1111 76.235H7.99995C7.29425 76.235 6.72217 75.6597 6.72217 74.9501Z" fill="#F1F1F2"/>
<path d="M10.5555 71.0953C11.2612 71.0953 11.8333 71.6706 11.8333 72.3803V77.5199C11.8333 78.2296 11.2612 78.8048 10.5555 78.8048C9.8498 78.8048 9.27772 78.2296 9.27772 77.5199V72.3803C9.27772 71.6706 9.8498 71.0953 10.5555 71.0953Z" fill="#F1F1F2"/>
<path d="M56.5554 58.246C56.5554 57.7729 56.9368 57.3894 57.4073 57.3894H60.8147C61.2851 57.3894 61.6665 57.7729 61.6665 58.246C61.6665 58.7191 61.2851 59.1026 60.8147 59.1026H57.4073C56.9368 59.1026 56.5554 58.7191 56.5554 58.246Z" fill="#F1F1F2"/>
<path d="M59.1111 55.6761C59.5815 55.6761 59.9629 56.0597 59.9629 56.5328V59.9592C59.9629 60.4323 59.5815 60.8158 59.1111 60.8158C58.6406 60.8158 58.2592 60.4323 58.2592 59.9592V56.5328C58.2592 56.0597 58.6406 55.6761 59.1111 55.6761Z" fill="#F1F1F2"/>
<path d="M0.333252 13.2739C0.333252 12.8008 0.714639 12.4173 1.1851 12.4173H4.59251C5.06298 12.4173 5.44436 12.8008 5.44436 13.2739C5.44436 13.747 5.06298 14.1305 4.59251 14.1305H1.1851C0.714639 14.1305 0.333252 13.747 0.333252 13.2739Z" fill="#F1F1F2"/>
<path d="M2.88891 10.7041C3.35938 10.7041 3.74076 11.0876 3.74076 11.5607V14.9872C3.74076 15.4602 3.35938 15.8438 2.88891 15.8438C2.41845 15.8438 2.03706 15.4602 2.03706 14.9872V11.5607C2.03706 11.0876 2.41845 10.7041 2.88891 10.7041Z" fill="#F1F1F2"/>
<path d="M18.2222 72.3801C18.2222 71.907 18.6036 71.5235 19.074 71.5235H22.4814C22.9519 71.5235 23.3333 71.907 23.3333 72.3801C23.3333 72.8532 22.9519 73.2367 22.4814 73.2367H19.074C18.6036 73.2367 18.2222 72.8532 18.2222 72.3801Z" fill="#F1F1F2"/>
<path d="M20.7778 69.8103C21.2483 69.8103 21.6297 70.1938 21.6297 70.6669V74.0934C21.6297 74.5664 21.2483 74.95 20.7778 74.95C20.3074 74.95 19.926 74.5664 19.926 74.0934V70.6669C19.926 70.1938 20.3074 69.8103 20.7778 69.8103Z" fill="#F1F1F2"/>
<path d="M46.3333 17.1285V68.5252H15.6667C11.4325 68.5252 8 65.0735 8 60.8157L8 17.1285L46.3333 17.1285Z" fill="#F1F1F2"/>
<rect x="15.6667" y="24.1957" width="23" height="0.642458" fill="#E0E0E0"/>
<rect x="15.6667" y="29.3353" width="23" height="0.642458" fill="#E0E0E0"/>
<rect x="15.6667" y="34.4747" width="23" height="0.642458" fill="#E0E0E0"/>
<rect x="15.6667" y="39.6146" width="23" height="0.642458" fill="#E0E0E0"/>
<rect x="15.6667" y="44.754" width="23" height="0.642458" fill="#E0E0E0"/>
<rect x="15.6667" y="49.8939" width="23" height="0.642458" fill="#E0E0E0"/>
<rect x="15.6667" y="55.0333" width="23" height="0.642458" fill="#E0E0E0"/>
<path d="M54.0001 62.1449V60.8157H19.5001V62.1006C19.5001 65.2297 17.2756 67.8362 14.3301 68.4084C14.7642 68.4851 15.2108 68.5252 15.6668 68.5252H47.6553C51.1594 68.5252 54.0001 65.6686 54.0001 62.1449Z" fill="#CCCCCC"/>
</svg>
