<svg width="25" height="24" viewBox="0 0 25 24" fill="none" xmlns="http://www.w3.org/2000/svg">
<path d="M14.6866 22H11.0466C10.8185 22 10.5973 21.9221 10.4196 21.7792C10.2419 21.6362 10.1184 21.4368 10.0696 21.214L9.66258 19.33C9.11964 19.0921 8.60482 18.7946 8.12758 18.443L6.29058 19.028C6.07315 19.0973 5.83853 19.0902 5.6257 19.0078C5.41287 18.9254 5.23463 18.7727 5.12058 18.575L3.29658 15.424C3.18373 15.2261 3.14137 14.9958 3.17643 14.7708C3.21149 14.5457 3.32189 14.3392 3.48958 14.185L4.91458 12.885C4.84978 12.2961 4.84978 11.7019 4.91458 11.113L3.48958 9.816C3.32165 9.66177 3.2111 9.45507 3.17603 9.22978C3.14097 9.00449 3.18347 8.77397 3.29658 8.576L5.11658 5.423C5.23063 5.22532 5.40887 5.07259 5.6217 4.99019C5.83453 4.90778 6.06915 4.90066 6.28658 4.97L8.12358 5.555C8.36758 5.375 8.62158 5.207 8.88358 5.055C9.13658 4.913 9.39658 4.784 9.66258 4.669L10.0706 2.787C10.1192 2.5642 10.2424 2.36469 10.4199 2.22155C10.5974 2.07841 10.8185 2.00024 11.0466 2H14.6866C14.9146 2.00024 15.1357 2.07841 15.3132 2.22155C15.4908 2.36469 15.614 2.5642 15.6626 2.787L16.0746 4.67C16.6172 4.9079 17.1317 5.20539 17.6086 5.557L19.4466 4.972C19.6639 4.90292 19.8983 4.91017 20.1109 4.99256C20.3235 5.07495 20.5016 5.22753 20.6156 5.425L22.4356 8.578C22.6676 8.985 22.5876 9.5 22.2426 9.817L20.8176 11.117C20.8824 11.7059 20.8824 12.3001 20.8176 12.889L22.2426 14.189C22.5876 14.507 22.6676 15.021 22.4356 15.428L20.6156 18.581C20.5015 18.7787 20.3233 18.9314 20.1105 19.0138C19.8976 19.0962 19.663 19.1033 19.4456 19.034L17.6086 18.449C17.1317 18.8003 16.6172 19.0975 16.0746 19.335L15.6626 21.214C15.6138 21.4366 15.4905 21.6359 15.313 21.7788C15.1355 21.9218 14.9145 21.9998 14.6866 22ZM8.48658 16.229L9.30658 16.829C9.49158 16.965 9.68358 17.09 9.88358 17.204C10.0716 17.313 10.2636 17.411 10.4626 17.5L11.3956 17.909L11.8526 20H13.8826L14.3396 17.908L15.2726 17.499C15.6796 17.319 16.0666 17.096 16.4256 16.833L17.2456 16.233L19.2876 16.883L20.3026 15.125L18.7196 13.682L18.8316 12.67C18.8816 12.227 18.8816 11.78 18.8316 11.338L18.7196 10.326L20.3036 8.88L19.2876 7.121L17.2466 7.771L16.4256 7.171C16.0664 6.90669 15.6798 6.68173 15.2726 6.5L14.3396 6.091L13.8826 4H11.8526L11.3926 6.092L10.4626 6.5C10.0548 6.67861 9.66806 6.90198 9.30958 7.166L8.48858 7.766L6.44858 7.116L5.43158 8.88L7.01458 10.321L6.90258 11.334C6.85258 11.777 6.85258 12.224 6.90258 12.666L7.01458 13.678L5.43158 15.121L6.44658 16.879L8.48658 16.229ZM12.8626 16C11.8017 16 10.7843 15.5786 10.0342 14.8284C9.28401 14.0783 8.86258 13.0609 8.86258 12C8.86258 10.9391 9.28401 9.92172 10.0342 9.17157C10.7843 8.42143 11.8017 8 12.8626 8C13.9235 8 14.9409 8.42143 15.691 9.17157C16.4412 9.92172 16.8626 10.9391 16.8626 12C16.8626 13.0609 16.4412 14.0783 15.691 14.8284C14.9409 15.5786 13.9235 16 12.8626 16ZM12.8626 10C12.4709 10.0004 12.088 10.1158 11.7614 10.3318C11.4347 10.5479 11.1786 10.855 11.025 11.2153C10.8713 11.5755 10.8268 11.9729 10.897 12.3583C10.9671 12.7436 11.1489 13.0998 11.4196 13.3828C11.6904 13.6657 12.0383 13.863 12.4201 13.95C12.802 14.037 13.201 14.01 13.5676 13.8724C13.9343 13.7347 14.2525 13.4924 14.4827 13.1756C14.7129 12.8587 14.845 12.4812 14.8626 12.09V12.49V12C14.8626 11.4696 14.6519 10.9609 14.2768 10.5858C13.9017 10.2107 13.393 10 12.8626 10Z" fill="#757575"/>
</svg>
