<svg width="16" height="19" viewBox="0 0 16 19" fill="none" xmlns="http://www.w3.org/2000/svg">
<path d="M16 5.1641C15.9987 5.06277 15.9755 4.9628 15.9318 4.87054C15.888 4.77829 15.8248 4.69576 15.746 4.6282L10.7937 0.194872C10.6553 0.0718432 10.4743 0.00240605 10.2857 0H3.30159C2.42595 0 1.58618 0.33363 0.967013 0.927495C0.347845 1.52136 0 2.32681 0 3.16667V15.8333C0 16.6732 0.347845 17.4786 0.967013 18.0725C1.58618 18.6664 2.42595 19 3.30159 19H12.6984C13.574 19 14.4138 18.6664 15.033 18.0725C15.6522 17.4786 16 16.6732 16 15.8333V5.1641ZM10.9206 2.28974L13.5111 4.6282H10.9206V2.28974ZM12.6984 17.5141H3.30159C2.83009 17.5141 2.37791 17.3345 2.04451 17.0147C1.71111 16.6949 1.52381 16.2612 1.52381 15.809V3.16667C1.52381 2.71444 1.71111 2.28073 2.04451 1.96096C2.37791 1.64119 2.83009 1.46154 3.30159 1.46154H9.39683V5.11538C9.39683 5.3738 9.50386 5.62163 9.69437 5.80436C9.88488 5.98709 10.1433 6.08974 10.4127 6.08974H14.4762V15.8333C14.4762 16.2856 14.2889 16.7193 13.9555 17.039C13.6221 17.3588 13.1699 17.5385 12.6984 17.5385V17.5141Z" fill="#757575"/>
<path d="M12.4444 9.74339H3.3015C3.09943 9.74339 2.90563 9.82039 2.76275 9.95743C2.61986 10.0945 2.53959 10.2804 2.53959 10.4742C2.53959 10.668 2.61986 10.8538 2.76275 10.9909C2.90563 11.1279 3.09943 11.2049 3.3015 11.2049H12.4444C12.6464 11.2049 12.8402 11.1279 12.9831 10.9909C13.126 10.8538 13.2063 10.668 13.2063 10.4742C13.2063 10.2804 13.126 10.0945 12.9831 9.95743C12.8402 9.82039 12.6464 9.74339 12.4444 9.74339Z" fill="#757575"/>
<path d="M3.3015 7.5513H8.63483C8.8369 7.5513 9.03069 7.4743 9.17358 7.33726C9.31646 7.20021 9.39674 7.01434 9.39674 6.82053C9.39674 6.62671 9.31646 6.44084 9.17358 6.3038C9.03069 6.16675 8.8369 6.08976 8.63483 6.08976H3.3015C3.09943 6.08976 2.90563 6.16675 2.76275 6.3038C2.61986 6.44084 2.53959 6.62671 2.53959 6.82053C2.53959 7.01434 2.61986 7.20021 2.76275 7.33726C2.90563 7.4743 3.09943 7.5513 3.3015 7.5513Z" fill="#757575"/>
<path d="M12.4444 13.3973H3.3015C3.09943 13.3973 2.90563 13.4743 2.76275 13.6113C2.61986 13.7484 2.53959 13.9343 2.53959 14.1281C2.53959 14.3219 2.61986 14.5078 2.76275 14.6448C2.90563 14.7819 3.09943 14.8588 3.3015 14.8588H12.4444C12.6464 14.8588 12.8402 14.7819 12.9831 14.6448C13.126 14.5078 13.2063 14.3219 13.2063 14.1281C13.2063 13.9343 13.126 13.7484 12.9831 13.6113C12.8402 13.4743 12.6464 13.3973 12.4444 13.3973Z" fill="#757575"/>
</svg>
