<svg viewBox="0 0 12 14" fill="none" xmlns="http://www.w3.org/2000/svg">
<path d="M11 1.3335L10 0.333496L9 1.3335L8 0.333496L7 1.3335L6 0.333496L5 1.3335L4 0.333496L3 1.3335L2 0.333496V9.66683H0V11.6668C0 12.7735 0.893333 13.6668 2 13.6668H10C11.1067 13.6668 12 12.7735 12 11.6668V0.333496L11 1.3335ZM8 12.3335H2C1.63333 12.3335 1.33333 12.0335 1.33333 11.6668V11.0002H8V12.3335ZM10.6667 11.6668C10.6667 12.0335 10.3667 12.3335 10 12.3335C9.63333 12.3335 9.33333 12.0335 9.33333 11.6668V9.66683H3.33333V2.3335H10.6667V11.6668Z" fill="#08C0A6"/>
<path d="M8 3.66683H4V5.00016H8V3.66683Z" fill="#08C0A6"/>
<path d="M10 3.66683H8.66667V5.00016H10V3.66683Z" fill="#08C0A6"/>
<path d="M8 5.66683H4V7.00016H8V5.66683Z" fill="#08C0A6"/>
<path d="M10 5.66683H8.66667V7.00016H10V5.66683Z" fill="#08C0A6"/>
</svg>
