<svg width="12" height="12" viewBox="0 0 12 12" fill="none" xmlns="http://www.w3.org/2000/svg">
<path d="M5.48443 12C5.60399 12 5.71856 11.9825 5.82815 11.9475C5.93773 11.9125 6.04234 11.845 6.14197 11.745L11.746 6.12C11.8456 6.02 11.9128 5.915 11.9477 5.805C11.9826 5.695 12 5.58 12 5.46V0.9C12 0.64 11.9153 0.425 11.746 0.255C11.5766 0.085 11.3624 0 11.1034 0H6.5604C6.44085 0 6.3213 0.0175001 6.20174 0.0525001C6.08219 0.0875001 5.9726 0.155 5.87298 0.255L0.298879 5.85C0.0996264 6.05 0 6.2725 0 6.5175C0 6.7625 0.0996264 6.985 0.298879 7.185L4.84184 11.745C4.92154 11.825 5.01868 11.8875 5.13325 11.9325C5.24782 11.9775 5.36488 12 5.48443 12ZM5.45455 11.13L0.911582 6.57L6.5604 0.9H11.1034V5.46L5.45455 11.13ZM9.53425 3.24C9.32503 3.24 9.14321 3.1625 8.98879 3.0075C8.83437 2.8525 8.75716 2.67 8.75716 2.46C8.75716 2.25 8.83437 2.0675 8.98879 1.9125C9.14321 1.7575 9.32503 1.68 9.53425 1.68C9.74346 1.68 9.92528 1.7575 10.0797 1.9125C10.2341 2.0675 10.3113 2.25 10.3113 2.46C10.3113 2.67 10.2341 2.8525 10.0797 3.0075C9.92528 3.1625 9.74346 3.24 9.53425 3.24Z" fill="#757575"/>
</svg>
