<svg width="12" height="4" viewBox="0 0 12 4" fill="current" xmlns="http://www.w3.org/2000/svg">
<path d="M1.99996 0.666626C1.26663 0.666626 0.666626 1.26663 0.666626 1.99996C0.666626 2.73329 1.26663 3.33329 1.99996 3.33329C2.73329 3.33329 3.33329 2.73329 3.33329 1.99996C3.33329 1.26663 2.73329 0.666626 1.99996 0.666626ZM9.99996 0.666626C9.26663 0.666626 8.66663 1.26663 8.66663 1.99996C8.66663 2.73329 9.26663 3.33329 9.99996 3.33329C10.7333 3.33329 11.3333 2.73329 11.3333 1.99996C11.3333 1.26663 10.7333 0.666626 9.99996 0.666626ZM5.99996 0.666626C5.26663 0.666626 4.66663 1.26663 4.66663 1.99996C4.66663 2.73329 5.26663 3.33329 5.99996 3.33329C6.73329 3.33329 7.33329 2.73329 7.33329 1.99996C7.33329 1.26663 6.73329 0.666626 5.99996 0.666626Z" fill="#4A4A4A"/>
</svg>
