<svg width="19" height="25" viewBox="0 0 19 25" fill="none" xmlns="http://www.w3.org/2000/svg">
<path fill-rule="evenodd" clip-rule="evenodd" d="M15.3327 8.33329H16.4993C17.7827 8.33329 18.8327 9.38329 18.8327 10.6666V22.3333C18.8327 23.6166 17.7827 24.6666 16.4993 24.6666H2.49935C1.21602 24.6666 0.166016 23.6166 0.166016 22.3333V10.6666C0.166016 9.38329 1.21602 8.33329 2.49935 8.33329H12.9993V5.99996C12.9993 4.06329 11.436 2.49996 9.49935 2.49996C7.56268 2.49996 5.99935 4.06329 5.99935 5.99996H3.66602C3.66602 2.77996 6.27935 0.166626 9.49935 0.166626C12.7193 0.166626 15.3327 2.77996 15.3327 5.99996V8.33329ZM7.16602 16.5C7.16602 17.7886 8.21068 18.8333 9.49935 18.8333C10.788 18.8333 11.8327 17.7886 11.8327 16.5C11.8327 15.2113 10.788 14.1666 9.49935 14.1666C8.21068 14.1666 7.16602 15.2113 7.16602 16.5Z" fill="#2C50FF"/>
</svg>
