<svg width="83" height="111" viewBox="0 0 83 111" fill="none" xmlns="http://www.w3.org/2000/svg">
<g clip-path="url(#clip0_1067_32123)">
<path d="M25.8571 44.6274C37.8553 42.1139 49.7455 44.0689 58.3536 47.7714C67.0504 51.5569 72.4651 57.09 73.5591 63.6462C74.667 70.266 71.4985 77.1291 66.5325 84.1637C61.4861 91.1125 54.6451 98.2301 46.5438 103.343C30.945 113.856 11.6931 109.717 1.08245 90.9356C-9.51983 72.279 1.14062 49.1706 25.8571 44.6274Z" fill="#EAF4FE"/>
<path d="M40.3634 104.789C40.3256 103.774 40.2722 102.419 40.2344 101.404C40.2611 102.101 40.3345 103.987 40.3634 104.711C40.3634 104.738 40.3634 104.763 40.3634 104.789Z" fill="#FFC910"/>
<path d="M68.3786 99.9799C68.4253 101.228 68.472 102.479 68.521 103.727C68.5566 104.683 67.3039 105.689 64.7096 106.557C59.1071 108.43 49.3772 108.943 42.9782 107.699C39.5406 107.033 37.7628 105.995 37.7205 104.887L37.5781 101.139C37.6204 102.246 39.3982 103.283 42.8358 103.952C49.2348 105.193 58.9647 104.683 64.5672 102.808C67.1615 101.944 68.4142 100.935 68.3786 99.9799Z" fill="#FFAB01"/>
<path d="M63.1211 97.1678C69.5224 98.4095 70.1699 100.935 64.5674 102.81C58.9649 104.685 49.235 105.196 42.836 103.954C36.4347 102.712 35.7894 100.187 41.3897 98.314C46.9922 96.4392 56.7199 95.926 63.1211 97.1678ZM44.5759 103.37C49.878 104.398 57.9369 103.974 62.576 102.424C67.2173 100.871 66.6811 98.7805 61.379 97.7498C56.0791 96.7213 48.0202 97.1455 43.3789 98.6961C38.7398 100.251 39.276 102.341 44.5759 103.37Z" fill="#FFC910"/>
<path d="M61.3793 97.752C66.6815 98.7805 67.2177 100.873 62.5764 102.426C57.9373 103.979 49.8784 104.403 44.5762 103.372C39.2763 102.344 38.7401 100.251 43.3814 98.6983C48.0205 97.1456 56.0794 96.7235 61.3793 97.752Z" fill="#FFAB01"/>
<path d="M43.3802 99.165C48.0215 97.6123 56.0804 97.188 61.3803 98.2165C64.0191 98.7296 65.4765 99.5026 65.7034 100.345C65.9682 99.3294 64.5019 98.3542 61.3803 97.75C56.0804 96.7215 48.0215 97.1458 43.3802 98.6963C41.0484 99.476 40.0249 100.391 40.2541 101.242C40.441 100.533 41.4711 99.8048 43.3802 99.165Z" fill="#F99B0F"/>
<path d="M39.0488 102.774V106.446C39.9277 106.933 41.2404 107.364 42.9759 107.701C44.6914 108.035 46.6494 108.241 48.7008 108.328V104.587C46.5982 104.503 44.5913 104.294 42.8335 103.954C41.1893 103.634 39.9255 103.23 39.0488 102.774Z" fill="#F99B0F"/>
<path d="M59.2062 98.9182L57.8023 99.3869C58.3607 99.5424 58.6277 99.729 58.5921 99.9466C58.561 100.164 58.2317 100.389 57.6109 100.622L56.1647 100.342C56.5118 100.209 56.6653 100.08 56.6186 99.9555C56.5763 99.8289 56.3404 99.7245 55.9132 99.6423C55.4571 99.5535 54.9676 99.5246 54.447 99.5535C53.9263 99.5823 53.4635 99.6645 53.0541 99.8023C52.9051 99.8511 52.7938 99.9022 52.7159 99.9533C52.6403 100.004 52.6047 100.055 52.6047 100.109C52.598 100.218 52.8583 100.355 53.3901 100.526C53.7083 100.629 53.9352 100.709 54.0776 100.771C54.5694 100.984 54.7852 101.199 54.7206 101.419C54.6561 101.637 54.3224 101.848 53.715 102.05C52.9473 102.308 52.0685 102.481 51.0761 102.572C50.0882 102.663 49.1849 102.654 48.375 102.543L46.6862 103.108L45.3379 102.846L46.9599 102.304C46.2479 102.115 45.9053 101.888 45.9364 101.628C45.9653 101.368 46.3658 101.106 47.1401 100.846L48.533 101.117C48.039 101.299 47.8143 101.462 47.8543 101.61C47.8922 101.757 48.2014 101.888 48.7799 101.999C49.3073 102.101 49.868 102.137 50.4643 102.104C51.0606 102.07 51.5901 101.975 52.0618 101.817C52.2287 101.761 52.3644 101.706 52.4667 101.653C52.5691 101.597 52.6358 101.546 52.6692 101.499C52.7716 101.342 52.529 101.164 51.9461 100.968C51.8504 100.935 51.7792 100.913 51.7325 100.895C51.0183 100.646 50.6467 100.415 50.6111 100.195C50.5755 99.9777 50.8803 99.7623 51.5211 99.5468C52.2198 99.3136 53.0096 99.1581 53.8907 99.0825C54.7718 99.007 55.6307 99.0203 56.4673 99.1225L57.8579 98.6583L59.2062 98.9182Z" fill="#F99B0F"/>
<path d="M59.2062 98.3917L57.8023 98.8626C58.3607 99.0181 58.6277 99.2047 58.5921 99.4224C58.561 99.6401 58.2317 99.8645 57.6109 100.098L56.1647 99.8178C56.5118 99.6845 56.6653 99.5557 56.6186 99.4313C56.5763 99.3047 56.3404 99.2003 55.9132 99.1181C55.4571 99.0292 54.9676 99.0004 54.447 99.0292C53.9263 99.0581 53.4635 99.1403 53.0541 99.278C52.9051 99.3291 52.7938 99.378 52.7159 99.4291C52.6403 99.4802 52.6047 99.5313 52.6047 99.5846C52.598 99.6934 52.8583 99.8312 53.3901 100.002C53.7083 100.104 53.9352 100.184 54.0776 100.247C54.5694 100.462 54.7852 100.677 54.7206 100.895C54.6561 101.113 54.3224 101.322 53.715 101.526C52.9473 101.784 52.0685 101.957 51.0761 102.048C50.0882 102.139 49.1849 102.128 48.375 102.019L46.6862 102.583L45.3379 102.321L46.9599 101.777C46.2479 101.588 45.9053 101.364 45.9364 101.104C45.9653 100.844 46.3658 100.582 47.1401 100.322L48.533 100.593C48.039 100.775 47.8143 100.937 47.8543 101.086C47.8922 101.233 48.2014 101.364 48.7799 101.475C49.3073 101.577 49.868 101.613 50.4643 101.577C51.0606 101.544 51.5901 101.448 52.0618 101.291C52.2287 101.235 52.3644 101.18 52.4667 101.126C52.5691 101.073 52.6358 101.02 52.6692 100.973C52.7716 100.815 52.529 100.638 51.9461 100.442C51.8504 100.411 51.7792 100.386 51.7325 100.369C51.0183 100.12 50.6467 99.8889 50.6111 99.6712C50.5755 99.4535 50.8803 99.2358 51.5211 99.0204C52.2198 98.7871 53.0096 98.6316 53.8907 98.5561C54.7718 98.4806 55.6307 98.4939 56.4673 98.5961L57.8579 98.1318L59.2062 98.3917Z" fill="#FFC910"/>
<path d="M38.3322 99.8563C38.2944 98.8411 38.2432 97.4883 38.2031 96.4731C38.2298 97.1707 38.3033 99.0566 38.3322 99.7808C38.3322 99.8052 38.3322 99.8296 38.3322 99.8563Z" fill="#FFC910"/>
<path d="M66.3493 95.0469C66.396 96.2953 66.4427 97.5459 66.4917 98.7943C66.5273 99.7495 65.2746 100.756 62.6803 101.624C57.0778 103.497 47.3479 104.01 40.9489 102.768C37.5113 102.102 35.7335 101.065 35.6912 99.9561L35.5488 96.2086C35.5911 97.3171 37.3689 98.3545 40.8065 99.0209C47.2077 100.263 56.9376 99.7517 62.5379 97.8769C65.13 97.0083 66.3849 96.0021 66.3493 95.0469Z" fill="#FFAB01"/>
<path d="M61.0911 92.2345C67.4924 93.4762 68.1399 96.0019 62.5373 97.8745C56.9348 99.7494 47.205 100.26 40.8059 99.0185C34.4069 97.7768 33.7594 95.2511 39.3597 93.3763C44.9622 91.5036 54.6898 90.9927 61.0911 92.2345ZM42.5458 98.4365C47.848 99.465 55.9069 99.0407 60.546 97.4902C65.1873 95.9375 64.6511 93.8472 59.3489 92.8165C54.049 91.788 45.9901 92.2123 41.3488 93.7628C36.7097 95.3155 37.2459 97.408 42.5458 98.4365Z" fill="#FFC910"/>
<path d="M59.3484 92.8168C64.6506 93.8453 65.1868 95.9378 60.5455 97.4905C55.9042 99.041 47.8453 99.4675 42.5454 98.4368C37.2454 97.4083 36.7092 95.3158 41.3483 93.7653C45.9896 92.2126 54.0485 91.7883 59.3484 92.8168Z" fill="#FFAB01"/>
<path d="M41.3489 94.2314C45.9902 92.6787 54.0491 92.2544 59.349 93.2829C61.9878 93.7938 63.4452 94.5691 63.6721 95.4109C63.9369 94.3958 62.4706 93.4206 59.349 92.8164C54.0491 91.7879 45.9902 92.2122 41.3489 93.7627C39.0193 94.5424 37.9936 95.4576 38.2228 96.3062C38.4097 95.5998 39.4398 94.8689 41.3489 94.2314Z" fill="#F99B0F"/>
<path d="M37.0176 97.8389V101.511C37.8964 101.997 39.2092 102.43 40.9447 102.766C42.6601 103.099 44.6159 103.306 46.6673 103.394V99.6537C44.5647 99.5693 42.5578 99.3605 40.8001 99.0206C39.158 98.7008 37.8942 98.2965 37.0176 97.8389Z" fill="#F99B0F"/>
<path d="M57.175 93.9847L55.7688 94.4557C56.3295 94.6112 56.5942 94.7977 56.5609 95.0154C56.5297 95.2331 56.2004 95.4597 55.5796 95.6907L54.1334 95.4108C54.4805 95.2798 54.634 95.1509 54.5873 95.0243C54.545 94.8977 54.3092 94.7933 53.882 94.7111C53.4259 94.6223 52.9364 94.5934 52.4157 94.6223C51.8973 94.6511 51.4323 94.7333 51.0229 94.8711C50.8738 94.9221 50.7626 94.971 50.6869 95.0221C50.6113 95.0732 50.5734 95.1243 50.5734 95.1776C50.5668 95.2864 50.8293 95.4242 51.3589 95.5952C51.677 95.6974 51.904 95.7774 52.0464 95.8396C52.5381 96.0528 52.7561 96.2705 52.6894 96.4882C52.6249 96.7059 52.2911 96.9147 51.6837 97.1191C50.9161 97.3767 50.035 97.55 49.0449 97.6411C48.057 97.7322 47.1536 97.7211 46.3415 97.6122L44.655 98.1764L43.3066 97.9143L44.9287 97.3723C44.2167 97.1835 43.874 96.9591 43.9052 96.697C43.9319 96.4371 44.3346 96.1772 45.1089 95.9151L46.5017 96.1861C46.01 96.366 45.783 96.5304 45.8231 96.677C45.8631 96.8236 46.1702 96.9547 46.7487 97.0658C47.276 97.1679 47.8367 97.2035 48.433 97.1702C49.0271 97.1368 49.5588 97.0413 50.0305 96.8836C50.1974 96.8281 50.3331 96.7725 50.4355 96.7192C50.5378 96.6659 50.6046 96.6126 50.638 96.5659C50.7381 96.4082 50.4978 96.2305 49.9148 96.035C49.8192 96.0039 49.748 95.9795 49.7012 95.964C48.987 95.7152 48.6155 95.4841 48.5821 95.2642C48.5465 95.0465 48.8513 94.8288 49.4921 94.6156C50.1907 94.3824 50.9806 94.2269 51.8617 94.1513C52.7428 94.0758 53.6016 94.0891 54.4382 94.1913L55.8288 93.7271L57.175 93.9847Z" fill="#F99B0F"/>
<path d="M57.1751 93.4586L55.7689 93.9295C56.3296 94.085 56.5944 94.2716 56.561 94.4893C56.5298 94.707 56.2005 94.9314 55.5798 95.1646L54.1335 94.8847C54.4806 94.7537 54.6342 94.6226 54.5874 94.4982C54.5452 94.3716 54.3093 94.2672 53.8821 94.1828C53.426 94.0939 52.9365 94.065 52.4158 94.0939C51.8974 94.1228 51.4324 94.205 51.023 94.3427C50.8739 94.3938 50.7627 94.4427 50.687 94.4938C50.6114 94.5449 50.5736 94.5959 50.5736 94.6493C50.5669 94.7581 50.8294 94.8958 51.359 95.0669C51.6771 95.1691 51.9041 95.249 52.0465 95.3112C52.5382 95.5267 52.7563 95.7422 52.6895 95.9599C52.625 96.1776 52.2912 96.3864 51.6838 96.5907C50.9162 96.8484 50.0351 97.0217 49.045 97.1127C48.0571 97.2038 47.1538 97.1927 46.3416 97.0839L44.6551 97.6481L43.3068 97.386L44.9288 96.844C44.2168 96.6551 43.8741 96.4286 43.9053 96.1687C43.932 95.9088 44.3347 95.6489 45.109 95.3867L46.5018 95.6578C46.0101 95.8399 45.7832 96.0021 45.8232 96.1509C45.8633 96.2975 46.1703 96.4286 46.7488 96.5396C47.2761 96.6418 47.8368 96.6774 48.4331 96.644C49.0272 96.6107 49.559 96.5152 50.0307 96.3575C50.1975 96.302 50.3333 96.2464 50.4356 96.1931C50.538 96.1398 50.6047 96.0887 50.6381 96.0398C50.7382 95.8821 50.4979 95.7044 49.915 95.5089C49.8193 95.4778 49.7481 95.4534 49.7014 95.4378C48.9871 95.189 48.6156 94.958 48.5822 94.7403C48.5466 94.5226 48.8514 94.3049 49.4922 94.0917C50.1909 93.8585 50.9807 93.703 51.8618 93.6274C52.7429 93.5519 53.6018 93.5652 54.4384 93.6674L55.829 93.2031L57.1751 93.4586Z" fill="#FFC910"/>
<path d="M40.7951 94.5802C40.7572 93.565 40.7061 92.2122 40.666 91.1948C40.6927 91.8923 40.7661 93.7783 40.7951 94.5002C40.7951 94.5291 40.7951 94.5535 40.7951 94.5802Z" fill="#FFC910"/>
<path d="M68.8105 89.771C68.8572 91.0216 68.9039 92.27 68.9507 93.5184C68.9863 94.4736 67.7336 95.4799 65.1393 96.3484C59.5368 98.2211 49.8069 98.7342 43.4078 97.4925C39.9702 96.826 38.1925 95.7887 38.1502 94.6802L38.0078 90.9328C38.0501 92.039 39.8278 93.0764 43.2655 93.745C49.6645 94.9868 59.3966 94.4758 64.9969 92.601C67.5912 91.7325 68.8461 90.7262 68.8105 89.771Z" fill="#FFAB01"/>
<path d="M63.5528 86.9585C69.9518 88.2002 70.6015 90.7259 64.999 92.5985C59.3965 94.4733 49.6667 94.9843 43.2676 93.7425C36.8663 92.5008 36.2211 89.9751 41.8214 88.1025C47.4239 86.2277 57.1515 85.7167 63.5528 86.9585ZM45.0075 93.1605C50.3097 94.189 58.3686 93.7647 63.0099 92.2142C67.649 90.6615 67.115 88.569 61.8128 87.5405C56.5129 86.512 48.454 86.9363 43.8127 88.489C39.1714 90.0395 39.7054 92.132 45.0075 93.1605Z" fill="#FFC910"/>
<path d="M61.8104 87.541C67.1126 88.5695 67.6466 90.662 63.0075 92.2148C58.3661 93.7653 50.3072 94.1918 45.0051 93.1611C39.703 92.1326 39.169 90.04 43.8081 88.4873C48.4516 86.9368 56.5105 86.5125 61.8104 87.541Z" fill="#FFAB01"/>
<path d="M43.8098 88.9556C48.4512 87.4029 56.5101 86.9808 61.81 88.0093C64.4488 88.5225 65.9039 89.2977 66.1309 90.1374C66.3957 89.1222 64.9294 88.1493 61.81 87.5428C56.5101 86.5144 48.4512 86.9386 43.8098 88.4914C41.4781 89.2711 40.4546 90.1863 40.6837 91.0348C40.8706 90.324 41.9008 89.5932 43.8098 88.9556Z" fill="#F99B0F"/>
<path d="M39.4805 92.563V96.2349C40.3616 96.7214 41.6721 97.1545 43.4098 97.49C45.1253 97.8232 47.081 98.0298 49.1347 98.1164V94.3756C47.0321 94.2912 45.0229 94.0824 43.2674 93.7425C41.6209 93.4249 40.3571 93.0206 39.4805 92.563Z" fill="#F99B0F"/>
<path d="M59.6365 88.7089L58.2303 89.1798C58.791 89.3353 59.0557 89.5219 59.0201 89.7396C58.989 89.9573 58.6597 90.1816 58.0389 90.4149L56.5927 90.135C56.9398 90.0017 57.0933 89.8728 57.0466 89.7484C57.0021 89.6218 56.7662 89.5174 56.3413 89.4352C55.8851 89.3464 55.3956 89.3175 54.875 89.3464C54.3543 89.3753 53.8915 89.4575 53.4821 89.5952C53.3308 89.6463 53.2218 89.6951 53.1439 89.7462C53.0683 89.7973 53.0305 89.8484 53.0305 89.9017C53.0238 90.0106 53.2863 90.1483 53.8181 90.3193C54.1363 90.4215 54.3632 90.5015 54.5034 90.5637C54.9951 90.7792 55.2132 90.9946 55.1464 91.2123C55.0819 91.43 54.7482 91.641 54.1407 91.8432C53.3731 92.1009 52.4943 92.2741 51.5019 92.3652C50.5118 92.4563 49.6107 92.4452 48.7986 92.3363L47.112 92.9006L45.7637 92.6384L47.3857 92.0964C46.6737 91.9076 46.331 91.681 46.3622 91.4211C46.3889 91.1612 46.7916 90.8991 47.5659 90.6392L48.9588 90.9102C48.4648 91.0902 48.2401 91.2545 48.2801 91.4011C48.3202 91.5477 48.6272 91.6788 49.2057 91.7899C49.7353 91.8921 50.2937 91.9276 50.89 91.8921C51.4863 91.8587 52.0181 91.7654 52.4876 91.6077C52.6545 91.5522 52.7902 91.4967 52.8925 91.4433C52.9949 91.3878 53.0616 91.3367 53.095 91.2901C53.1973 91.1324 52.9548 90.9546 52.3719 90.7592C52.274 90.7281 52.205 90.7036 52.1583 90.6859C51.4463 90.4371 51.0725 90.206 51.0369 89.9884C51.0013 89.7707 51.3061 89.553 51.9469 89.3397C52.6456 89.1065 53.4354 88.951 54.3165 88.8755C55.1976 88.7999 56.0565 88.8133 56.893 88.9154L58.2837 88.4512L59.6365 88.7089Z" fill="#F99B0F"/>
<path d="M59.6365 88.1825L58.2303 88.6512C58.791 88.8067 59.0557 88.9933 59.0201 89.211C58.989 89.4287 58.6597 89.653 58.0389 89.8863L56.5927 89.6064C56.9398 89.4753 57.0933 89.3443 57.0466 89.2199C57.0021 89.0932 56.7662 88.9888 56.3413 88.9066C55.8851 88.8178 55.3956 88.7889 54.875 88.8178C54.3543 88.8467 53.8915 88.9289 53.4821 89.0666C53.3308 89.1177 53.2218 89.1665 53.1439 89.2176C53.0683 89.2687 53.0305 89.3198 53.0305 89.3731C53.0238 89.482 53.2863 89.6197 53.8181 89.7907C54.1363 89.8907 54.3632 89.9729 54.5034 90.0351C54.9951 90.2484 55.2132 90.466 55.1464 90.6837C55.0819 90.9014 54.7482 91.1102 54.1407 91.3146C53.3731 91.5723 52.4943 91.7455 51.5019 91.8388C50.5118 91.9299 49.6107 91.9188 48.7986 91.81L47.112 92.3742L45.7637 92.1121L47.3857 91.5701C46.6737 91.3812 46.331 91.1547 46.3622 90.8948C46.3889 90.6349 46.7916 90.375 47.5659 90.1128L48.9588 90.3839C48.4648 90.5638 48.2401 90.7282 48.2801 90.877C48.3202 91.0236 48.6272 91.1524 49.2057 91.2657C49.7353 91.3679 50.2937 91.4035 50.89 91.3679C51.4863 91.3346 52.0181 91.2391 52.4876 91.0814C52.6545 91.0258 52.7902 90.9703 52.8925 90.917C52.9949 90.8637 53.0616 90.8104 53.095 90.7637C53.1973 90.606 52.9548 90.4283 52.3719 90.2328C52.274 90.1995 52.205 90.1773 52.1583 90.1595C51.4463 89.9107 51.0725 89.6797 51.0369 89.462C51.0013 89.2443 51.3061 89.0266 51.9469 88.8134C52.6456 88.5801 53.4354 88.4246 54.3165 88.3491C55.1976 88.2736 56.0565 88.2869 56.893 88.3891L58.2837 87.9248L59.6365 88.1825Z" fill="#FFC910"/>
<path d="M40.5529 89.9205C40.5151 88.9053 40.4617 87.5503 40.4238 86.5352C40.4483 87.2327 40.524 89.1186 40.5529 89.8405C40.5507 89.8672 40.5507 89.8939 40.5529 89.9205Z" fill="#FFC910"/>
<path d="M68.5661 85.1113C68.6128 86.3597 68.6618 87.6081 68.7085 88.8588C68.7441 89.814 67.4914 90.8202 64.8993 91.6888C59.2968 93.5614 49.5669 94.0745 43.1657 92.8328C39.7281 92.1664 37.9503 91.129 37.908 90.0205L37.7656 86.2731C37.8079 87.3793 39.5857 88.4167 43.0233 89.0853C49.4245 90.3271 59.1544 89.8162 64.7569 87.9413C67.349 87.0728 68.6017 86.0665 68.5661 85.1113Z" fill="#FFAB01"/>
<path d="M63.3062 82.2992C69.7075 83.5409 70.355 86.0666 64.7524 87.9415C59.1499 89.8141 49.4201 90.3272 43.0188 89.0855C36.6197 87.8437 35.9723 85.318 41.5726 83.4454C47.1773 81.5684 56.9049 81.0574 63.3062 82.2992ZM44.761 88.5012C50.0631 89.5297 58.122 89.1055 62.7633 87.5549C67.4046 86.0022 66.8684 83.9119 61.5663 82.8812C56.2664 81.8527 48.2075 82.277 43.5661 83.8297C38.9248 85.3802 39.461 87.4727 44.761 88.5012Z" fill="#FFC910"/>
<path d="M61.5675 82.8809C66.8696 83.9093 67.4058 86.0019 62.7645 87.5546C58.1232 89.1073 50.0643 89.5316 44.7622 88.5009C39.4622 87.4724 38.926 85.3799 43.5651 83.8271C48.2087 82.2766 56.2675 81.8524 61.5675 82.8809Z" fill="#FFAB01"/>
<path d="M43.5677 84.294C48.209 82.7435 56.2679 82.3192 61.5678 83.3477C64.2066 83.8586 65.664 84.6339 65.8909 85.4758C66.1557 84.4606 64.6894 83.4854 61.5678 82.8812C56.2679 81.8527 48.209 82.277 43.5677 83.8297C41.2359 84.6094 40.2124 85.5246 40.4416 86.3732C40.6262 85.6624 41.6586 84.9338 43.5677 84.294Z" fill="#F99B0F"/>
<path d="M39.2383 87.9033V91.5752C40.1172 92.0617 41.4299 92.4927 43.1654 92.8303C44.8808 93.1635 46.8388 93.3701 48.8903 93.4567V89.716C46.7877 89.6315 44.7807 89.425 43.023 89.0829C41.3765 88.763 40.1149 88.3587 39.2383 87.9033Z" fill="#F99B0F"/>
<path d="M59.3934 84.0494L57.9895 84.5182C58.5502 84.6737 58.8149 84.8602 58.7793 85.0779C58.7482 85.2956 58.4211 85.5222 57.7981 85.7532L56.3519 85.4733C56.7012 85.3423 56.8525 85.2112 56.808 85.0868C56.7635 84.9602 56.5277 84.8558 56.1027 84.7736C55.6466 84.6848 55.1571 84.6559 54.6364 84.6848C54.118 84.7136 53.653 84.7958 53.2436 84.9336C53.0945 84.9846 52.9833 85.0335 52.9054 85.0846C52.8297 85.1357 52.7941 85.1868 52.7941 85.2401C52.7875 85.3489 53.0478 85.4867 53.5796 85.6577C53.8977 85.7577 54.1247 85.8399 54.2649 85.9021C54.7588 86.1175 54.9746 86.333 54.9101 86.5507C54.8456 86.7684 54.5118 86.9794 53.9044 87.1816C53.1368 87.4392 52.2557 87.6125 51.2656 87.7036C50.2777 87.7947 49.3743 87.7836 48.5622 87.6747L46.8757 88.2389L45.5273 87.9768L47.1494 87.4348C46.4374 87.246 46.0947 87.0216 46.1236 86.7595C46.1526 86.4996 46.5531 86.2397 47.3274 85.9776L48.7202 86.2486C48.2262 86.4285 48.0015 86.5929 48.0416 86.7395C48.0816 86.8861 48.3887 87.0172 48.9672 87.1283C49.4945 87.2304 50.0552 87.266 50.6515 87.2304C51.2456 87.1971 51.7773 87.1038 52.249 86.9461C52.4159 86.8906 52.5516 86.835 52.654 86.7817C52.7585 86.7262 52.8231 86.6751 52.8564 86.6285C52.9588 86.4707 52.7185 86.293 52.1333 86.0975C52.0376 86.0664 51.9664 86.042 51.9197 86.0265C51.2055 85.7777 50.8339 85.5466 50.8006 85.329C50.765 85.1113 51.0676 84.8936 51.7106 84.6803C52.4092 84.4471 53.1991 84.2916 54.0802 84.2161C54.9591 84.1405 55.8201 84.1539 56.6567 84.256L58.0473 83.7896L59.3934 84.0494Z" fill="#F99B0F"/>
<path d="M59.3934 83.523L57.9895 83.9917C58.5502 84.1472 58.8149 84.3338 58.7793 84.5515C58.7482 84.7692 58.4211 84.9958 57.7981 85.2268L56.3519 84.9469C56.7012 84.8136 56.8525 84.6848 56.808 84.5604C56.7635 84.4338 56.5277 84.3294 56.1027 84.2472C55.6466 84.1583 55.1571 84.1295 54.6364 84.1583C54.118 84.1872 53.653 84.2694 53.2436 84.4071C53.0945 84.4582 52.9833 84.5071 52.9054 84.5582C52.8297 84.6093 52.7941 84.6604 52.7941 84.7137C52.7875 84.8225 53.0478 84.9603 53.5796 85.1313C53.8977 85.2313 54.1247 85.3135 54.2649 85.3757C54.7588 85.5889 54.9746 85.8066 54.9101 86.0243C54.8456 86.242 54.5118 86.453 53.9044 86.6552C53.1368 86.9106 52.2557 87.0861 51.2656 87.1772C50.2777 87.2683 49.3743 87.2571 48.5622 87.1483L46.8757 87.7125L45.5273 87.4504L47.1494 86.9084C46.4374 86.7196 46.0947 86.493 46.1236 86.2331C46.1526 85.9732 46.5531 85.7133 47.3274 85.4512L48.7202 85.7222C48.2262 85.9021 48.0015 86.0665 48.0416 86.2153C48.0816 86.3619 48.3887 86.493 48.9672 86.6041C49.4945 86.7063 50.0552 86.7418 50.6515 86.7085C51.2456 86.6752 51.7773 86.5796 52.249 86.4219C52.4159 86.3664 52.5516 86.3108 52.654 86.2575C52.7585 86.2042 52.8231 86.1531 52.8564 86.1043C52.9588 85.9443 52.7185 85.7688 52.1333 85.5734C52.0376 85.5423 51.9664 85.5178 51.9197 85.5023C51.2055 85.2535 50.8339 85.0225 50.8006 84.8048C50.765 84.5871 51.0676 84.3694 51.7106 84.1561C52.4092 83.9229 53.1991 83.7674 54.0802 83.6919C54.9591 83.6163 55.8201 83.6297 56.6567 83.7318L58.0473 83.2676L59.3934 83.523Z" fill="#FFC910"/>
<path d="M42.3068 85.2335C42.2667 84.2183 42.2178 82.8633 42.1777 81.8481C42.2044 82.5457 42.2779 84.4316 42.3068 85.1558C42.3046 85.1802 42.3046 85.2068 42.3068 85.2335Z" fill="#FFC910"/>
<path d="M70.3197 80.4238C70.3687 81.6745 70.4154 82.9229 70.4621 84.1713C70.4977 85.1265 69.2451 86.1327 66.6507 87.0013C61.0482 88.8739 51.3184 89.387 44.9193 88.1431C41.4817 87.4767 39.7039 86.4393 39.6617 85.3308L39.5215 81.5834C39.5638 82.6896 41.3415 83.727 44.7791 84.3956C51.1782 85.6374 60.9103 85.1265 66.5106 83.2516C69.1027 82.3853 70.3575 81.379 70.3197 80.4238Z" fill="#FFAB01"/>
<path d="M65.0615 77.6119C71.4628 78.8537 72.1102 81.3793 66.5077 83.252C60.9052 85.1268 51.1754 85.6377 44.7763 84.396C38.375 83.1542 37.7276 80.6285 43.3301 78.7537C48.9326 76.8811 58.6602 76.3702 65.0615 77.6119ZM46.5185 83.814C51.8206 84.8424 59.8795 84.4182 64.5208 82.8677C69.1599 81.3149 68.6259 79.2246 63.3238 78.1939C58.0239 77.1654 49.965 77.5897 45.3237 79.1424C40.6823 80.6929 41.2163 82.7855 46.5185 83.814Z" fill="#FFC910"/>
<path d="M63.3233 78.1938C68.6255 79.2223 69.1617 81.3148 64.5204 82.8676C59.879 84.4203 51.8202 84.8446 46.518 83.8139C41.2181 82.7854 40.6819 80.6929 45.321 79.1401C49.9645 77.5896 58.0234 77.1653 63.3233 78.1938Z" fill="#FFAB01"/>
<path d="M45.3238 79.607C49.9651 78.0543 58.024 77.6322 63.3239 78.6607C65.9627 79.1738 67.4179 79.9491 67.647 80.7888C67.9118 79.7736 66.4455 78.7984 63.3239 78.1942C58.024 77.1657 49.9651 77.59 45.3238 79.1427C42.9942 79.9224 41.9685 80.8376 42.1999 81.6862C42.3823 80.9776 43.4147 80.2468 45.3238 79.607Z" fill="#F99B0F"/>
<path d="M40.9922 83.2163V86.8882C41.8733 87.3747 43.1838 87.8079 44.9193 88.1433C46.637 88.4765 48.5927 88.6831 50.6442 88.7719V85.0312C48.5416 84.9467 46.5346 84.7379 44.7769 84.3981C43.1326 84.0782 41.8688 83.6739 40.9922 83.2163Z" fill="#F99B0F"/>
<path d="M61.1476 79.3622L59.7414 79.8331C60.3021 79.9886 60.5669 80.1752 60.5335 80.3929C60.5024 80.6106 60.1753 80.8349 59.5523 81.0682L58.1061 80.7883C58.4532 80.655 58.6067 80.5262 58.56 80.4018C58.5177 80.2752 58.2818 80.1707 57.8546 80.0886C57.3963 79.9997 56.909 79.9708 56.3884 79.9997C55.87 80.0286 55.4049 80.1108 54.9955 80.2485C54.8465 80.2996 54.7352 80.3485 54.6573 80.3995C54.5817 80.4506 54.5439 80.5017 54.5439 80.555C54.5372 80.6639 54.7997 80.8038 55.3293 80.9727C55.6475 81.0748 55.8744 81.1548 56.0168 81.217C56.5085 81.4325 56.7266 81.648 56.6598 81.8656C56.5953 82.0833 56.2616 82.2921 55.6541 82.4965C54.8865 82.7542 54.0054 82.9275 53.0153 83.0185C52.0274 83.1096 51.1241 83.0985 50.3142 82.9897L48.6276 83.5539L47.2793 83.2918L48.9013 82.7497C48.1893 82.5609 47.8467 82.3344 47.8778 82.0745C47.9045 81.8146 48.3072 81.5524 49.0815 81.2925L50.4744 81.5635C49.9827 81.7435 49.7557 81.9079 49.7958 82.0545C49.8358 82.2011 50.1429 82.3321 50.7213 82.4432C51.2487 82.5454 51.8094 82.5809 52.4057 82.5454C52.9997 82.5121 53.5315 82.4165 54.0032 82.2588C54.1701 82.2033 54.3058 82.1478 54.4081 82.0944C54.5105 82.0389 54.5772 81.9878 54.6106 81.9412C54.713 81.7835 54.4704 81.6057 53.8875 81.4103C53.7918 81.3792 53.7206 81.3547 53.6739 81.3392C52.9597 81.0904 52.5881 80.8594 52.5547 80.6417C52.5191 80.424 52.824 80.2063 53.4648 79.993C54.1634 79.7598 54.9533 79.6043 55.8344 79.5288C56.7155 79.4532 57.5743 79.4666 58.4109 79.5688L59.8015 79.1045L61.1476 79.3622Z" fill="#F99B0F"/>
<path d="M61.1476 78.8355L59.7414 79.3065C60.3021 79.462 60.5669 79.6486 60.5335 79.8662C60.5024 80.0839 60.1753 80.3105 59.5523 80.5415L58.1061 80.2617C58.4532 80.1284 58.6067 79.9995 58.56 79.8751C58.5177 79.7485 58.2818 79.6441 57.8546 79.5619C57.3963 79.4731 56.909 79.4442 56.3884 79.4731C55.87 79.5042 55.4049 79.5841 54.9955 79.7219C54.8465 79.773 54.7352 79.8218 54.6573 79.8729C54.5817 79.924 54.5439 79.9751 54.5439 80.0284C54.5372 80.1373 54.7997 80.275 55.3293 80.446C55.6475 80.5482 55.8744 80.6282 56.0168 80.6904C56.5085 80.9058 56.7266 81.1213 56.6598 81.339C56.5953 81.5567 56.2616 81.7677 55.6541 81.9699C54.8865 82.2276 54.0054 82.4008 53.0153 82.4941C52.0274 82.5852 51.1241 82.5741 50.3142 82.4652L48.6276 83.0295L47.2793 82.7674L48.9013 82.2253C48.1893 82.0365 47.8467 81.8099 47.8778 81.55C47.9045 81.2901 48.3072 81.028 49.0815 80.7681L50.4744 81.0391C49.9827 81.2191 49.7557 81.3834 49.7958 81.5301C49.8358 81.6767 50.1429 81.8077 50.7213 81.9188C51.2487 82.021 51.8094 82.0565 52.4057 82.0232C52.9997 81.9899 53.5315 81.8944 54.0032 81.7366C54.1701 81.6811 54.3058 81.6256 54.4081 81.5723C54.5105 81.5167 54.5772 81.4656 54.6106 81.419C54.713 81.2613 54.4704 81.0836 53.8875 80.8881C53.7918 80.857 53.7206 80.8325 53.6739 80.817C52.9597 80.5682 52.5881 80.3372 52.5547 80.1195C52.5191 79.9018 52.824 79.6841 53.4648 79.4708C54.1634 79.2376 54.9533 79.0821 55.8344 79.0066C56.7155 78.9311 57.5743 78.9444 58.4109 79.0466L59.8015 78.5801L61.1476 78.8355Z" fill="#FFC910"/>
<path d="M38.3322 80.5759C38.2943 79.5607 38.2409 78.2079 38.2031 77.1905C38.2298 77.888 38.3032 79.774 38.3322 80.4959C38.3322 80.5248 38.3322 80.5492 38.3322 80.5759Z" fill="#FFC910"/>
<path d="M66.349 75.7662C66.3957 77.0168 66.4447 78.2652 66.4914 79.5136C66.527 80.4688 65.2744 81.4751 62.68 82.3436C57.0775 84.2163 47.3476 84.7294 40.9486 83.4876C37.511 82.8212 35.7332 81.7839 35.6932 80.6754L35.5508 76.928C35.5931 78.0342 37.3708 79.0716 40.8062 79.7402C47.2075 80.982 56.9373 80.471 62.5376 78.5962C65.132 77.7277 66.3846 76.7214 66.349 75.7662Z" fill="#FFAB01"/>
<path d="M61.0915 72.9541C67.4928 74.1958 68.1402 76.7215 62.5377 78.5963C56.9352 80.469 47.2054 80.9821 40.8063 79.7404C34.405 78.4986 33.7598 75.9729 39.3623 74.0981C44.9626 72.2255 54.6902 71.7123 61.0915 72.9541ZM42.5462 79.1561C47.8484 80.1846 55.9073 79.7603 60.5464 78.2098C65.1877 76.6571 64.6515 74.5668 59.3493 73.5361C54.0494 72.5076 45.9905 72.9319 41.3492 74.4846C36.7101 76.0351 37.2463 78.1276 42.5462 79.1561Z" fill="#FFC910"/>
<path d="M59.3484 73.5361C64.6506 74.5646 65.1868 76.6571 60.5455 78.2098C55.9064 79.7604 47.8453 80.1869 42.5454 79.1561C37.2454 78.1277 36.7092 76.0351 41.3483 74.4846C45.9896 72.9319 54.0485 72.5076 59.3484 73.5361Z" fill="#FFAB01"/>
<path d="M41.347 74.9508C45.9883 73.3981 54.0472 72.976 59.3471 74.0045C61.9859 74.5154 63.441 75.2929 63.6702 76.1326C63.935 75.1174 62.4687 74.1423 59.3471 73.538C54.0472 72.5096 45.9883 72.9338 41.347 74.4866C39.0152 75.2663 37.9917 76.1815 38.2209 77.03C38.4078 76.3192 39.4379 75.5884 41.347 74.9508Z" fill="#F99B0F"/>
<path d="M37.0176 78.5606V82.2325C37.8964 82.719 39.2092 83.15 40.9447 83.4876C42.6601 83.8208 44.6181 84.0274 46.6696 84.1163V80.3755C44.567 80.2911 42.56 80.0823 40.8023 79.7424C39.158 79.4203 37.8942 79.016 37.0176 78.5606Z" fill="#F99B0F"/>
<path d="M57.1747 74.7043L55.7707 75.1752C56.3314 75.3307 56.5962 75.5173 56.5606 75.735C56.5294 75.9527 56.2001 76.1793 55.5794 76.4103L54.1331 76.1304C54.4802 75.9972 54.6315 75.8683 54.5893 75.7439C54.5448 75.6173 54.3089 75.5129 53.8839 75.4307C53.4278 75.3418 52.9383 75.313 52.4177 75.3418C51.8993 75.3707 51.4342 75.4529 51.0248 75.5906C50.8758 75.6417 50.7645 75.6928 50.6866 75.7417C50.611 75.7928 50.5754 75.8439 50.5754 75.8972C50.5687 76.006 50.8313 76.1438 51.363 76.3148C51.6812 76.417 51.9082 76.497 52.0483 76.5592C52.5401 76.7746 52.7559 76.9901 52.6914 77.2078C52.6268 77.4255 52.2931 77.6343 51.6857 77.8387C50.918 78.0963 50.0392 78.2696 49.0468 78.3607C48.0589 78.4518 47.1556 78.4406 46.3435 78.3318L44.6569 78.896L43.3086 78.6339L44.9306 78.0919C44.2186 77.9031 43.876 77.6765 43.9071 77.4166C43.936 77.1567 44.3365 76.8946 45.1108 76.6347L46.5037 76.9035C46.0119 77.0856 45.785 77.2478 45.8251 77.3966C45.8629 77.5432 46.1699 77.6743 46.7484 77.7853C47.2757 77.8875 47.8364 77.9231 48.4327 77.8875C49.0268 77.8542 49.5586 77.7587 50.0303 77.601C50.1971 77.5454 50.3329 77.4899 50.4352 77.4366C50.5398 77.3833 50.6043 77.33 50.6377 77.2833C50.74 77.1256 50.4997 76.9479 49.9146 76.7524C49.8189 76.7213 49.7477 76.6969 49.701 76.6791C48.989 76.4325 48.6152 76.1993 48.5818 75.9816C48.5462 75.7639 48.851 75.5462 49.4918 75.333C50.1905 75.0997 50.9803 74.9442 51.8614 74.8687C52.7425 74.7932 53.6014 74.8065 54.438 74.9087L55.8286 74.4444L57.1747 74.7043Z" fill="#F99B0F"/>
<path d="M57.1747 74.1777L55.7707 74.6486C56.3314 74.8041 56.5962 74.9907 56.5606 75.2084C56.5294 75.4261 56.2001 75.6527 55.5794 75.8837L54.1331 75.6038C54.4802 75.4705 54.6315 75.3417 54.5893 75.2173C54.5448 75.0907 54.3089 74.9863 53.8839 74.9041C53.4278 74.8152 52.9383 74.7863 52.4177 74.8152C51.8993 74.8441 51.4342 74.9263 51.0248 75.064C50.8758 75.1151 50.7645 75.164 50.6866 75.2151C50.611 75.2661 50.5754 75.3172 50.5754 75.3706C50.5687 75.4794 50.8313 75.6171 51.363 75.7882C51.6812 75.8881 51.9082 75.9703 52.0483 76.0325C52.5401 76.248 52.7559 76.4635 52.6914 76.6812C52.6268 76.8989 52.2931 77.1077 51.6857 77.312C50.918 77.5697 50.0392 77.743 49.0468 77.834C48.0589 77.9251 47.1556 77.9162 46.3435 77.8052L44.6569 78.3694L43.3086 78.1073L44.9306 77.5653C44.2186 77.3764 43.876 77.1499 43.9071 76.89C43.936 76.6301 44.3365 76.3679 45.1108 76.108L46.5037 76.3791C46.0119 76.559 45.785 76.7234 45.8251 76.87C45.8629 77.0166 46.1699 77.1476 46.7484 77.2587C47.2757 77.3609 47.8364 77.3964 48.4327 77.3609C49.0268 77.3276 49.5586 77.2343 50.0303 77.0766C50.1971 77.021 50.3329 76.9655 50.4352 76.9122C50.5398 76.8566 50.6043 76.8056 50.6377 76.7589C50.74 76.599 50.4997 76.4235 49.9146 76.228C49.8189 76.1969 49.7477 76.1725 49.701 76.1547C48.989 75.9059 48.6152 75.6749 48.5818 75.4572C48.5462 75.2395 48.851 75.0218 49.4918 74.8085C50.1905 74.5753 50.9803 74.4198 51.8614 74.3443C52.7425 74.2688 53.6014 74.2821 54.438 74.3843L55.8286 73.92L57.1747 74.1777Z" fill="#FFC910"/>
<path d="M40.7951 75.2996C40.755 74.2845 40.7061 72.9294 40.666 71.9165C40.6927 72.614 40.7661 74.4999 40.7951 75.2219C40.7951 75.2485 40.7951 75.273 40.7951 75.2996Z" fill="#FFC910"/>
<path d="M68.8083 70.4907C68.855 71.7391 68.9039 72.9898 68.9507 74.2382C68.9863 75.1933 67.7336 76.1996 65.1393 77.0682C59.5368 78.9408 49.8069 79.4539 43.4056 78.2122C39.9702 77.5458 38.1903 76.5084 38.148 75.3999L38.0078 71.6525C38.0501 72.7587 39.8279 73.7961 43.2655 74.4647C49.6645 75.7065 59.3966 75.1956 64.9991 73.3207C67.5912 72.4544 68.8461 71.4459 68.8083 70.4907Z" fill="#FFAB01"/>
<path d="M63.5527 67.6782C69.9518 68.92 70.6014 71.4456 64.9989 73.3205C59.3964 75.1931 49.6666 75.7062 43.2653 74.4645C36.864 73.2227 36.2188 70.697 41.8213 68.8222C47.4238 66.9474 57.1514 66.4365 63.5527 67.6782ZM45.0075 73.8803C50.3096 74.9087 58.3685 74.4845 63.0076 72.934C67.6489 71.3812 67.1127 69.2909 61.8105 68.2602C56.5106 67.2317 48.4517 67.656 43.8104 69.2065C39.1713 70.7615 39.7075 72.8518 45.0075 73.8803Z" fill="#FFC910"/>
<path d="M61.8094 68.2602C67.1115 69.2887 67.6477 71.3813 63.0064 72.934C58.3673 74.4845 50.3084 74.9088 45.0063 73.8803C39.7064 72.8518 39.1702 70.7593 43.8093 69.2065C48.4506 67.656 56.5095 67.234 61.8094 68.2602Z" fill="#FFAB01"/>
<path d="M43.8098 69.6755C48.4511 68.1227 56.51 67.6985 61.8099 68.7292C64.4488 69.2401 65.9039 70.0153 66.1331 70.8572C66.3978 69.8421 64.9294 68.8669 61.8099 68.2627C56.51 67.2342 48.4511 67.6585 43.8098 69.209C41.4802 69.9887 40.4545 70.9039 40.6837 71.7524C40.8706 71.0438 41.9008 70.313 43.8098 69.6755Z" fill="#F99B0F"/>
<path d="M39.4805 73.2852V76.9571C40.3593 77.4435 41.6721 77.8767 43.4076 78.2121C45.1253 78.5453 47.081 78.7519 49.1325 78.8386V75.0978C47.0298 75.0134 45.0229 74.8046 43.2652 74.4647C41.6209 74.1448 40.3571 73.7405 39.4805 73.2852Z" fill="#F99B0F"/>
<path d="M59.6359 69.4286L58.2319 69.8995C58.7926 70.055 59.0574 70.2416 59.0218 70.4593C58.9907 70.677 58.6614 70.9036 58.0406 71.1346L56.5944 70.8547C56.9415 70.7236 57.095 70.5926 57.0483 70.4682C57.0038 70.3416 56.7701 70.2372 56.3429 70.155C55.8868 70.0661 55.3973 70.0372 54.8767 70.0661C54.3582 70.095 53.8932 70.1772 53.4838 70.3149C53.3348 70.366 53.2235 70.4149 53.1456 70.466C53.07 70.517 53.0344 70.5681 53.0344 70.6214C53.0277 70.7303 53.2903 70.868 53.8198 71.0391C54.138 71.1412 54.3649 71.2212 54.5051 71.2834C54.999 71.4989 55.2149 71.7144 55.1503 71.9321C55.0858 72.1497 54.7521 72.3608 54.1447 72.5629C53.377 72.8206 52.4982 72.9939 51.5058 73.0849C50.5157 73.176 49.6146 73.1671 48.8025 73.0561L47.1159 73.6203L45.7676 73.3582L47.3896 72.8162C46.6776 72.6273 46.335 72.4008 46.3661 72.1409C46.3928 71.881 46.7955 71.6188 47.5698 71.3589L48.9627 71.6299C48.4709 71.8099 48.244 71.9743 48.284 72.1209C48.3219 72.2675 48.6311 72.3985 49.2096 72.5096C49.7392 72.6118 50.2976 72.6473 50.8939 72.614C51.4902 72.5807 52.0198 72.4852 52.4915 72.3275C52.6584 72.2719 52.7941 72.2164 52.8964 72.1631C53.001 72.1075 53.0655 72.0564 53.0989 72.0098C53.2013 71.8521 52.961 71.6744 52.3758 71.4789C52.2801 71.4478 52.2089 71.4234 52.1622 71.4078C51.448 71.1612 51.0764 70.928 51.043 70.7103C51.0074 70.4926 51.3122 70.2749 51.953 70.0617C52.6517 69.8284 53.4416 69.6729 54.3226 69.5974C55.2037 69.5219 56.0626 69.5352 56.8992 69.6374L58.2898 69.1709L59.6359 69.4286Z" fill="#F99B0F"/>
<path d="M59.6359 68.9025L58.2319 69.3712C58.7926 69.5267 59.0574 69.7133 59.0218 69.931C58.9907 70.1487 58.6614 70.373 58.0406 70.6063L56.5944 70.3264C56.9415 70.1931 57.095 70.0642 57.0483 69.9399C57.0038 69.8132 56.7701 69.7088 56.3429 69.6266C55.8868 69.5378 55.3973 69.5089 54.8767 69.5378C54.3582 69.5689 53.8932 69.6511 53.4838 69.7866C53.3348 69.8355 53.2235 69.8865 53.1456 69.9376C53.07 69.9887 53.0344 70.0398 53.0344 70.0931C53.0277 70.202 53.2903 70.3397 53.8198 70.5107C54.138 70.6129 54.3649 70.6929 54.5051 70.7551C54.999 70.9706 55.2149 71.186 55.1503 71.4037C55.0858 71.6214 54.7521 71.8302 54.1447 72.0346C53.377 72.2923 52.4982 72.4655 51.5058 72.5566C50.5157 72.6477 49.6146 72.6388 48.8025 72.5277L47.1159 73.092L45.7676 72.8298L47.3896 72.2878C46.6776 72.099 46.335 71.8724 46.3661 71.6125C46.3928 71.3526 46.7955 71.0927 47.5698 70.8306L48.9627 71.1016C48.4709 71.2816 48.244 71.4459 48.284 71.5925C48.3219 71.7392 48.6311 71.8702 49.2096 71.9813C49.7392 72.0835 50.2976 72.119 50.8939 72.0857C51.4902 72.0524 52.0198 71.9569 52.4915 71.7991C52.6584 71.7436 52.7941 71.6881 52.8964 71.6348C53.001 71.5814 53.0655 71.5281 53.0989 71.4815C53.2013 71.3238 52.961 71.1461 52.3758 70.9506C52.2801 70.9173 52.2089 70.895 52.1622 70.8773C51.448 70.6285 51.0764 70.3975 51.043 70.1798C51.0074 69.9621 51.3122 69.7444 51.953 69.5289C52.6517 69.2957 53.4416 69.1402 54.3226 69.0669C55.2037 68.9913 56.0626 69.0047 56.8992 69.1068L58.2898 68.6426L59.6359 68.9025Z" fill="#FFC910"/>
<path d="M72.8262 85.4014L69.0745 85.6738L68.8653 85.7555L72.617 85.4831L72.8262 85.4014Z" fill="#EE5A28"/>
<path d="M72.5808 85.3447L68.8291 85.6171L68.8655 85.7556L72.6172 85.4832L72.5808 85.3447Z" fill="#FFAB01"/>
<path d="M72.5781 85.3447L68.8265 85.6171L67.5441 86.1188L71.2957 85.8441L72.5781 85.3447Z" fill="#FFCA10"/>
<path d="M70.8998 82.4821C70.2222 82.5321 69.3173 82.5979 68.6397 82.6478C69.0399 82.6229 69.4173 82.5979 70.0017 82.5934C70.5746 82.5911 71.059 82.6115 71.3636 82.632C71.5387 82.6433 72.0639 82.6774 72.7279 82.7636C73.3213 82.8408 73.676 82.9112 74.0898 82.9906C73.0644 82.5843 71.9866 82.4027 70.8998 82.4821Z" fill="#FFC910"/>
<path d="M68.8368 82.9543C73.6026 81.0951 78.7799 84.6954 80.3965 90.997C82.0109 97.2986 79.4575 103.913 74.6894 105.773C69.9214 107.634 64.7464 104.034 63.1298 97.7322C61.5131 91.4283 64.0688 84.8134 68.8368 82.9543Z" fill="#FFAB01"/>
<path d="M79.8236 91.4919C78.2069 85.1902 73.0319 81.59 68.2639 83.4514C67.5386 83.7352 66.8633 84.1301 66.2471 84.6137C67.0111 83.8963 67.8774 83.3288 68.8369 82.9543C73.6026 81.0951 78.7799 84.6954 80.3966 90.997C81.7653 96.3384 80.1373 101.904 76.7063 104.61C79.7417 101.759 81.1151 96.5268 79.8236 91.4919Z" fill="#F99B0F"/>
<path d="M70.9004 82.4824C69.6521 82.5732 68.3993 82.664 67.1487 82.7571C66.4598 82.807 65.7663 82.9614 65.0819 83.2293L68.8358 82.9546C69.5202 82.689 70.2114 82.5346 70.9004 82.4824Z" fill="#FFAB01"/>
<path d="M68.2273 80.5913C62.4702 82.8363 59.3848 90.8223 61.3356 98.4292C63.2865 106.036 69.5347 110.381 75.2918 108.136C81.0489 105.891 84.1344 97.9048 82.1812 90.2979C80.2326 82.691 73.9844 78.3462 68.2273 80.5913ZM74.687 105.77C69.919 107.632 64.7439 104.032 63.1273 97.73C61.5107 91.4284 64.0664 84.8135 68.8367 82.9544C73.6024 81.0952 78.7797 84.6955 80.3963 90.9971C82.0107 97.2964 79.455 103.911 74.687 105.77Z" fill="#FFC910"/>
<path d="M70.7227 80.021C69.4721 80.1118 68.2215 80.2026 66.971 80.2934C66.1388 80.3547 65.3021 80.5408 64.4767 80.8632L68.2284 80.5908C69.0537 80.2684 69.8905 80.0823 70.7227 80.021Z" fill="#EE8F01"/>
<path d="M69.0472 108.978C70.2977 108.887 71.5483 108.796 72.7988 108.706C67.8307 109.067 63.0081 104.944 61.3369 98.4292C59.3861 90.8224 62.4715 82.8364 68.2286 80.5913L64.477 80.8637C58.7199 83.1088 55.6344 91.0948 57.5853 98.7016C59.2565 105.217 64.0813 109.339 69.0472 108.978Z" fill="#F99B0F"/>
<path d="M59.3579 103.058C58.6053 101.773 58.0005 100.311 57.5867 98.7015C56.6749 95.1489 56.8636 91.5123 57.9095 88.416L61.5407 88.5182C60.6039 91.5305 60.4652 95.0173 61.3406 98.4291C61.7953 100.2 62.4843 101.793 63.3438 103.169L59.3579 103.058Z" fill="#FFAB01"/>
<path d="M69.4729 85.6184L70.0018 87.5123C70.656 87.5356 71.2465 87.8081 71.782 88.3219C72.3145 88.8349 72.7302 89.5412 73.0247 90.438L71.6442 90.6479C71.4726 90.1415 71.2177 89.7591 70.8804 89.4978C70.5431 89.2364 70.1717 89.1389 69.764 89.2013C69.329 89.2664 69.0265 89.4882 68.8582 89.8606C68.6887 90.231 68.6826 90.6933 68.8366 91.2466C68.8935 91.4497 68.9672 91.6273 69.0602 91.7885C69.1522 91.9477 69.2643 92.0874 69.3978 92.2096C69.6672 92.4577 70.1422 92.6212 70.8157 92.6963C71.2196 92.741 71.5321 92.7912 71.7525 92.8501C72.5229 93.0475 73.1678 93.4143 73.6863 93.9485C74.2056 94.4796 74.5808 95.1568 74.8086 95.9742C75.0983 97.0127 75.1271 97.9266 74.8973 98.7199C74.6651 99.5092 74.2227 100.016 73.5639 100.239L74.2011 102.516L72.9155 102.713L72.304 100.526C71.4937 100.515 70.7686 100.204 70.1264 99.5923C69.4833 98.9832 69.0125 98.1542 68.7128 97.1031L70.0449 96.9001C70.2689 97.6018 70.5789 98.1069 70.9671 98.4201C71.3573 98.7322 71.8263 98.8441 72.3763 98.7599C72.8809 98.6835 73.2295 98.4324 73.4222 98.0066C73.6179 97.5817 73.6241 97.0513 73.4469 96.417C73.3827 96.192 73.3075 95.989 73.2191 95.8041C73.1296 95.6172 73.0329 95.4634 72.9256 95.3366C72.5736 94.9134 72.0164 94.6532 71.2529 94.554C71.1296 94.536 71.0351 94.5225 70.9714 94.5121C70.0168 94.3686 69.2551 94.0587 68.692 93.5791C68.1261 93.1037 67.7227 92.4323 67.481 91.5679C67.2172 90.6245 67.1942 89.8069 67.4129 89.1171C67.6327 88.4292 68.0668 87.9532 68.7133 87.6952L68.1884 85.8174L69.4729 85.6184Z" fill="#F99B0F"/>
<path d="M70.8474 85.819L71.3763 87.7128C72.0296 87.7393 72.621 88.0086 73.1577 88.5245C73.6902 89.0375 74.1058 89.7437 74.3993 90.6385L73.0198 90.8504C72.8482 90.344 72.5933 89.9617 72.2549 89.6984C71.9176 89.437 71.5462 89.3395 71.1385 89.4019C70.7047 89.4689 70.401 89.6888 70.2327 90.0612C70.0633 90.4316 70.0571 90.8939 70.2131 91.446C70.27 91.6491 70.3428 91.8298 70.4367 91.9879C70.5286 92.1472 70.6408 92.2869 70.7743 92.409C71.0448 92.6591 71.5187 92.8206 72.1933 92.8977C72.596 92.9404 72.9097 92.9926 73.1301 93.0515C73.9016 93.2509 74.5435 93.6168 75.0628 94.1479C75.5821 94.679 75.9573 95.3562 76.1851 96.1736C76.4759 97.2141 76.5047 98.128 76.2737 98.9193C76.0416 99.7086 75.5992 100.216 74.9384 100.44L75.5705 102.717L74.2849 102.914L73.6734 100.727C72.8631 100.715 72.14 100.404 71.4978 99.792C70.8547 99.183 70.3839 98.3539 70.0842 97.3028L71.4152 97.0979C71.6391 97.7995 71.9483 98.3078 72.3374 98.6179C72.7296 98.9288 73.1997 99.0427 73.7465 98.9576C74.2512 98.8812 74.5998 98.6302 74.7924 98.2044C74.9851 97.7786 74.9944 97.249 74.8161 96.6128C74.7537 96.3866 74.6766 96.1848 74.5882 95.9999C74.4987 95.813 74.402 95.6592 74.2967 95.5313C73.9447 95.108 73.3875 94.8478 72.624 94.7487C72.5007 94.7307 72.4062 94.7171 72.3425 94.7067C71.3879 94.5632 70.6262 94.2533 70.0611 93.7749C69.4952 93.2995 69.093 92.63 68.8521 91.7626C68.5883 90.8192 68.5653 90.0016 68.784 89.3118C69.0038 88.6239 69.4379 88.1479 70.0845 87.8899L69.5595 86.0121L70.8474 85.819Z" fill="#FFC910"/>
<path d="M39.7936 51.8559C39.7936 51.8559 39.6846 52.9509 34.4443 52.9445C29.1975 52.9445 21.584 51.6318 21.584 51.6318L33.7644 50.4919C33.7644 50.4919 38.421 50.2806 39.7936 51.8559Z" fill="#E2C59C"/>
<path d="M26.455 52.2528C23.4981 52.2464 22.2153 53.7193 21.0479 54.1739C19.8742 54.6286 18.694 55.3266 18.7004 55.3138C19.361 54.0523 20.3167 54.0203 20.7978 53.6104C21.2788 53.2006 21.1506 53.4055 20.0986 53.3287C19.5021 53.2838 18.4374 54.334 17.6805 54.9168C17.0263 55.4227 16.6094 55.4611 16.6094 55.4611C16.6094 55.4611 17.3791 54.3981 18.3604 53.5464C19.547 52.5154 21.003 51.6509 21.3494 51.5164C21.978 51.2731 23.9599 51.2091 25.371 51.4012C26.9617 51.6125 28.5845 52.2592 26.455 52.2528Z" fill="#E2C59C"/>
<path d="M21.5093 51.5674C21.5093 51.5674 19.2387 52.1374 18.8411 52.4319C18.5653 52.6368 17.4043 53.8471 17.4043 53.8471C17.4043 53.8471 18.251 53.7127 18.7448 53.258C19.2387 52.8033 21.5093 51.5674 21.5093 51.5674Z" fill="#E2C59C"/>
<path d="M35.4908 49.6533C35.4908 49.6533 41.2186 50.0119 40.8274 53.4059C40.6029 55.3334 39.2944 55.9993 37.5626 55.8585C34.3427 55.5959 30.6995 55.1284 30.6995 55.1284L29.0703 49.8582L35.4908 49.6533Z" fill="#0063CB"/>
<path d="M36.6928 50.1268L42.3051 32.6705C42.3051 32.6705 43.1325 30.109 44.4987 30.5957C46.4679 31.2873 45.4865 33.3813 45.3197 34.6236C44.967 37.153 45.2043 38.2545 43.3891 44.3507C42.2666 48.1097 41.3045 52.445 40.3232 54.9168C39.6561 56.6202 38.508 54.1804 36.7762 53.4952C33.5499 52.2144 36.6928 50.1268 36.6928 50.1268Z" fill="#0063CB"/>
<path d="M37.833 24.3777C39.1671 28.0855 43.317 29.9873 47.1078 28.6298C50.8985 27.2722 52.8933 23.1674 51.5592 19.4661C50.2314 15.7584 46.0815 13.8565 42.2844 15.2141C38.5 16.5717 36.5052 20.67 37.833 24.3777Z" fill="#001F46"/>
<path d="M31.4893 23.1866C33.2147 25.6712 36.627 26.2924 39.1156 24.5698L38.7564 21.6561C41.2451 19.9336 41.8673 16.5268 40.1419 14.0422L38.9745 12.358C37.2491 9.8734 33.8368 9.25225 31.3482 10.9748L30.2193 11.7561C27.7306 13.4787 27.1084 16.8854 28.8338 19.37L31.4893 23.1866Z" fill="#001F46"/>
<path d="M28.7046 15.3291C28.9997 15.7389 29.3268 16.136 29.6924 16.5202C32.149 19.0945 35.433 20.0742 37.5432 19.0176C38.5118 20.2855 39.5894 21.2781 40.6028 22.0593C41.7509 22.9495 44.7014 23.3145 44.7014 23.3145C46.4268 25.1075 39.9806 35.6607 39.538 35.6223C38.6016 35.5391 37.3957 29.7117 38.2745 27.5921C38.6657 26.6444 39.3264 25.4981 39.1404 24.9858C38.4733 23.1992 37.7549 23.0519 36.5747 22.5909C34.6248 22.0722 33.079 23.1672 33.079 23.1672C32.9251 23.2696 32.7519 23.3017 32.5851 23.2632C32.2837 23.0263 32.0207 22.7445 31.7898 22.418L29.2177 18.7102C28.493 17.6792 28.3518 16.4305 28.7046 15.3291Z" fill="#F79884"/>
<path d="M34.5303 20.1548C34.2679 20.7872 33.3006 21.7597 32.4453 21.5324C32.2748 21.4874 32.1408 21.7216 32.3093 21.7674C33.3553 22.0456 34.4859 20.967 34.8179 20.1683C34.8822 20.0112 34.5958 20.0007 34.5303 20.1548Z" fill="#E67D65"/>
<path d="M30.7034 19.1161C30.6305 18.9697 30.3796 19.1215 30.4527 19.2705C30.569 19.5023 30.6801 19.7357 30.7851 19.9753C30.871 20.1713 30.9271 20.4446 31.0971 20.5664C31.3492 20.7459 31.7848 20.4389 32.0633 20.303C32.2299 20.2227 32.1402 19.9755 31.9749 20.0567C31.8364 20.1251 31.6223 20.276 31.4775 20.2966C31.1868 20.3397 31.1474 20.0776 31.0615 19.8816C30.9483 19.6212 30.8277 19.366 30.7034 19.1161Z" fill="#E67D65"/>
<path d="M48.3552 59.7584C48.3552 59.7584 46.2642 62.1789 45.6292 62.4543C44.7761 62.8193 42.1656 62.0573 42.1656 62.0573C42.1656 62.0573 41.4729 50.9405 40.6711 46.6052C39.8694 42.2636 38.6828 41.1301 38.6314 39.7661C38.5545 37.5825 36.6623 36.6988 36.9766 34.989C37.2845 33.2792 37.8553 27.2021 38.0478 28.0154C39.6833 34.9122 41.6974 29.1873 42.1271 28.278C42.3644 27.7593 48.3552 59.7584 48.3552 59.7584Z" fill="white"/>
<path d="M38.8529 25.94C38.8529 25.94 36.3193 28.6295 36.4925 29.6733C36.6657 30.7171 35.4021 34.0406 36.6528 38.6321C38.0832 43.8767 38.8144 47.4243 39.0838 50.8502C39.3532 54.2762 38.1473 57.4268 38.622 61.6212C38.9876 64.9127 39.7765 65.1112 39.7765 65.1112C39.7765 65.1112 41.2967 65.4698 42.3742 64.1955C43.4518 62.9211 41.8354 51.7019 41.2967 48.8971C40.7579 46.0923 39.0389 39.535 38.5963 37.6139C38.0383 35.2317 38.1281 32.8239 38.1666 32.1131C38.3013 29.6669 38.6348 28.1365 38.8785 27.2079C38.9299 27.0542 39.071 25.6198 38.8529 25.94Z" fill="#387BFF"/>
<path d="M43.5562 31.1342C44.9481 35.002 49.284 36.9872 53.2415 35.5719C57.199 34.1567 59.2772 29.8663 57.8917 25.9985C56.4999 22.1307 52.1704 20.1391 48.2064 21.5543C44.2489 22.9759 42.1708 27.2664 43.5562 31.1342Z" fill="#001F46"/>
<path d="M29.683 95.542L31.1069 106.441L24.9494 109.265L21.5371 109.982L27.5984 105.461L25.6165 95.6316L29.683 95.542Z" fill="#F79884"/>
<path d="M31.5179 108.086L30.1838 108.432L29.2858 107.625L24.3726 110.008L20.0111 111C20.0111 111 19.9597 110.661 20.1008 110.475C20.6525 109.783 23.7056 108.247 23.7056 108.247C23.7056 108.247 23.7569 109.258 24.1866 109.284C24.6228 109.31 28.3879 107.401 29.2602 106.876C30.7611 105.96 31.0369 105.39 31.1523 105.461C31.4538 105.659 31.5179 108.086 31.5179 108.086Z" fill="#161711"/>
<path d="M14.8299 80.3834L9.94232 89.6688L3.18186 89.3422L-0.185547 88.4072L7.28688 87.1905L11.3598 79.25L14.8299 80.3834Z" fill="#F79884"/>
<path d="M9.54488 91.3155L8.19791 91.0082L7.77458 89.8811L1.71326 89.7915L-1.9043 88.9718C-1.9043 88.9718 -1.46172 88.4979 -1.19233 88.3891C-0.384154 88.0625 2.47654 87.896 2.47654 87.896C2.47654 87.896 2.17507 88.6836 2.54709 88.9142C2.91911 89.1383 7.08827 89.2728 8.1017 89.2023C9.85275 89.0807 10.3659 88.7093 10.4364 88.8245C10.6096 89.1319 9.54488 91.3155 9.54488 91.3155Z" fill="#161711"/>
<path d="M50.5448 52.6055L46.9016 54.1872L46.9144 59.0219L21.8481 55.0837C21.8481 55.0837 19.4556 54.3473 17.9355 58.119C15.7675 63.4853 10.2578 80.1604 10.2578 80.1604L13.7471 83.8041L24.6895 64.9581C24.6895 64.9581 47.1132 75.4601 54.5087 73.1932C57.3437 72.3223 59.5117 67.3211 59.1076 62.2622C58.7869 58.3047 57.998 54.661 57.998 54.661L50.5448 52.6055Z" fill="#1F2144"/>
<path d="M47.3864 73.0639L29.4397 71.7768L30.9791 99.4213L25.6874 99.5878L21.7812 67.2109C21.7812 67.2109 22.8332 62.3954 26.2647 63.119C29.6898 63.849 37.9833 70.1886 47.3864 73.0639Z" fill="#030820"/>
<path d="M59.4619 79.9871C59.4619 79.9871 50.0459 69.8117 47.6022 64.0484C44.6838 57.1709 44.9339 48.5259 44.3951 45.6699C43.4074 40.4125 42.2079 30.1923 41.977 28.9307C41.7461 27.6628 41.999 26 41.999 26C41.999 26 41.9385 22.4246 43.7152 22.8345C46.2488 23.4172 48.7824 24.7812 49.6547 25.1718C51.3095 25.9018 54.709 45.1256 54.9014 46.0605C55.5941 49.416 58.1534 52.4386 59.9686 55.5828C64.2468 62.979 65.3372 71.7136 65.3372 71.7136C65.3372 71.7136 64.8176 78.1493 59.4619 79.9871Z" fill="#387BFF"/>
<path d="M49.7379 53.3614C49.7379 53.3614 49.6609 54.6101 43.6573 54.3092C37.6537 54.0146 28.8984 52.0743 28.8984 52.0743L42.7914 51.4595C42.7914 51.4531 48.1151 51.4723 49.7379 53.3614Z" fill="#F79884"/>
<path d="M33.6053 52.7536C30.7446 52.7024 29.5131 54.124 28.3778 54.5467C27.2425 54.9757 26.1072 55.6353 26.1136 55.6225C26.755 54.3994 27.6787 54.3866 28.1405 53.9895C28.6023 53.5989 28.4804 53.7974 27.467 53.7014C26.8897 53.6502 25.8699 54.6555 25.1323 55.2127C24.4973 55.6929 24.0996 55.7249 24.0996 55.7249C24.0996 55.7249 24.8436 54.7004 25.7929 53.8807C26.9346 52.8945 28.3457 52.0684 28.6793 51.9404C29.2886 51.7098 31.2 51.6778 32.5598 51.8891C34.0992 52.1325 35.6642 52.7921 33.6053 52.7536Z" fill="#F79884"/>
<path d="M28.8331 52.0103C28.8331 52.0103 26.6458 52.529 26.261 52.8171C25.9916 53.0156 24.8691 54.1811 24.8691 54.1811C24.8691 54.1811 25.6837 54.0594 26.1584 53.624C26.633 53.1821 28.8331 52.0103 28.8331 52.0103Z" fill="#E9D6B8"/>
<path d="M47.8259 49.8066L47.4859 32.3887C47.4859 32.3887 47.518 26.9519 47.6142 25.351C47.7104 23.6989 50.6352 25.6456 50.6352 25.6456C50.6352 25.6456 54.721 30.9863 54.8108 43.8448C54.8685 52.4385 54.3747 56.9275 50.2632 56.5753C46.4276 56.2423 42.0852 55.6788 42.0852 55.6788L40.1738 49.9347L47.8259 49.8066Z" fill="#387BFF"/>
<path d="M16.3964 54.7007L16.3203 55.3301L46.9118 59.0155L46.9879 58.3861L16.3964 54.7007Z" fill="#797A8A"/>
<path d="M33.4918 56.7296C33.4341 57.2163 33.0364 57.5685 32.6131 57.5172L16.9242 55.6281C16.5009 55.5769 15.9557 55.1927 15.5837 53.8992L9.53516 38.8249C9.60571 38.2102 10.1317 37.9028 10.5486 38.0501L26.5903 40.4707C27.0072 40.6244 27.3151 40.9958 27.4754 41.6682L33.4918 56.7296Z" fill="#797A8A"/>
<path d="M31.5161 57.1651L31.6765 57.1843L46.9933 59.0286C46.4097 59.2527 45.4668 59.336 44.4277 59.2079L31.6187 57.6646L31.4584 57.6454L18.6494 56.1021C17.6103 55.974 16.7123 55.6731 16.1992 55.3145L31.5161 57.1651Z" fill="#B7BEC0"/>
<path fill-rule="evenodd" clip-rule="evenodd" d="M49.0551 36.8606C49.1321 36.891 49.1699 36.9782 49.1395 37.0552C49.1244 37.0936 49.0952 37.1654 49.0583 37.2561C49 37.3994 48.9225 37.59 48.8508 37.7706C48.7271 38.0824 48.6155 38.3776 48.592 38.4818C48.5414 38.7062 48.493 38.9096 48.4478 39.0996C48.2474 39.9421 48.1092 40.5235 48.1092 41.5295C48.1092 42.7008 47.8926 44.399 47.6037 45.549C47.5373 45.8131 47.4462 46.0612 47.3517 46.301C47.3237 46.3719 47.2957 46.4416 47.2679 46.5108C47.2005 46.6782 47.1345 46.8424 47.0745 47.0119C47.0421 47.1034 47.011 47.1931 46.9805 47.2813C46.7635 47.9077 46.5739 48.455 46.1307 49.0163C45.8187 49.4113 45.4191 49.8059 45.1038 50.1084C45.044 50.1657 44.9491 50.1638 44.8917 50.104C44.8344 50.0442 44.8364 49.9492 44.8961 49.8919C45.211 49.5898 45.5973 49.2077 45.8953 48.8304C46.3052 48.3112 46.4781 47.8132 46.6963 47.1848C46.7269 47.0965 46.7585 47.0056 46.7917 46.9118C46.8539 46.736 46.9237 46.5626 46.992 46.3928C47.0193 46.3249 47.0463 46.2576 47.0726 46.191C47.1657 45.9548 47.2511 45.721 47.3127 45.4758C47.5959 44.3488 47.8092 42.6751 47.8092 41.5295C47.8092 40.4861 47.9559 39.8699 48.1577 39.0223C48.2025 38.8339 48.2501 38.6342 48.2994 38.4157C48.3294 38.2827 48.4529 37.96 48.572 37.66C48.648 37.4684 48.7211 37.2887 48.777 37.1515C48.8135 37.0617 48.8427 36.9901 48.8605 36.9451C48.8909 36.868 48.978 36.8302 49.0551 36.8606Z" fill="#0B2E8F"/>
<path fill-rule="evenodd" clip-rule="evenodd" d="M54.4353 47.913C54.4833 47.9805 54.4674 48.0742 54.3998 48.1221C54.266 48.2171 54.1569 48.3705 54.0337 48.5575C54.0232 48.5734 54.0126 48.5896 54.0018 48.606C53.893 48.7721 53.7709 48.9586 53.6164 49.1C53.557 49.1545 53.492 49.2017 53.4351 49.2431C53.4287 49.2478 53.4224 49.2523 53.4162 49.2568C53.3521 49.3036 53.2984 49.3444 53.2531 49.3907C52.9897 49.6603 52.7774 49.9251 52.5594 50.197L52.5585 50.1981C52.3409 50.4694 52.1177 50.7477 51.838 51.0341C51.6396 51.2372 51.4325 51.4113 51.2308 51.5809C51.2081 51.6 51.1854 51.619 51.1629 51.638C50.9383 51.8273 50.7202 52.0162 50.5129 52.2471C50.3916 52.3823 50.2535 52.5846 50.1075 52.8001L50.0971 52.8154C49.9582 53.0203 49.8122 53.2357 49.6786 53.3873C49.3452 53.7655 48.7514 54.3579 48.3168 54.6326C47.7073 55.0179 47.1033 55.2091 46.473 55.4087C46.3088 55.4607 46.1429 55.5133 45.9746 55.57C45.896 55.5964 45.811 55.5542 45.7845 55.4757C45.7581 55.3972 45.8003 55.3121 45.8788 55.2857C46.0582 55.2252 46.2313 55.1703 46.3996 55.117C47.0243 54.9188 47.5827 54.7416 48.1565 54.379C48.5532 54.1282 49.1239 53.5629 49.4535 53.1889C49.5744 53.0518 49.7116 52.8494 49.857 52.6349L49.8592 52.6317C50.0013 52.4221 50.1517 52.2004 50.2897 52.0467C50.5119 51.7991 50.744 51.5988 50.9695 51.4086C50.9921 51.3896 51.0147 51.3706 51.0371 51.3517C51.2401 51.181 51.4359 51.0164 51.6234 50.8244C51.8915 50.55 52.1062 50.2826 52.3245 50.0104L52.3287 50.0052C52.5448 49.7357 52.7648 49.4612 53.0386 49.181C53.1033 49.1148 53.1757 49.061 53.2395 49.0144C53.2455 49.01 53.2516 49.0056 53.2575 49.0013C53.3165 48.9583 53.3676 48.9212 53.4138 48.8788C53.539 48.7641 53.6406 48.6094 53.7543 48.4364C53.7638 48.4219 53.7735 48.4072 53.7832 48.3924C53.9025 48.2114 54.0396 48.0099 54.2262 47.8775C54.2937 47.8295 54.3874 47.8454 54.4353 47.913Z" fill="#0B2E8F"/>
</g>
<defs>
<clipPath id="clip0_1067_32123">
<rect width="83" height="111" fill="white"/>
</clipPath>
</defs>
</svg>
