<svg width="85" height="84" viewBox="0 0 85 84" fill="none" xmlns="http://www.w3.org/2000/svg">
<g clip-path="url(#clip0_542_186961)">
<path d="M58.281 2.47644V79.4742H12.0563C5.67398 79.4742 0.500107 74.3033 0.500107 67.9245L0.500107 2.47644L58.281 2.47644Z" fill="#F1F1F2"/>
<rect x="12.0549" y="13.064" width="34.6685" height="0.962472" fill="#E0E0E0"/>
<rect x="12.0549" y="20.7639" width="34.6685" height="0.962472" fill="#E0E0E0"/>
<rect x="12.0549" y="28.4631" width="34.6685" height="0.962472" fill="#E0E0E0"/>
<rect x="12.0549" y="36.1632" width="34.6685" height="0.962472" fill="#E0E0E0"/>
<rect x="12.0549" y="43.8627" width="34.6685" height="0.962472" fill="#E0E0E0"/>
<rect x="12.0549" y="51.5627" width="34.6685" height="0.962472" fill="#E0E0E0"/>
<rect x="12.0549" y="59.2622" width="34.6685" height="0.962472" fill="#E0E0E0"/>
<path d="M69.8369 69.9158V67.9244H17.8341V69.8494C17.8341 74.5371 14.481 78.442 10.0411 79.2992C10.6954 79.4141 11.3687 79.4741 12.056 79.4741H60.2732C65.5551 79.4741 69.8369 75.1947 69.8369 69.9158Z" fill="#CCCCCC"/>
<path opacity="0.1" d="M56.5189 23.8691C54.8484 23.4259 53.1008 23.1967 51.3224 23.1967C45.9642 23.1967 40.9216 25.2674 37.1263 29.0346C33.3386 32.7941 31.2522 37.7992 31.2522 43.1175C31.2522 44.8827 31.4832 46.6096 31.9297 48.2754C32.8228 51.6223 34.6011 54.6941 37.134 57.2081C40.9216 60.9676 45.9642 63.0384 51.3301 63.0384C53.7475 63.0384 56.0955 62.6182 58.2973 61.8082V24.4193C57.7122 24.2129 57.1194 24.0219 56.5189 23.8691ZM35.8098 43.7136V43.6906C35.8098 43.7594 35.8175 43.8282 35.8175 43.897C35.8098 43.8282 35.8098 43.7747 35.8098 43.7136ZM35.9176 45.0814C35.9099 45.0431 35.9099 45.0049 35.9022 44.9744C35.8945 44.9438 35.8945 44.9209 35.8945 44.8903C35.8868 44.8445 35.8868 44.7986 35.8791 44.7528C35.8868 44.8292 35.8945 44.898 35.9022 44.9744C35.9099 45.0432 35.9176 45.1196 35.933 45.1883C35.933 45.1501 35.9253 45.1119 35.9176 45.0814ZM36.2409 46.8007C36.2101 46.6631 36.1716 46.5179 36.1408 46.3727C36.187 46.5943 36.2409 46.8083 36.2948 47.0223C36.2794 46.9535 36.264 46.8771 36.2409 46.8007ZM36.4873 47.6794C36.4719 47.6259 36.4565 47.5801 36.4411 47.5342C36.4642 47.5954 36.4796 47.6565 36.5027 47.7176C36.495 47.7023 36.495 47.687 36.4873 47.6794ZM36.8029 48.5887C36.7875 48.5429 36.7721 48.497 36.749 48.4588C36.7413 48.4282 36.7259 48.3977 36.7182 48.3671C36.7182 48.3595 36.7105 48.3518 36.7105 48.3442C36.749 48.4512 36.7952 48.5658 36.8337 48.6728C36.826 48.6422 36.8183 48.6193 36.8029 48.5887ZM36.9492 48.9402C36.9338 48.9097 36.9261 48.8791 36.9107 48.8485C36.9338 48.9097 36.9569 48.9631 36.98 49.0243C36.9646 48.9937 36.9569 48.9631 36.9492 48.9402ZM37.6652 50.4456C37.6421 50.3997 37.619 50.3615 37.5959 50.3157C37.5805 50.2927 37.5728 50.2622 37.5574 50.2392C37.6113 50.3386 37.6652 50.4379 37.719 50.5373C37.7036 50.5143 37.6882 50.4838 37.6652 50.4456ZM37.9423 50.9346C37.9654 50.9652 37.9808 51.0034 38.0039 51.0339V51.0416C37.9885 51.0034 37.9654 50.9728 37.9423 50.9346ZM52.4464 27.7432C52.5234 27.7509 52.6004 27.7509 52.6774 27.7585C52.7544 27.7662 52.8313 27.7738 52.9083 27.7814C52.916 27.7814 52.9237 27.7814 52.9314 27.7814C52.7697 27.7662 52.6081 27.7585 52.4464 27.7432ZM53.2394 27.8196C53.2625 27.8196 53.2856 27.8273 53.301 27.8273C53.3394 27.8349 53.3702 27.8349 53.4087 27.8426C53.3471 27.8349 53.2932 27.8273 53.2394 27.8196ZM54.8253 28.1024C54.8946 28.1177 54.9638 28.1329 55.0408 28.1559C55.1178 28.1788 55.1948 28.1941 55.2718 28.217C55.318 28.2323 55.3565 28.2399 55.4027 28.2552C55.2102 28.1941 55.0177 28.1406 54.8253 28.1024ZM55.572 28.2934C55.6336 28.3087 55.6952 28.324 55.7491 28.3469C55.803 28.3622 55.8569 28.3775 55.9108 28.3927C55.9262 28.4004 55.9416 28.4004 55.9493 28.408C55.8338 28.3622 55.7029 28.3316 55.572 28.2934ZM56.7576 28.6755C56.7807 28.6831 56.8115 28.6984 56.8346 28.706C56.8654 28.7137 56.8885 28.729 56.9193 28.7366C56.8654 28.7213 56.8115 28.6984 56.7576 28.6755ZM57.0963 28.8054C57.1271 28.8207 57.1579 28.8283 57.1887 28.8436C57.2195 28.8512 57.2426 28.8665 57.2734 28.8741C57.2118 28.8589 57.1502 28.8283 57.0963 28.8054ZM57.2734 28.8818C57.3042 28.8894 57.335 28.9047 57.3581 28.92C57.3889 28.9276 57.412 28.9429 57.4428 28.9582C57.3889 28.9276 57.335 28.9047 57.2734 28.8818Z" fill="black"/>
<path d="M81.346 71.9635L78.7285 74.5615L63.1158 59.0649L60.0518 56.0313L58.8662 54.8546L61.4914 52.2489L62.6693 53.4257L65.7334 56.4669L81.346 71.9635Z" fill="#BDD9E0"/>
<g opacity="0.2">
<path opacity="0.2" d="M62.6749 53.4255L60.0511 56.0298L63.1104 59.0664L65.7343 56.462L62.6749 53.4255Z" fill="black"/>
</g>
<path d="M78.9827 76.0667L65.0097 62.1977C64.5016 61.6934 64.5016 60.8758 65.0097 60.3638L67.0422 58.3465C67.5503 57.8422 68.374 57.8422 68.8898 58.3465L82.8627 72.2155C83.3708 72.7198 83.3708 73.5374 82.8627 74.0494L80.8303 76.0667C80.3222 76.571 79.4908 76.571 78.9827 76.0667Z" fill="#3B5654"/>
<path d="M65.28 55.8097L62.4546 58.6141C61.9696 59.0955 61.1766 59.0955 60.6916 58.6141L60.4145 58.339L59.3983 57.3303C58.9133 56.8489 58.9133 56.0619 59.3983 55.5805L62.2237 52.7761C62.7087 52.2947 63.5016 52.2947 63.9866 52.7761L65.0644 53.8459L65.2877 54.0675C65.765 54.5412 65.765 55.3283 65.28 55.8097Z" fill="#BDD9E0"/>
<g opacity="0.2">
<path opacity="0.2" d="M63.979 52.7684C63.4939 52.287 62.701 52.287 62.216 52.7684L59.3906 55.5727C58.9056 56.0541 58.9056 56.8412 59.3906 57.3226L60.4068 58.3313C61.3614 57.6665 62.2622 56.9176 63.1013 56.0847C63.8173 55.3741 64.464 54.6252 65.0568 53.8382L63.979 52.7684Z" fill="black"/>
</g>
<path d="M62.3623 27.1776C59.8295 24.6636 56.7346 22.9061 53.3627 22.012C51.6921 21.5688 49.9445 21.3396 48.1661 21.3396C42.8079 21.3396 37.7654 23.4104 33.97 27.1776C30.1746 30.9371 28.0883 35.9421 28.0883 41.2681C28.0883 43.0333 28.3192 44.7602 28.7657 46.426C29.6665 49.7729 31.4371 52.8447 33.97 55.3587C37.7577 59.1182 42.8002 61.1967 48.1661 61.1967C52.3388 61.1967 56.3189 59.9435 59.6678 57.6129C60.0527 57.3454 60.4223 57.0704 60.7841 56.7723C61.3307 56.3368 61.8542 55.863 62.3546 55.3663C62.7318 54.9919 63.0937 54.6022 63.4324 54.2049C63.7403 53.8534 64.0252 53.4866 64.3023 53.1198C66.8506 49.7118 68.2286 45.6007 68.2286 41.2758C68.244 35.9421 66.1577 30.9447 62.3623 27.1776ZM48.1738 56.6806C42.5308 56.6806 37.5806 53.6776 34.863 49.1998L34.8553 49.1922C34.8168 49.1234 34.7706 49.0546 34.7321 48.9859C34.7013 48.9324 34.6705 48.8865 34.6474 48.833C34.6012 48.7566 34.5628 48.6802 34.5243 48.6038C34.5012 48.5579 34.4781 48.5197 34.455 48.4739C34.2702 48.1377 34.1085 47.7862 33.9469 47.4347C33.9238 47.3812 33.893 47.32 33.8699 47.2666C33.8468 47.2131 33.8237 47.1519 33.8006 47.0908C33.7544 46.9762 33.7082 46.8616 33.662 46.7393C33.6466 46.6935 33.6312 46.6476 33.6081 46.6094C33.5927 46.5788 33.585 46.5483 33.5773 46.5177C33.5619 46.4719 33.5465 46.4337 33.5311 46.3878C33.4619 46.2044 33.4003 46.021 33.3464 45.83C33.331 45.7765 33.3156 45.723 33.3002 45.6695C33.2848 45.6084 33.2617 45.5473 33.2463 45.4861C33.2309 45.4326 33.2155 45.3792 33.2001 45.318C33.1847 45.2722 33.177 45.234 33.1616 45.1881C33.1385 45.1117 33.1231 45.0353 33.1 44.9589C33.0615 44.8137 33.0307 44.6761 32.9999 44.531C32.9845 44.4775 32.9768 44.424 32.9691 44.3781C32.9384 44.2482 32.9153 44.1183 32.8922 43.9884C32.8845 43.9502 32.8768 43.9044 32.8691 43.8662C32.8306 43.6599 32.7998 43.4459 32.7767 43.2396C32.769 43.1785 32.7613 43.1097 32.7536 43.0486C32.7459 42.9874 32.7382 42.9187 32.7305 42.8575C32.7228 42.7811 32.7151 42.7047 32.7074 42.6283C32.6997 42.5366 32.692 42.4525 32.6843 42.3608C32.6766 42.2844 32.6766 42.208 32.6689 42.1316C32.6612 42.0475 32.6612 41.9635 32.6535 41.8794C32.6535 41.8259 32.6458 41.7648 32.6458 41.7113C32.6458 41.6578 32.6458 41.612 32.6458 41.5585C32.6458 41.4668 32.6458 41.3751 32.6458 41.2911C32.6458 32.7939 39.613 25.8785 48.1738 25.8785C48.2662 25.8785 48.3586 25.8785 48.4433 25.8785C48.4972 25.8785 48.5434 25.8785 48.5972 25.8785C48.6511 25.8785 48.7127 25.8785 48.7666 25.8862C48.8513 25.8862 48.936 25.8938 49.0207 25.9015C49.0977 25.9091 49.1746 25.9091 49.2516 25.9167C49.344 25.9244 49.4287 25.932 49.5211 25.9397C49.5981 25.9473 49.675 25.9549 49.752 25.9626C49.8213 25.9702 49.8829 25.9779 49.9445 25.9855C50.0061 25.9932 50.0754 26.0008 50.137 26.0084C50.3525 26.039 50.5604 26.0619 50.7682 26.1001C50.8067 26.1078 50.8529 26.1154 50.8914 26.1231C51.0223 26.146 51.1532 26.1689 51.2841 26.1995C51.3379 26.2071 51.3918 26.2224 51.438 26.23C51.5843 26.2606 51.7229 26.2912 51.8691 26.3294C51.9461 26.3523 52.0231 26.3676 52.1001 26.3905C52.1463 26.4058 52.1925 26.4134 52.231 26.4287C52.2849 26.444 52.3465 26.4593 52.4003 26.4746C52.4619 26.4898 52.5235 26.5051 52.5851 26.528C52.639 26.5433 52.6929 26.5586 52.7468 26.5739C52.9392 26.635 53.124 26.6962 53.3088 26.7573C53.355 26.7726 53.3935 26.7878 53.4397 26.8031C53.4704 26.8108 53.5012 26.8261 53.532 26.8337C53.5782 26.849 53.6244 26.8643 53.6629 26.8872C53.7784 26.933 53.9016 26.9789 54.017 27.0247C54.0786 27.0477 54.1325 27.0706 54.1941 27.0935C54.248 27.1164 54.3096 27.1394 54.3635 27.1699C54.7176 27.3227 55.064 27.4909 55.4105 27.6742C55.4567 27.6972 55.4952 27.7201 55.5414 27.743C55.6183 27.7812 55.6953 27.8271 55.7723 27.8653C55.8262 27.8958 55.8724 27.9264 55.9263 27.9493C55.9956 27.9875 56.0649 28.0334 56.1341 28.0716L56.1419 28.0792C60.6532 30.7766 63.6787 35.69 63.6787 41.2911C63.7018 49.7653 56.7346 56.6806 48.1738 56.6806Z" fill="#BDD9E0"/>
<path d="M63.7016 41.2682C63.7016 49.7653 56.7344 56.6807 48.1735 56.6807C44.178 56.6807 40.5289 55.1754 37.7805 52.7072C36.6411 51.6909 35.6557 50.5065 34.8627 49.1922C33.4539 46.8769 32.6455 44.1642 32.6455 41.2605C32.6455 32.7634 39.6127 25.848 48.1735 25.848C51.0913 25.848 53.8243 26.6504 56.1647 28.0487C57.4811 28.8358 58.6744 29.8139 59.706 30.9448C62.1849 33.6804 63.7016 37.3023 63.7016 41.2682Z" fill="#3E7EFF"/>
<path opacity="0.1" d="M63.7016 41.2682C63.7016 49.7653 56.7344 56.6807 48.1735 56.6807C44.178 56.6807 40.5289 55.1754 37.7805 52.7072C36.6411 51.6909 35.6557 50.5065 34.8627 49.1922C33.4539 46.8769 32.6455 44.1642 32.6455 41.2605C32.6455 32.7634 39.6127 25.848 48.1735 25.848C51.0913 25.848 53.8243 26.6504 56.1647 28.0487C57.4811 28.8358 58.6744 29.8139 59.706 30.9448C62.1849 33.6804 63.7016 37.3023 63.7016 41.2682Z" fill="black"/>
<path d="M63.7012 41.2683C63.7012 49.7655 56.734 56.6808 48.1732 56.6808C44.1776 56.6808 40.5285 55.1755 37.7801 52.7073C36.8563 51.6911 36.0634 50.5525 35.4398 49.3223C34.3774 47.2362 33.7769 44.875 33.7769 42.3839C33.7769 33.8868 40.7441 26.9714 49.3049 26.9714C51.8146 26.9714 54.1935 27.5675 56.2952 28.622C57.5347 29.2485 58.6818 30.028 59.7057 30.9449C62.1846 33.6805 63.7012 37.3025 63.7012 41.2683Z" fill="#79A6FF"/>
<path opacity="0.2" d="M56.1646 28.0565L56.157 28.0489C56.0877 28.003 56.0184 27.9648 55.9491 27.9266C55.8952 27.8961 55.849 27.8655 55.7951 27.8426C55.7181 27.7967 55.6411 27.7585 55.5642 27.7203C55.518 27.6974 55.4795 27.6745 55.4333 27.6515C55.0945 27.4681 54.7404 27.3077 54.3863 27.1472C54.3324 27.1243 54.2708 27.0937 54.2169 27.0708C54.163 27.0479 54.1014 27.0249 54.0398 27.002C53.9244 26.9562 53.8089 26.9103 53.6857 26.8645C53.6395 26.8492 53.5933 26.8339 53.5548 26.811C53.524 26.7957 53.4932 26.7881 53.4625 26.7804C53.4163 26.7651 53.3778 26.7499 53.3316 26.7346C53.1468 26.6658 52.962 26.6047 52.7696 26.5512C52.7157 26.5359 52.6618 26.5206 52.6079 26.5053C52.5463 26.4901 52.4847 26.4671 52.4231 26.4519C52.3693 26.4366 52.3077 26.4213 52.2538 26.406C52.2076 26.3907 52.1691 26.3831 52.1229 26.3678C52.0459 26.3449 51.9689 26.3296 51.8919 26.3067C51.7457 26.2685 51.6071 26.2379 51.4608 26.2073C51.4069 26.192 51.353 26.1844 51.3069 26.1768C51.176 26.1462 51.0451 26.1233 50.9142 26.1004C50.8757 26.0927 50.8295 26.0851 50.791 26.0774C50.5832 26.0392 50.3676 26.0087 50.1598 25.9857C50.0982 25.9781 50.0289 25.9704 49.9673 25.9628C49.9057 25.9552 49.8364 25.9475 49.7748 25.9399C49.6978 25.9322 49.6209 25.9246 49.5439 25.917C49.4515 25.9093 49.3668 25.9017 49.2744 25.894C49.1974 25.8864 49.1205 25.8864 49.0435 25.8788C48.9588 25.8711 48.8741 25.8711 48.7894 25.8635C48.7355 25.8635 48.6739 25.8558 48.62 25.8558C48.5662 25.8558 48.52 25.8558 48.4661 25.8558C48.3737 25.8558 48.2813 25.8558 48.1966 25.8558C39.6358 25.8558 32.6686 32.7712 32.6686 41.2683C32.6686 41.36 32.6686 41.4517 32.6686 41.5358C32.6686 41.5893 32.6686 41.6351 32.6686 41.6886C32.6686 41.7421 32.6686 41.8032 32.6763 41.8567C32.6763 41.9408 32.684 42.0248 32.6917 42.1089C32.6917 42.1853 32.6994 42.2617 32.7071 42.3381C32.7148 42.4298 32.7225 42.5139 32.7302 42.6056C32.7379 42.682 32.7456 42.7584 32.7533 42.8348C32.761 42.9036 32.7687 42.9647 32.7764 43.0258C32.7841 43.087 32.7918 43.1557 32.7995 43.2169C32.8303 43.4308 32.8534 43.6371 32.8919 43.8435C32.8996 43.8817 32.9073 43.9275 32.915 43.9657C32.9381 44.0956 32.9612 44.2255 32.992 44.3554C32.9996 44.4089 33.015 44.4624 33.0227 44.5082C33.0535 44.6534 33.0843 44.791 33.1228 44.9362C33.1382 45.0126 33.1613 45.089 33.1844 45.1654C33.1998 45.2112 33.2075 45.2571 33.2229 45.2953C33.2383 45.3488 33.2537 45.4099 33.2691 45.4634C33.2845 45.5245 33.2999 45.5857 33.323 45.6468C33.3384 45.7003 33.3538 45.7538 33.3692 45.8073C33.4308 45.9983 33.4924 46.1817 33.5539 46.3651C33.5693 46.4109 33.5847 46.4491 33.6001 46.495C33.6078 46.5256 33.6232 46.5561 33.6309 46.5867C33.6463 46.6325 33.6617 46.6784 33.6848 46.7166C33.731 46.8312 33.7772 46.9535 33.8234 47.0681C33.8465 47.1292 33.8696 47.1827 33.8927 47.2438C33.9158 47.2973 33.9389 47.3585 33.9697 47.4119C34.1236 47.7634 34.293 48.1073 34.4778 48.4512C34.5009 48.497 34.524 48.5352 34.5471 48.5811C34.5856 48.6575 34.6317 48.7339 34.6702 48.8103C34.701 48.8638 34.7241 48.9096 34.7549 48.9631C34.7934 49.0319 34.8396 49.1007 34.8781 49.1694L34.8858 49.1771C32.6994 48.6498 30.6362 47.7176 28.8039 46.4033C28.3574 44.7451 28.1265 43.0105 28.1265 41.2454C28.1265 35.9271 30.2128 30.922 34.0082 27.1549C37.7959 23.3877 42.8384 21.3169 48.2043 21.3169C49.9827 21.3169 51.7226 21.5461 53.4009 21.9893C54.6865 23.8385 55.6334 25.8864 56.1646 28.0565Z" fill="white"/>
<path opacity="0.2" d="M56.6577 32.1981C56.6577 35.9882 55.4491 39.6025 53.2088 42.5903C52.9624 42.9188 52.7084 43.2321 52.4389 43.5454C52.1387 43.8969 51.823 44.2331 51.492 44.5617C51.0532 44.9973 50.5913 45.4099 50.1063 45.7996C49.7829 46.0594 49.4596 46.3039 49.1208 46.5408C46.18 48.5887 42.6925 49.689 39.028 49.689C37.8039 49.689 36.603 49.5668 35.4251 49.3222C34.3627 47.2362 33.7622 44.875 33.7622 42.3839C33.7622 33.8868 40.7294 26.9714 49.2902 26.9714C51.7999 26.9714 54.1788 27.5675 56.2805 28.622C56.5346 29.7911 56.6577 30.9831 56.6577 32.1981Z" fill="white"/>
<path d="M54.3467 48.8103C53.9233 48.8103 53.4921 48.6498 53.1688 48.3289L41.952 37.1955C41.3053 36.5536 41.3053 35.5068 41.952 34.8573C42.5986 34.2154 43.6534 34.2154 44.3077 34.8573L55.5246 45.9906C56.1712 46.6325 56.1712 47.6794 55.5246 48.3289C55.1935 48.6498 54.7701 48.8103 54.3467 48.8103Z" fill="white"/>
<path d="M43.1298 48.8103C42.7064 48.8103 42.2753 48.6498 41.952 48.3289C41.3053 47.687 41.3053 46.6402 41.952 45.9906L53.1688 34.8573C53.8155 34.2154 54.8702 34.2154 55.5246 34.8573C56.1712 35.4991 56.1712 36.546 55.5246 37.1955L44.3 48.3289C43.9767 48.6498 43.5533 48.8103 43.1298 48.8103Z" fill="white"/>
<path opacity="0.1" d="M15.1763 33.3902C13.9676 33.3902 13.0592 32.3128 13.2439 31.1284C13.3902 30.2191 13.6289 29.3632 13.9599 28.5609C14.5527 27.132 15.7614 25.8941 17.609 24.8319C18.1633 24.5034 18.8408 24.1289 19.6568 23.7087C20.4652 23.2884 21.2581 22.7841 22.0357 22.2033C22.8133 21.6149 23.4599 20.9349 23.9988 20.1478C24.53 19.3608 24.7995 18.4591 24.7995 17.4352C24.7995 16.6634 24.6532 15.9909 24.3607 15.4026C24.0681 14.8142 23.6755 14.3251 23.1982 13.9202C22.7209 13.5152 22.1589 13.2172 21.5122 13.0185C20.8655 12.8198 20.2111 12.7205 19.5491 12.7205C18.7407 12.7205 18.0016 12.858 17.3396 13.1331C16.6775 13.4082 16.077 13.752 15.5458 14.1723C15.0146 14.5926 14.5296 15.0663 14.1062 15.6012C14.0985 15.6089 14.0985 15.6089 14.0908 15.6165C13.4441 16.4265 12.2893 16.6023 11.4348 16.0215L9.6333 14.776C8.76336 14.18 8.5324 13.0032 9.1021 12.1168C9.41004 11.643 9.74878 11.1999 10.1183 10.7872C10.9113 9.90847 11.812 9.16726 12.8282 8.5636C13.8444 7.95994 14.9376 7.50146 16.1155 7.18817C17.2934 6.87487 18.5098 6.72205 19.7646 6.72205C21.1658 6.72205 22.5438 6.92072 23.9142 7.32571C25.2768 7.7307 26.5009 8.36493 27.5864 9.24368C28.6719 10.1224 29.5572 11.2457 30.2424 12.6211C30.9276 13.9966 31.2663 15.6318 31.2663 17.5345C31.2663 18.7036 31.1277 19.7352 30.8506 20.6369C30.5734 21.5309 30.1808 22.3485 29.665 23.0821C29.1492 23.8156 28.541 24.4728 27.8404 25.0535C27.1399 25.6419 26.3469 26.2074 25.4616 26.7575C24.7225 27.1931 23.9834 27.621 23.2521 28.0184C22.513 28.4233 21.8432 28.8665 21.235 29.3632C20.6269 29.8599 20.1265 30.4254 19.7415 31.0672C19.5722 31.3423 19.449 31.6403 19.3489 31.9613C19.1025 32.8018 18.3404 33.3978 17.4627 33.3978H15.1763V33.3902ZM13.19 44.2332V40.5501C13.19 39.4803 14.0677 38.6092 15.1455 38.6092H17.3627C18.4405 38.6092 19.3181 39.4803 19.3181 40.5501V44.2332C19.3181 45.303 18.4405 46.1741 17.3627 46.1741H15.1455C14.06 46.1741 13.19 45.303 13.19 44.2332Z" fill="black"/>
<path d="M13.9744 32.1982C12.7657 32.1982 11.8573 31.1207 12.042 29.9363C12.1883 29.027 12.427 28.1712 12.758 27.3689C13.3508 25.9399 14.5595 24.702 16.4071 23.6399C16.9614 23.3113 17.6389 22.9369 18.4549 22.5166C19.2633 22.0964 20.0563 21.592 20.8338 21.0113C21.6114 20.4229 22.258 19.7428 22.7969 18.9558C23.3281 18.1687 23.5976 17.267 23.5976 16.2431C23.5976 15.4713 23.4513 14.7989 23.1588 14.2105C22.8662 13.6221 22.4736 13.1331 21.9963 12.7281C21.519 12.3231 20.957 12.0251 20.3103 11.8264C19.6636 11.6278 19.0092 11.5284 18.3472 11.5284C17.5388 11.5284 16.7998 11.666 16.1377 11.9411C15.4756 12.2161 14.8751 12.56 14.3439 12.9803C13.8127 13.4006 13.3277 13.8743 12.9043 14.4092C12.8966 14.4168 12.8966 14.4168 12.8889 14.4245C12.2422 15.2345 11.0874 15.4102 10.2329 14.8295L8.43141 13.5992C7.56147 13.0032 7.33051 11.8264 7.90021 10.94C8.20815 10.4663 8.54689 10.0231 8.91642 9.61046C9.70937 8.73171 10.6101 7.99051 11.6263 7.38684C12.6425 6.78318 13.7357 6.3247 14.9136 6.01141C16.0915 5.69811 17.3079 5.54529 18.5627 5.54529C19.9639 5.54529 21.3419 5.74396 22.7123 6.14895C24.0749 6.55394 25.299 7.18817 26.3845 8.06692C27.47 8.94567 28.3553 10.0689 29.0405 11.4444C29.7257 12.8198 30.0644 14.455 30.0644 16.3577C30.0644 17.5269 29.9258 18.5584 29.6487 19.4601C29.3715 20.3541 28.9789 21.1718 28.4631 21.9053C27.9473 22.6389 27.3391 23.296 26.6385 23.8768C25.938 24.4652 25.145 25.0306 24.2597 25.5808C23.5206 26.0163 22.7815 26.4443 22.0502 26.8416C21.3111 27.2466 20.6413 27.6898 20.0332 28.1865C19.425 28.6832 18.9246 29.2486 18.5396 29.8905C18.3703 30.1656 18.2471 30.4636 18.147 30.7845C17.9007 31.6251 17.1385 32.2211 16.2609 32.2211H13.9744V32.1982ZM11.9805 43.0335V39.3504C11.9805 38.2806 12.8581 37.4095 13.9359 37.4095H16.1531C17.2309 37.4095 18.1085 38.2806 18.1085 39.3504V43.0335C18.1085 44.1033 17.2309 44.9744 16.1531 44.9744H13.9359C12.8581 44.9821 11.9805 44.111 11.9805 43.0335Z" fill="#D6E4FF"/>
</g>
<defs>
<clipPath id="clip0_542_186961">
<rect width="84" height="84" fill="white" transform="translate(0.5)"/>
</clipPath>
</defs>
</svg>
