<svg width="235" height="230" viewBox="0 0 235 230" fill="none" xmlns="http://www.w3.org/2000/svg">
<path d="M61.6805 18.0506C95.6062 0.410225 133.889 -2.48667 164.004 2.90814C194.465 8.5141 216.767 22.4256 226.967 43.0722C237.281 63.9188 234.811 88.9209 227.045 115.884C218.938 142.632 205.551 171.333 186.223 194.453C149.698 241.171 86.6903 242.671 34.6964 189.361C-17.1626 136.478 -8.8885 52.3159 61.6805 18.0506Z" fill="#F3F5FD"/>
<path d="M103.081 61.0863C102.764 63.6687 104.043 66.0677 105.633 67.9852C107.599 70.3555 110.403 72.2444 111.561 75.2166C112.661 78.0369 112.302 81.2442 113.137 84.1534C114.093 87.4925 115.941 90.3558 118.374 92.7806C120.895 95.2914 123.544 97.507 124.82 100.955C126.795 106.292 126.288 112.489 130.015 117.103C130.702 117.954 131.059 117.453 131.554 116.14C138.149 102.947 144.575 89.6823 151.142 76.4749C152.741 73.259 154.326 70.0316 155.839 66.7728C156.578 65.1849 157.302 63.5913 158.001 61.9862C158.496 60.8484 159.04 59.6532 159.006 58.3834C158.924 55.4083 155.466 53.9351 153.086 53.1469C150.152 52.1781 147.011 51.7511 143.961 51.367C137.765 50.5845 131.486 50.4469 125.258 50.9342C122.219 51.1721 119.195 51.5619 116.195 52.1036C113.213 52.6424 110.081 53.21 107.455 54.8265C105.242 56.1851 103.406 58.415 103.081 61.0863Z" fill="#2C50FF"/>
<path d="M151.013 88.9508C152.696 87.3199 153.571 85.2161 154.303 83.0149C155.181 80.3866 156.103 77.7841 157.175 75.2274C158.253 72.6593 159.45 70.1457 160.763 67.6922C161.954 65.4652 163.61 63.2811 164.192 60.7847C164.439 59.7385 163.465 58.6895 162.416 59.2226C159.498 60.7044 156.035 60.4551 152.86 60.4551C149.889 60.4551 146.918 60.3805 143.95 60.2458C144.069 59.664 144.188 59.0793 144.304 58.4975C144.624 56.8895 142.213 56.0555 141.888 57.6806C141.126 61.5041 140.368 65.3305 139.607 69.154C138.908 72.6708 137.703 76.4599 137.782 80.0684C137.924 86.4314 143.88 91.066 149.98 89.3062C150 89.3004 150.017 89.2918 150.037 89.2861C150.356 89.3434 150.701 89.2546 151.013 88.9508Z" fill="#79A6FF"/>
<path d="M169.061 200.303C166.967 194.831 150.188 190.584 129.802 190.604C113.026 190.621 98.7001 193.524 92.9902 197.6C93.6382 199.11 93.8504 200.681 93.6948 202.194C99.4896 206.216 113.739 209.053 130.402 209.036C149.475 209.016 165.383 205.27 169.061 200.303Z" fill="#111F66"/>
<path d="M169.964 198.603C169.964 197.511 169.599 196.468 168.889 195.476C168.88 195.485 168.872 195.497 168.866 195.505L132.272 126.625L132.965 125.315C132.948 125.321 132.931 125.326 132.914 125.335L169.851 55.4255L167.211 54.3908L130.64 123.609L93.7826 54.1787L91.1455 55.2191L129.049 126.619L128.356 127.929C128.373 127.923 128.39 127.917 128.407 127.909L92.3763 196.107C92.3084 196.227 91.6633 198.426 91.6633 198.684C91.6661 200.581 92.7555 202.338 94.8719 203.909C96.9148 205.422 99.9113 206.764 103.81 207.887C111.048 209.977 120.643 211.12 130.826 211.112C141.01 211.103 150.602 209.936 157.834 207.833C165.773 205.525 169.969 202.332 169.964 198.603ZM130.823 207.959C120.923 207.967 111.631 206.867 104.665 204.855C97.376 202.751 94.7786 200.286 94.7757 198.678C94.7757 198.093 95.6302 196.371 95.4973 196.23L130.685 129.634L166.597 197.357L166.611 197.348C166.837 197.758 166.854 198.237 166.854 198.609C166.857 202.496 153.151 207.936 130.823 207.959Z" fill="#79A6FF"/>
<path d="M150.041 167.55C150.822 167.031 151.482 166.346 151.906 165.547C146.974 155.641 141.808 145.859 136.794 135.996C136.052 135.641 135.385 135.162 134.802 134.563C133.777 133.815 132.999 132.846 132.465 131.657C132.131 130.98 131.885 130.241 131.658 129.516C129.383 130.416 127.021 131.379 127.244 134.245C127.4 136.251 128.673 138.321 129.463 140.126C130.388 142.244 131.338 144.354 132.315 146.449C134.256 150.617 136.29 154.738 138.421 158.808C139.493 160.855 140.588 162.892 141.706 164.913C142.453 166.26 143.239 168.708 144.869 169.175C146.439 169.625 148.754 168.407 150.041 167.55Z" fill="#79A6FF"/>
<path d="M130.374 65.3651C152.173 65.3651 169.845 60.4888 169.845 54.4736C169.845 48.4583 152.173 43.582 130.374 43.582C108.574 43.582 90.9023 48.4583 90.9023 54.4736C90.9023 60.4888 108.574 65.3651 130.374 65.3651Z" fill="#79A6FF"/>
<path d="M130.962 62.0146C150.036 61.9945 165.946 58.2484 169.622 53.2813C167.528 47.8097 150.749 43.562 130.362 43.5821C111.289 43.6022 95.3786 47.3483 91.7031 52.3154C93.7969 57.787 110.579 62.0347 130.962 62.0146Z" fill="#111F66"/>
<path d="M167.437 200.413C168.736 197.656 166.888 194.964 165.521 192.649C161.526 185.87 156.883 179.309 154.619 171.665C154.552 171.436 154.438 171.255 154.3 171.112C154.738 170.226 154.172 168.902 152.998 169.249C149.874 170.178 146.68 171.138 144.023 173.118C141.774 174.795 140.899 177.085 141.239 179.871C141.615 182.958 142.832 186.059 143.842 188.977C144.979 192.265 146.284 195.492 147.744 198.648C148.434 200.141 149.164 201.62 149.925 203.076C150.582 204.334 151.224 206.174 152.469 206.971C153.473 207.613 154.795 207.355 155.887 207.163C157.531 206.874 159.147 206.372 160.68 205.71C163.136 204.652 166.232 202.97 167.437 200.413Z" fill="#79A6FF"/>
<path d="M122.29 90.8198C120.207 85.9616 114.432 73.9149 113.53 73.1382C112.605 72.3443 111.094 72.4904 110.075 73.0637C108.657 73.8633 109.549 75.5229 109.993 76.6923C110.754 78.6986 116.945 90.4443 117.491 91.4417C117.972 92.3216 118.388 93.3965 119.044 94.1617C119.865 95.1162 121.226 95.0273 122.253 94.457C123.852 93.5742 122.847 92.1239 122.29 90.8198Z" fill="#79A6FF"/>
<path d="M110.338 69.8148C111.934 68.9291 110.932 67.4788 110.375 66.1747C109.812 64.8591 108.977 63.0162 108.041 61.0127C106.272 61.6433 104.354 61.6175 102.571 61.0786C104.034 63.8932 105.339 66.361 105.576 66.7938C106.057 67.6737 106.473 68.7486 107.13 69.5138C107.947 70.474 109.308 70.3852 110.338 69.8148Z" fill="#79A6FF"/>
<path d="M139.795 184.957C137.419 181.452 134.606 178.193 133.56 173.965C132.777 170.788 132.319 166.15 128.474 165.255C124.992 164.443 122.515 167.741 121.278 170.559C119.347 174.955 117.598 179.269 114.04 182.602C110.893 185.55 106.484 187.737 104.659 191.899C103.329 194.929 106.95 198.487 111.321 199.343C113.782 199.827 116.386 199.235 118.894 199.17C123.743 199.04 128.677 199.153 133.497 198.5C136.322 198.115 141.624 197.393 142.941 194.251C144.195 191.273 141.357 187.257 139.795 184.957Z" fill="#2C50FF"/>
<path d="M76.5008 189.494C75.7085 189.697 75.9603 189.473 75.3746 190.121C75.2897 190.216 75.2303 190.333 75.1964 190.459C74.755 190.502 74.3617 190.821 74.4409 191.397C75.0775 196.063 75.086 200.798 75.8981 205.444C76.0028 206.037 76.4894 206.444 77.0978 206.258C78.2098 205.917 77.8476 205.917 78.8832 205.389C79.1577 205.249 79.5057 203.392 79.4831 203.099C79.3105 200.715 78.4956 192.686 78.0966 190.305C77.9976 189.688 77.1119 189.336 76.5008 189.494Z" fill="#F7B68B"/>
<path d="M79.8199 202.151C78.7164 201.979 76.2831 201.938 75.0721 201.893C74.5373 201.91 74.3392 202.254 74.359 202.437C74.4948 203.847 73.2272 203.71 71.5041 204.507C70.0356 205.186 68.6237 205.759 66.2922 206.367C64.2181 206.908 64.4388 206.579 64.3738 207.912C64.3285 208.866 66.4449 208.789 68.1596 208.754C68.4312 208.749 68.7 208.746 68.9688 208.743C69.7781 208.737 70.5817 208.602 71.3484 208.347C71.4899 208.301 71.6286 208.253 71.77 208.207C73.0518 207.774 74.2034 207.685 75.5502 207.763C75.6153 207.765 75.6945 207.814 75.703 207.886C75.72 208.029 75.7257 208.109 75.737 208.253C75.7596 208.508 75.9747 208.697 76.2265 208.697C76.7811 208.694 77.3356 208.691 77.8959 208.68C78.9513 208.657 79.9444 208.674 80.1142 208.41C80.3009 208.118 80.2245 208.061 80.2274 207.757C80.2415 206.934 80.2246 202.214 79.8199 202.151Z" fill="#101840"/>
<path d="M71.4131 204.57C71.3395 204.401 71.0933 204.541 71.1669 204.71C71.3367 205.097 71.5149 205.481 71.6988 205.863C71.7781 206.029 72.0271 205.888 71.945 205.722C71.7582 205.341 71.5828 204.957 71.4131 204.57ZM72.6326 203.997C72.5279 203.848 72.2789 203.985 72.3864 204.137C72.641 204.498 72.8674 204.874 73.0683 205.269C73.1532 205.433 73.3993 205.295 73.3145 205.129C73.1136 204.736 72.8844 204.358 72.6326 203.997ZM74.9442 204.387C74.6104 204.103 74.2567 203.842 73.886 203.61C73.7332 203.512 73.555 203.739 73.7106 203.836C74.0813 204.071 74.4349 204.329 74.7688 204.613C74.9075 204.73 75.0829 204.507 74.9442 204.387Z" fill="#464A8A"/>
<path d="M80.2241 207.751C80.2213 207.507 80.2043 207.235 80.176 206.951C78.883 207.206 77.5814 207.143 76.2714 207.106C74.9783 207.069 73.7276 207.146 72.4544 207.378C69.7579 207.874 67.118 208.143 64.3818 207.943C64.3818 208.066 64.3818 208.212 64.379 208.387C64.362 209.342 66.4757 209.201 68.1903 209.112C68.462 209.098 68.7308 209.086 68.9967 209.078C69.806 209.046 70.6039 208.889 71.365 208.611C71.5037 208.559 71.6423 208.507 71.781 208.456C73.0486 207.983 74.1973 207.86 75.547 207.897C75.6121 207.9 75.6941 207.943 75.7026 208.015C75.7253 208.158 75.7309 208.235 75.7479 208.379C75.779 208.631 75.9997 208.817 76.2515 208.808C76.8033 208.791 77.3579 208.768 77.9181 208.74C78.9707 208.685 79.9667 208.671 80.1251 208.404C80.309 208.109 80.2298 208.055 80.2241 207.751Z" fill="#464A8A"/>
<path d="M85.62 182.611C85.4616 180.499 84.6269 178.613 83.9902 176.627C81.4012 168.544 87.9628 159.432 86.0671 151.218C85.0626 146.87 85.9992 143.422 85.8237 138.888C85.6483 134.393 86.6811 129.982 87.6629 125.631C89.3578 118.113 90.9762 109.595 86.4151 102.742C84.4033 99.7182 81.3701 97.5399 77.7484 97.1042C74.1266 96.6686 70.57 97.8924 67.6414 99.9934C67.2425 99.595 66.3965 99.7497 66.4276 100.469C67.0048 113.823 67.582 127.176 68.1621 140.53C68.4478 147.122 68.6742 153.72 69.2005 160.298C69.7155 166.707 70.4879 173.09 71.2575 179.47C72.1432 186.813 73.026 194.154 73.9116 201.497C73.9597 201.898 74.1974 202.193 74.619 202.213C79.4461 202.457 79.4602 202.609 84.2732 202.142C84.6863 202.102 84.9353 201.844 84.9806 201.425C85.2069 199.287 84.7033 197.255 84.4854 195.14C84.2449 192.809 84.6665 190.556 85.0824 188.272C85.4248 186.412 85.7615 184.509 85.62 182.611Z" fill="#101840"/>
<path d="M55.0078 190.046C54.2043 189.891 54.5268 189.797 53.7261 190.132C53.6101 190.181 53.5082 190.264 53.4233 190.364C53.0045 190.212 52.515 190.333 52.3453 190.886C50.9673 195.386 48.9923 199.677 47.7841 204.231C47.6285 204.813 47.9002 205.392 48.5311 205.483C49.6799 205.653 49.3545 205.498 50.5118 205.463C50.8202 205.455 51.9095 203.921 52.0142 203.646C52.8546 201.413 55.4804 193.789 56.117 191.465C56.2811 190.863 55.6275 190.166 55.0078 190.046Z" fill="#F7B68B"/>
<path d="M52.444 202.486C51.3405 202.315 48.9071 202.274 47.6961 202.229C47.1613 202.246 46.9633 202.59 46.9831 202.773C47.1189 204.183 45.8513 204.046 44.1281 204.842C42.6596 205.522 41.2477 206.095 38.9162 206.703C36.8422 207.244 37.0629 206.915 36.9978 208.248C36.9525 209.202 39.069 209.125 40.7836 209.09C41.0553 209.084 41.3241 209.082 41.5929 209.079C42.4021 209.073 43.2057 208.938 43.9725 208.683C44.114 208.637 44.2526 208.589 44.3941 208.543C45.6758 208.11 46.8274 208.021 48.1743 208.098C48.2394 208.101 48.3186 208.15 48.3271 208.222C48.344 208.365 48.3497 208.445 48.361 208.589C48.3837 208.844 48.5987 209.036 48.8505 209.033C49.4051 209.03 49.9597 209.027 50.5199 209.016C51.5753 208.993 52.5685 209.01 52.7382 208.746C52.925 208.454 52.8486 208.397 52.8514 208.093C52.8656 207.27 52.8486 202.55 52.444 202.486Z" fill="#101840"/>
<path d="M44.0381 204.905C43.9645 204.736 43.7183 204.876 43.7919 205.045C43.9617 205.432 44.1399 205.816 44.3238 206.198C44.4031 206.364 44.6521 206.223 44.57 206.057C44.3833 205.676 44.2078 205.292 44.0381 204.905ZM45.2576 204.332C45.1529 204.183 44.9039 204.32 45.0114 204.472C45.2661 204.833 45.4924 205.209 45.6933 205.604C45.7782 205.768 46.0244 205.63 45.9395 205.464C45.7386 205.068 45.5094 204.693 45.2576 204.332ZM47.5693 204.721C47.2354 204.438 46.8817 204.177 46.511 203.945C46.3582 203.847 46.18 204.074 46.3356 204.171C46.7063 204.406 47.0599 204.664 47.3938 204.948C47.5325 205.065 47.7079 204.839 47.5693 204.721Z" fill="#464A8A"/>
<path d="M52.8482 208.086C52.8453 207.842 52.8284 207.57 52.8001 207.286C51.507 207.541 50.2054 207.478 48.8954 207.441C47.6023 207.404 46.3517 207.481 45.0784 207.713C42.3819 208.209 39.742 208.478 37.0059 208.278C37.0059 208.401 37.0059 208.547 37.003 208.722C36.9861 209.677 39.0997 209.536 40.8144 209.447C41.086 209.433 41.3548 209.422 41.6208 209.413C42.43 209.381 43.2279 209.224 43.989 208.946C44.1277 208.894 44.2663 208.843 44.405 208.791C45.6726 208.318 46.8214 208.195 48.171 208.232C48.2361 208.235 48.3181 208.278 48.3295 208.35C48.3521 208.493 48.3578 208.57 48.3747 208.714C48.4059 208.966 48.6266 209.152 48.8784 209.143C49.4301 209.126 49.9847 209.103 50.545 209.075C51.5975 209.02 52.5935 209.006 52.752 208.739C52.933 208.441 52.8538 208.387 52.8482 208.086Z" fill="#464A8A"/>
<path d="M98.3269 94.7058C96.3746 93.6511 92.6001 98.8016 90.4412 98.8876C87.3995 99.0051 84.3832 99.3949 81.3981 99.971C81.4773 99.7045 81.5566 99.4379 81.6358 99.1713C81.9527 98.1108 80.2946 97.7382 79.9805 98.7901C71.9646 125.655 63.943 152.528 54.9679 179.087C52.4553 186.521 49.8663 193.928 47.1839 201.302C46.9774 201.873 47.5687 202.334 48.0498 202.351C50.9528 202.457 53.853 202.561 56.7561 202.667C58.6632 202.735 59.778 199.912 60.109 199.064C60.5023 198.058 61.023 197.103 61.6143 196.206C62.7801 194.438 64.2457 192.887 65.6633 191.328C68.5466 188.155 71.0846 184.936 71.9759 180.617C72.4739 178.204 72.5786 175.733 72.9266 173.3C73.286 170.795 74.0103 168.462 75.1789 166.223C77.2869 162.19 80.2833 158.696 82.2356 154.575C84.4426 149.92 85.0736 144.666 87.5692 140.138C88.817 137.876 101.434 119.501 101.434 112.336C101.439 108.011 102.831 97.1421 98.3269 94.7058Z" fill="#111F66"/>
<path d="M44.0946 47.0289C43.2939 44.1426 39.9749 30.2244 39.1741 27.341C38.7752 25.8993 38.3734 24.4547 37.9744 23.013C37.7141 22.0787 37.6066 20.4707 36.9445 19.7313C36.4776 19.2067 35.5354 19.2985 34.9129 19.2383C33.4189 19.095 31.9221 18.9516 30.4282 18.8083C27.4968 18.5275 24.5655 18.2466 21.6341 17.9628C21.3483 17.8195 20.9069 18.0488 21.0201 18.4501C21.8209 21.3363 22.6216 24.2226 23.4224 27.106C23.8213 28.5477 26.7413 41.0242 27.1431 42.4659C27.4034 43.4003 27.511 45.0082 28.1731 45.7477C28.6399 46.2722 29.5822 46.1805 30.2046 46.2407C31.6986 46.384 33.1954 46.5273 34.6894 46.6706C37.6207 46.9515 40.5521 47.2324 43.4834 47.5161C43.7664 47.6594 44.2078 47.433 44.0946 47.0289Z" fill="#2C50FF"/>
<path d="M33.133 50.7118C32.3323 47.8255 31.5315 44.9392 30.7308 42.0559C30.3318 40.6142 29.93 39.1696 29.5311 37.7279C29.2708 36.7935 29.1632 35.1856 28.5011 34.4461C28.0343 33.9216 27.092 34.0133 26.4696 33.9531C24.9756 33.8098 23.4788 33.6665 21.9848 33.5232C19.0535 33.2423 16.1221 32.9614 13.1908 32.6777C12.905 32.5343 12.4636 32.7636 12.5768 33.1649C13.3775 36.0512 14.1782 38.9374 14.979 41.8208C15.378 43.2625 15.7797 44.7071 16.1787 46.1488C16.439 47.0832 16.5465 48.6911 17.2086 49.4306C17.6755 49.9551 18.6177 49.8634 19.2402 49.9236C20.7342 50.0669 22.231 50.2102 23.7249 50.3535C26.6563 50.6344 29.5877 50.9153 32.519 51.199C32.8048 51.3423 33.2462 51.1159 33.133 50.7118Z" fill="#79A6FF"/>
<path d="M25.2044 31.6784C22.7569 29.6749 20.2386 27.7603 17.6666 25.9259C17.5704 25.8571 17.4035 25.8829 17.3243 25.9718C15.4596 28.0584 13.8836 30.3513 12.6047 32.8506C12.4491 33.1573 12.9725 34.1318 13.1621 33.8997C14.3844 34.5818 15.3125 34.8598 16.5943 35.4331C17.6412 35.9031 18.7786 36.1009 19.9076 36.2499C21.5374 36.4649 23.187 36.5624 24.8309 36.548C25.8014 36.5394 27.8839 37.2617 28.6762 36.5509C30.4163 34.9974 26.1664 32.4666 25.2044 31.6784Z" fill="#79A6FF"/>
<path d="M72.1414 17.0257C71.0525 16.3751 69.6525 16.7602 69.0174 17.8754L55.6787 41.5488L50.1695 34.1799C49.4047 33.1576 47.9659 32.9584 46.9677 33.7418C45.9696 34.5252 45.7752 35.9989 46.54 37.0213L54.188 47.2448C54.9528 48.2671 56.3916 48.4663 57.3898 47.6829C57.8046 47.351 58.0768 46.9129 58.1935 46.4349L72.971 20.2255C73.6062 19.1102 73.2432 17.6763 72.1414 17.0257Z" fill="#79A6FF"/>
<path d="M94.6798 20.6201C91.5193 18.35 86.6016 17.4529 82.7507 18.8545C82.6912 19.0179 82.5894 19.1755 82.4253 19.3016C81.0332 20.3822 81.6047 20.7892 80.3512 22.0532C80.1786 22.228 79.9693 22.3111 79.7627 22.3226C78.7667 25.8881 78.6309 30.9756 79.8052 35.401C80.2437 37.0577 81.3953 41.3197 83.1468 42.8618C85.5858 45.0114 88.9133 44.3894 91.1288 42.6239C95.0759 39.4768 97.5602 35.5014 97.9677 30.3938C98.3412 25.6674 98.5647 23.4089 94.6798 20.6201Z" fill="#F7B68B"/>
<path d="M97.0986 45.177L95.2906 30.2871C95.1745 29.7311 93.6296 32.0699 93.2363 32.5055C91.2331 34.7211 89.4561 35.644 86.7002 36.5325C86.6153 36.5583 86.5446 36.5985 86.4824 36.6443C86.0862 36.7274 85.7354 37.0743 85.8429 37.5902C86.5248 40.872 87.5151 47.212 88.9016 50.2874C89.2609 51.0871 89.193 49.7858 90.138 49.9807C90.7775 50.1154 91.8329 49.7744 92.4865 49.697C93.3212 49.5967 93.208 49.525 94.0427 49.4247C94.9538 49.3129 96.8411 49.4849 97.4494 48.5935C98.0408 47.7279 97.2797 46.0368 97.0986 45.177Z" fill="#F7B68B"/>
<path d="M100.86 24.7155C100.71 23.0761 100.309 21.4223 99.2023 20.1669C98.0252 18.8284 96.3643 18.1433 94.692 17.6819C93.0113 16.0625 90.2554 15.3029 88.0597 15.5437C85.7791 15.7931 83.6712 16.7934 81.7867 18.0803C80.604 18.8886 79.1015 19.8115 78.4762 21.1643C78.4734 21.1643 78.4734 21.1672 78.4706 21.1672C78.4564 21.1958 78.4394 21.2245 78.4253 21.2503C77.4095 23.1936 77.7321 25.6929 78.6092 27.3238C78.6884 27.4699 78.762 27.5731 78.8808 27.6104C79.011 27.6505 79.1553 27.6477 79.2855 27.5301C80.4003 26.527 82.0499 27.3868 83.4533 26.9942C84.2625 26.7649 85.0124 26.504 85.8612 26.5212C86.5573 26.5356 87.2278 26.7305 87.9296 26.6617C90.1451 26.4496 91.6843 24.7442 92.27 22.6977C92.2389 23.3885 92.1823 24.0792 92.1031 24.7729C92.0125 25.5754 92.4596 27.768 92.8642 28.4989C93.747 30.0868 95.6937 29.3244 95.6456 32.8813C95.6201 34.7644 95.0825 36.1144 95.473 37.2838C95.5409 37.4873 95.7871 37.5647 95.9455 37.4099C96.9613 36.4182 97.7338 35.0568 98.3817 33.6495C99.1966 32.7094 99.7512 31.3278 100.125 30.2874C100.775 28.5161 101.033 26.59 100.86 24.7155Z" fill="#101840"/>
<path d="M85.7668 49.1706C86.5223 50.4776 87.1278 52.1257 87.4815 53.854C90.2204 53.1374 93.0046 52.5728 95.7209 51.7874C96.9207 50.1193 98.4118 48.7407 100.203 47.6687C100.296 47.6286 100.392 47.5885 100.486 47.5483C100.211 47.448 99.9341 47.3506 99.6539 47.2617C99.62 47.1413 98.9409 45.2411 98.4995 44.4758C98.2449 44.0344 97.8997 43.1803 97.2715 43.2806C96.915 43.3379 96.5528 43.5643 96.2274 43.7076C95.7238 43.9255 95.223 44.1462 94.7221 44.3669C93.8082 44.771 92.8688 45.1264 91.9888 45.6022C89.697 46.8404 89.6347 46.5452 88.4209 45.9605C87.9908 45.7512 87.6852 45.6022 87.3343 46.0293C86.8986 46.5595 86.6241 47.3391 86.4232 48.0442C86.0526 48.1904 85.6904 48.3337 85.3311 48.477C85.4867 48.7063 85.6338 48.9356 85.7668 49.1706Z" fill="#F6F6F6"/>
<path d="M91.6439 48.6059C91.0695 48.0442 90.5715 47.4566 89.9943 46.8977C89.8443 46.7372 89.7226 46.7544 89.6462 46.8776C89.2048 47.5684 88.6955 48.2477 88.3136 48.9728C88.0674 49.44 88.0787 49.8499 88.3107 50.3285C88.6022 50.9247 89.0492 51.475 89.4878 51.968C89.7509 52.2632 89.9603 52.6416 90.3706 52.4782C91.1685 52.1543 92.1305 50.661 92.2664 49.8355C92.3484 49.3024 91.9919 48.947 91.6439 48.6059Z" fill="#101840"/>
<path d="M104.065 49.3937C102.721 48.4364 101.233 47.7313 99.6712 47.2441C99.6372 47.1237 96.9181 48.9065 95.3138 49.7721C93.4152 50.7953 91.1544 51.2539 89.0662 50.5746C87.759 50.1504 86.6272 49.345 85.8519 48.2559C80.2382 50.4772 75.9572 52.5322 72.6863 57.7602C67.6611 65.797 68.2129 68.56 66.2718 81.0709C65.4796 86.1699 62.967 100.028 63.2245 101.272C63.4791 102.493 63.6121 103.926 64.1299 105.064C64.9307 106.824 67.5819 106.362 69.1042 106.21C71.7243 105.949 74.3019 105.356 76.9107 105.009C82.1821 104.307 94.8356 103.129 100.13 102.951C104.594 102.802 103.222 100.131 104.94 95.4993C105.098 95.0723 107.571 83.7021 109.147 73.5357C110.432 65.3011 111.807 54.914 104.065 49.3937Z" fill="#CCCCCC"/>
<path d="M36.1888 54.2059C36.4237 58.8119 38.4836 77.0179 38.5232 78.2676C38.543 78.944 38.3619 79.824 38.8005 80.3857C38.8938 80.5061 69.5542 82.564 72.1601 82.5812C72.8194 82.6615 73.2636 82.5411 73.2325 82.1312C72.6044 73.6989 72.0215 64.6732 71.6735 56.3613C71.6678 56.2352 71.6027 56.0259 71.532 55.9543C71.4782 55.8196 71.1642 55.8024 70.9774 55.788C58.9775 54.7963 48.6782 54.2059 36.6444 53.796C36.435 53.7903 36.1775 53.9651 36.1888 54.2059Z" fill="#101840"/>
<path d="M86.0617 83.0079C86.0759 82.7557 85.8919 82.5923 85.6656 82.5522C77.5223 81.0933 69.2998 80.1102 61.0434 79.643C56.9632 79.4108 52.8746 79.3048 48.786 79.3191C46.7431 79.3277 44.6974 79.365 42.6545 79.4338C41.7463 79.4653 40.572 79.3249 39.6779 79.5427C39.709 79.4022 39.7401 79.2647 39.7656 79.1414C39.8845 78.6054 39.0809 78.3217 38.962 78.8605C38.7357 79.8838 38.5206 81.1678 39.2676 82.0334C39.6892 82.5178 40.2608 82.6296 40.8663 82.7098C41.9726 82.856 43.0931 82.9449 44.2023 83.0538C48.7464 83.5095 53.2934 83.8993 57.8489 84.226C67.0504 84.8881 76.266 85.2865 85.4902 85.4356C85.7193 85.4384 85.9259 85.2751 85.94 85.0343C85.9825 84.3579 86.0221 83.6843 86.0617 83.0079Z" fill="#101840"/>
<path d="M60.8051 86.2787C60.723 86.1239 60.5702 86.0035 60.4655 85.8688C60.3665 85.7427 60.2844 85.628 60.2109 85.5191C59.9251 84.2494 60.0383 82.9195 60.0354 81.6125C60.0354 80.724 60.1458 78.9498 59.1838 78.4883C59.1215 78.4568 59.0225 78.4654 58.9914 78.5399C58.8131 78.9412 58.8386 79.3482 58.8329 79.7839C58.8244 80.4574 58.8188 81.1338 58.8272 81.8074C58.8301 82.0482 58.8386 82.2889 58.8499 82.5268C58.5952 82.2001 58.3236 81.8848 58.0633 81.5781C57.8652 81.3459 57.5936 80.9303 57.3106 80.6695C56.7476 79.8785 56.2354 79.0501 55.7855 78.1845C55.4403 77.5167 55.1263 76.8231 54.8037 76.1409C54.5434 75.5906 54.5519 75.0002 54.0765 74.94C53.0636 74.811 54.2831 77.5253 54.4302 77.9008C54.832 78.924 55.3272 79.9014 55.9072 80.83C55.8195 80.9017 55.7346 80.9676 55.6525 81.0307C54.6028 79.7839 53.8926 78.325 53.2164 76.8431C53.089 76.5623 51.912 74.5531 51.5922 75.2352C51.3461 75.7597 51.7931 76.6053 51.9629 77.1126C52.2091 77.8463 52.4977 78.5657 52.8259 79.268C53.2531 80.188 53.7483 81.0737 54.3029 81.9192C54.2237 81.9736 54.1444 82.0281 54.0652 82.0826C53.2899 80.8788 52.6448 79.6234 51.9997 78.3364C51.8837 78.1043 50.5114 75.6222 50.1577 76.4763C50.1011 76.6139 51.7422 80.0132 53.0324 82.4093C53.3182 82.9395 53.0494 82.8048 52.9023 82.6501C52.724 82.415 50.7321 78.8695 50.2709 79.0988C49.8662 79.2966 50.9924 81.7931 51.8327 82.8249C52.6872 83.8711 53.3522 85.0003 54.3368 85.9233C54.9508 86.5338 55.6271 87.1127 56.3826 87.4108C57.4917 87.8465 58.7112 87.7834 59.8062 88.2735C59.9421 88.3337 60.0609 88.2592 60.1118 88.1532C60.1373 88.136 60.1599 88.113 60.1797 88.0815C60.5928 87.4137 61.3002 87.2302 60.8051 86.2787Z" fill="#F7B68B"/>
<path d="M109.787 59.1667C109.085 57.502 108.384 56.0996 104.878 56.0996C101.783 56.9557 100.671 59.6057 98.5671 61.7094C97.8658 62.4106 97.8658 62.4106 97.1646 63.813C96.4634 65.2155 95.1628 66.2768 95.061 66.6179C90.1524 74.3313 90.0222 75.84 84.3661 81.9479C81.7347 84.7911 78.2742 87.3478 74.4063 88.0242C69.9668 88.8009 65.9093 86.316 62.2932 84.0459C62.0867 83.9169 61.8433 84.0144 61.7132 84.2007C60.2758 86.2414 59.0252 88.3882 57.9585 90.6496C57.8509 90.8761 57.9132 91.091 58.1112 91.2372C62.5111 94.4817 67.6014 96.7059 72.9689 97.6432C78.2148 98.5575 83.7691 98.4228 88.4745 95.654C92.7584 93.1318 98.1015 89.7635 100.671 85.5502C103.656 80.649 106.859 75.6695 108.384 70.1234C108.978 67.9537 111.189 64.5142 109.787 59.1667Z" fill="#E0E0E0"/>
</svg>
