<svg width="97" height="71" viewBox="0 0 97 71" fill="none" xmlns="http://www.w3.org/2000/svg">
<path d="M48.61 71.0002C64.454 71.0002 77.2981 58.1561 77.2981 42.3121C77.2981 26.4681 64.454 13.624 48.61 13.624C32.766 13.624 19.9219 26.4681 19.9219 42.3121C19.9219 58.1561 32.766 71.0002 48.61 71.0002Z" fill="#FFDE0F"/>
<path d="M48.6108 63.829C60.4938 63.829 70.1269 54.196 70.1269 42.313C70.1269 30.43 60.4938 20.7969 48.6108 20.7969C36.7278 20.7969 27.0947 30.43 27.0947 42.313C27.0947 54.196 36.7278 63.829 48.6108 63.829Z" fill="#FFDE0F" stroke="#FFB50D" stroke-width="1.96978"/>
<path fill-rule="evenodd" clip-rule="evenodd" d="M40.9609 46.6013H44.0906C44.2354 48.8616 45.8002 50.1366 47.9736 50.1366C50.2339 50.1366 51.7407 48.9195 51.7407 46.8621C51.7407 45.0365 50.4367 44.399 48.4083 43.7905L45.9451 43.037C43.9457 42.4285 41.4246 40.9796 41.4246 37.5602C41.4246 34.6624 43.511 32.547 46.5826 32.0544V28.9248H49.3645V32.0544C52.2044 32.5181 54.3197 34.4596 54.5226 37.3284H51.393C51.1322 35.2999 49.7412 34.4016 47.9736 34.4016C46.177 34.4016 44.6411 35.2999 44.6411 37.2415C44.6411 39.0381 45.6843 39.6756 47.7418 40.3131L50.2049 41.0665C53.3055 42.0228 54.9862 43.6745 54.9862 46.6013C54.9862 49.8468 52.726 52.0202 49.3645 52.4838V55.7004H46.5826V52.4838C43.2212 52.0202 41.0768 49.8758 40.9609 46.6013Z" fill="white"/>
<path d="M35.2221 44.2245C36.2784 44.2245 37.1347 43.3682 37.1347 42.312C37.1347 41.2557 36.2784 40.3994 35.2221 40.3994C34.1658 40.3994 33.3096 41.2557 33.3096 42.312C33.3096 43.3682 34.1658 44.2245 35.2221 44.2245Z" fill="white"/>
<path d="M61.9995 44.2245C63.0557 44.2245 63.912 43.3682 63.912 42.312C63.912 41.2557 63.0557 40.3994 61.9995 40.3994C60.9432 40.3994 60.0869 41.2557 60.0869 42.312C60.0869 43.3682 60.9432 44.2245 61.9995 44.2245Z" fill="white"/>
<path d="M23.5449 15.3515C24.6047 15.3515 25.4639 14.4924 25.4639 13.4326C25.4639 12.3728 24.6047 11.5137 23.5449 11.5137C22.4851 11.5137 21.626 12.3728 21.626 13.4326C21.626 14.4924 22.4851 15.3515 23.5449 15.3515Z" stroke="#FFF3D6" stroke-width="1.31318"/>
<path d="M3.0703 38.1631C4.1301 38.1631 4.98924 37.3039 4.98924 36.2441C4.98924 35.1843 4.1301 34.3252 3.0703 34.3252C2.0105 34.3252 1.15137 35.1843 1.15137 36.2441C1.15137 37.3039 2.0105 38.1631 3.0703 38.1631Z" stroke="#FFF3D6" stroke-width="1.31318"/>
<path d="M89.7495 38.3779C90.2794 38.3779 90.709 37.9484 90.709 37.4185C90.709 36.8886 90.2794 36.459 89.7495 36.459C89.2196 36.459 88.79 36.8886 88.79 37.4185C88.79 37.9484 89.2196 38.3779 89.7495 38.3779Z" stroke="#FFF3D6" stroke-width="1.31318"/>
<path d="M18.0142 68.0752C18.5441 68.0752 18.9736 67.6456 18.9736 67.1157C18.9736 66.5858 18.5441 66.1562 18.0142 66.1562C17.4843 66.1562 17.0547 66.5858 17.0547 67.1157C17.0547 67.6456 17.4843 68.0752 18.0142 68.0752Z" stroke="#FFF3D6" stroke-width="1.31318"/>
<path d="M76.3159 17.2705C77.9056 17.2705 79.1943 15.9818 79.1943 14.3921C79.1943 12.8024 77.9056 11.5137 76.3159 11.5137C74.7262 11.5137 73.4375 12.8024 73.4375 14.3921C73.4375 15.9818 74.7262 17.2705 76.3159 17.2705Z" stroke="#FFF3D6" stroke-width="1.31318"/>
<path fill-rule="evenodd" clip-rule="evenodd" d="M77.6601 4.22167V2.49463C77.6601 2.17669 77.9179 1.91895 78.2358 1.91895C78.5538 1.91895 78.8115 2.17669 78.8115 2.49463V4.22167H80.5386C80.8565 4.22167 81.1142 4.47941 81.1142 4.79735C81.1142 5.11529 80.8565 5.37303 80.5386 5.37303H78.8115V7.10007C78.8115 7.41801 78.5538 7.67576 78.2358 7.67576C77.9179 7.67576 77.6601 7.41801 77.6601 7.10007V5.37303H75.9331C75.6152 5.37303 75.3574 5.11529 75.3574 4.79735C75.3574 4.47941 75.6152 4.22167 75.9331 4.22167H77.6601Z" fill="#FFCE5C"/>
<path fill-rule="evenodd" clip-rule="evenodd" d="M84.5674 11.1309V9.97949C84.5674 9.76753 84.7392 9.5957 84.9512 9.5957C85.1631 9.5957 85.335 9.76753 85.335 9.97949V11.1309H86.4863C86.6983 11.1309 86.8701 11.3027 86.8701 11.5146C86.8701 11.7266 86.6983 11.8984 86.4863 11.8984H85.335V13.0498C85.335 13.2617 85.1631 13.4336 84.9512 13.4336C84.7392 13.4336 84.5674 13.2617 84.5674 13.0498V11.8984H83.416C83.2041 11.8984 83.0322 11.7266 83.0322 11.5146C83.0322 11.3027 83.2041 11.1309 83.416 11.1309H84.5674Z" fill="#FFCE5C"/>
<path fill-rule="evenodd" clip-rule="evenodd" d="M6.52441 41.6162V40.4648C6.52441 40.2529 6.69623 40.0811 6.90819 40.0811C7.12015 40.0811 7.29198 40.2529 7.29198 40.4648V41.6162H8.44334C8.6553 41.6162 8.82713 41.788 8.82713 42C8.82713 42.212 8.6553 42.3838 8.44334 42.3838H7.29198V43.5351C7.29198 43.7471 7.12015 43.9189 6.90819 43.9189C6.69623 43.9189 6.52441 43.7471 6.52441 43.5351V42.3838H5.37305C5.16109 42.3838 4.98926 42.212 4.98926 42C4.98926 41.788 5.16109 41.6162 5.37305 41.6162H6.52441Z" fill="#FFCE5C"/>
<path fill-rule="evenodd" clip-rule="evenodd" d="M94.6973 32.2353V31.084C94.6973 30.872 94.8691 30.7002 95.081 30.7002C95.293 30.7002 95.4648 30.872 95.4648 31.084V32.2353H96.6162C96.8282 32.2353 97 32.4072 97 32.6191C97 32.8311 96.8282 33.0029 96.6162 33.0029H95.4648V34.1543C95.4648 34.3662 95.293 34.5381 95.081 34.5381C94.8691 34.5381 94.6973 34.3662 94.6973 34.1543V33.0029H93.5459C93.3339 33.0029 93.1621 32.8311 93.1621 32.6191C93.1621 32.4072 93.3339 32.2353 93.5459 32.2353H94.6973Z" fill="#FFCE5C"/>
<path fill-rule="evenodd" clip-rule="evenodd" d="M16.6709 60.0146V58.8633C16.6709 58.6513 16.8427 58.4795 17.0547 58.4795C17.2666 58.4795 17.4385 58.6513 17.4385 58.8633V60.0146H18.5898C18.8018 60.0146 18.9736 60.1865 18.9736 60.3984C18.9736 60.6104 18.8018 60.7822 18.5898 60.7822H17.4385V61.9336C17.4385 62.1455 17.2666 62.3174 17.0547 62.3174C16.8427 62.3174 16.6709 62.1455 16.6709 61.9336V60.7822H15.5195C15.3076 60.7822 15.1357 60.6104 15.1357 60.3984C15.1357 60.1865 15.3076 60.0146 15.5195 60.0146H16.6709Z" fill="#FFCE5C"/>
<path fill-rule="evenodd" clip-rule="evenodd" d="M85.3213 62.5576V61.4062C85.3213 61.1943 85.4931 61.0225 85.7051 61.0225C85.917 61.0225 86.0889 61.1943 86.0889 61.4062V62.5576H87.2402C87.4522 62.5576 87.624 62.7294 87.624 62.9414C87.624 63.1534 87.4522 63.3252 87.2402 63.3252H86.0889V64.4765C86.0889 64.6885 85.917 64.8603 85.7051 64.8603C85.4931 64.8603 85.3213 64.6885 85.3213 64.4765V63.3252H84.1699C83.958 63.3252 83.7861 63.1534 83.7861 62.9414C83.7861 62.7294 83.958 62.5576 84.1699 62.5576H85.3213Z" fill="#FFCE5C"/>
<path fill-rule="evenodd" clip-rule="evenodd" d="M34.292 3.0703V0.767574C34.292 0.343654 34.6356 0 35.0596 0C35.4835 0 35.8271 0.343654 35.8271 0.767574V3.0703H38.1299C38.5538 3.0703 38.8974 3.41395 38.8974 3.83787C38.8974 4.26179 38.5538 4.60545 38.1299 4.60545H35.8271V6.90817C35.8271 7.33209 35.4835 7.67575 35.0596 7.67575C34.6356 7.67575 34.292 7.33209 34.292 6.90817V4.60545H31.9893C31.5653 4.60545 31.2217 4.26179 31.2217 3.83787C31.2217 3.41395 31.5653 3.0703 31.9893 3.0703H34.292Z" fill="#FFCE5C"/>
</svg>
