<svg width="24" height="24" viewBox="0 0 24 24" fill="none" xmlns="http://www.w3.org/2000/svg">
<path d="M12 24C18.6274 24 24 18.6274 24 12C24 5.37258 18.6274 0 12 0C5.37258 0 0 5.37258 0 12C0 18.6274 5.37258 24 12 24Z" fill="#FFDE0F"/>
<path d="M12 21C16.9706 21 21 16.9706 21 12C21 7.02944 16.9706 3 12 3C7.02944 3 3 7.02944 3 12C3 16.9706 7.02944 21 12 21Z" fill="#FFDE0F" stroke="#FFB50D" stroke-width="3"/>
<path fill-rule="evenodd" clip-rule="evenodd" d="M8.7998 13.7943H10.1089C10.1695 14.7398 10.824 15.2731 11.7331 15.2731C12.6786 15.2731 13.3089 14.764 13.3089 13.9034C13.3089 13.1398 12.7634 12.8731 11.915 12.6186L10.8847 12.3034C10.0483 12.0489 8.99374 11.4428 8.99374 10.0125C8.99374 8.80039 9.86647 7.91554 11.1513 7.70948V6.40039H12.315V7.70948C13.5028 7.90342 14.3877 8.71554 14.4725 9.91554H13.1634C13.0544 9.06706 12.4725 8.6913 11.7331 8.6913C10.9816 8.6913 10.3392 9.06706 10.3392 9.87918C10.3392 10.6307 10.7756 10.8974 11.6362 11.164L12.6665 11.4792C13.9634 11.8792 14.6665 12.5701 14.6665 13.7943C14.6665 15.1519 13.721 16.061 12.315 16.2549V17.6004H11.1513V16.2549C9.74526 16.061 8.84829 15.164 8.7998 13.7943Z" fill="white"/>
<path d="M6.39961 12.8002C6.84144 12.8002 7.19961 12.442 7.19961 12.0002C7.19961 11.5584 6.84144 11.2002 6.39961 11.2002C5.95778 11.2002 5.59961 11.5584 5.59961 12.0002C5.59961 12.442 5.95778 12.8002 6.39961 12.8002Z" fill="white"/>
<path d="M17.5998 12.8002C18.0416 12.8002 18.3998 12.442 18.3998 12.0002C18.3998 11.5584 18.0416 11.2002 17.5998 11.2002C17.158 11.2002 16.7998 11.5584 16.7998 12.0002C16.7998 12.442 17.158 12.8002 17.5998 12.8002Z" fill="white"/>
</svg>
