<svg width="48" height="48" viewBox="0 0 48 48" fill="none" xmlns="http://www.w3.org/2000/svg">
<mask id="path-1-inside-1_517_9725" fill="white">
<path d="M48 24C48 28.7468 46.5924 33.3869 43.9553 37.3337C41.3181 41.2805 37.5698 44.3566 33.1844 46.1731C28.799 47.9896 23.9734 48.4649 19.3178 47.5388C14.6623 46.6128 10.3859 44.327 7.02944 40.9706C3.67298 37.6141 1.3872 33.3377 0.461153 28.6822C-0.464892 24.0266 0.0103881 19.201 1.82689 14.8156C3.64339 10.4302 6.71953 6.68188 10.6663 4.04473C14.6131 1.40758 19.2532 -5.66044e-08 24 0L24 16.755C22.5671 16.755 21.1663 17.18 19.9749 17.976C18.7835 18.7721 17.8549 19.9036 17.3065 21.2275C16.7582 22.5513 16.6147 24.008 16.8943 25.4134C17.1738 26.8188 17.8638 28.1097 18.877 29.123C19.8903 30.1362 21.1812 30.8262 22.5866 31.1057C23.992 31.3853 25.4487 31.2418 26.7725 30.6935C28.0964 30.1451 29.2279 29.2165 30.024 28.0251C30.82 26.8337 31.245 25.4329 31.245 24H48Z"/>
</mask>
<path d="M48 24C48 28.7468 46.5924 33.3869 43.9553 37.3337C41.3181 41.2805 37.5698 44.3566 33.1844 46.1731C28.799 47.9896 23.9734 48.4649 19.3178 47.5388C14.6623 46.6128 10.3859 44.327 7.02944 40.9706C3.67298 37.6141 1.3872 33.3377 0.461153 28.6822C-0.464892 24.0266 0.0103881 19.201 1.82689 14.8156C3.64339 10.4302 6.71953 6.68188 10.6663 4.04473C14.6131 1.40758 19.2532 -5.66044e-08 24 0L24 16.755C22.5671 16.755 21.1663 17.18 19.9749 17.976C18.7835 18.7721 17.8549 19.9036 17.3065 21.2275C16.7582 22.5513 16.6147 24.008 16.8943 25.4134C17.1738 26.8188 17.8638 28.1097 18.877 29.123C19.8903 30.1362 21.1812 30.8262 22.5866 31.1057C23.992 31.3853 25.4487 31.2418 26.7725 30.6935C28.0964 30.1451 29.2279 29.2165 30.024 28.0251C30.82 26.8337 31.245 25.4329 31.245 24H48Z" fill="#08C0A6" stroke="#08C0A6" stroke-width="2" mask="url(#path-1-inside-1_517_9725)"/>
</svg>
